<svg width="26" height="26" viewBox="0 0 24 25" fill="none"
  xmlns="http://www.w3.org/2000/svg">
  <path fill-rule="evenodd" clip-rule="evenodd" d="M12 24.5C18.6274 24.5 24 19.1274 24 12.5C24 5.87258 18.6274 0.5 12 0.5C5.37258 0.5 0 5.87258 0 12.5C0 19.1274 5.37258 24.5 12 24.5ZM13.9395 7.68066C14.1035 7.59277 14.25 7.48145 14.3789 7.34668C14.5078 7.20605 14.6104 7.04492 14.6865 6.86328C14.7686 6.67578 14.8096 6.44434 14.8096 6.16895C14.8096 5.8877 14.666 5.65039 14.3789 5.45703C14.2617 5.375 14.1328 5.31641 13.9922 5.28125C13.8574 5.24609 13.6641 5.22852 13.4121 5.22852C13.166 5.22852 12.9023 5.31934 12.6211 5.50098C12.4746 5.59473 12.3516 5.71777 12.252 5.87012C12.1582 6.0166 12.1113 6.23926 12.1113 6.53809C12.1113 6.83691 12.2373 7.13281 12.4893 7.42578C12.6064 7.56641 12.7441 7.6748 12.9023 7.75098C13.0664 7.82715 13.2393 7.85645 13.4209 7.83887C13.6025 7.81543 13.7754 7.7627 13.9395 7.68066ZM12.8057 17.1553C12.8057 16.9561 12.7295 16.8564 12.5771 16.8564C12.5186 16.8564 12.4248 16.8887 12.2959 16.9531C12.167 17.0176 11.9766 17.0498 11.7246 17.0498C11.4668 17.0498 11.3379 16.9209 11.3379 16.6631C11.3379 16.2705 11.5312 15.6289 11.918 14.7383L12.4453 13.5254C12.6387 13.1094 12.873 12.5645 13.1484 11.8906C13.4238 11.2109 13.5615 10.6074 13.5615 10.0801C13.5615 9.62891 13.1309 9.40332 12.2695 9.40332C11.918 9.40332 11.6104 9.4707 11.3467 9.60547C11.2178 9.67578 11.1123 9.75781 11.0303 9.85156C10.9541 9.94531 10.916 10.0449 10.916 10.1504C10.916 10.25 10.9453 10.3203 11.0039 10.3613L11.1797 10.4844C11.2441 10.5312 11.3027 10.5986 11.3555 10.6865C11.4141 10.7686 11.4434 10.9414 11.4434 11.2051C11.4434 11.4688 11.2734 12.0137 10.9336 12.8398L10.4678 13.9473C10.2979 14.3281 10.1396 14.7061 9.99316 15.0811C9.85254 15.4502 9.73242 15.8047 9.63281 16.1445C9.53906 16.4785 9.49219 16.7832 9.49219 17.0586C9.49219 17.334 9.53906 17.5684 9.63281 17.7617C9.88477 18.3125 10.3506 18.5879 11.0303 18.5879C11.6221 18.5879 12.0938 18.3828 12.4453 17.9727C12.6855 17.6914 12.8057 17.4189 12.8057 17.1553Z" fill="#4E91F7"/>
</svg>
