<svg class="image" width="198" height="162" viewBox="0 0 198 162" fill="none"
  xmlns="http://www.w3.org/2000/svg">
  <path d="M33.5109 11.7471C33.5109 11.7471 32.0781 8.36171 23.2517 9.36584C14.4253 10.37 13.5122 21.6592 9.10273 29.685C4.69323 37.7109 0.00907314 41.6055 0.00907314 41.6055C0.00907314 41.6055 -0.636756 46.497 8.96912 49.2583C18.575 52.0197 37.4007 47.4079 37.4007 47.4079C37.4007 47.4079 39.8356 26.0415 36.2204 19.5219C32.6052 13.0022 33.5109 11.7471 33.5109 11.7471Z" fill="#263238" />
  <path d="M57.6336 162H38.9557L36.6983 148.96C36.6983 148.853 36.6983 148.731 36.6463 148.609C34.3599 135.376 31.9918 124.223 29.8539 118.994C29.8539 118.994 27.8441 143.574 27.0276 162H27.18H9.53235C9.53235 162 9.53219 162 9.87012 154.877C10.9539 142.756 6.01739 97.8574 14.5246 86.7402H45.2946C45.2946 86.7402 56.7725 144.514 57.6336 162Z" fill="#263238" />
  <path opacity="0.3" d="M36.6523 148.561C34.3657 135.328 31.9975 124.175 29.8594 118.946L31.2774 111.43C31.2774 111.43 34.9522 138.254 36.6523 148.561Z" fill="black" />
  <path d="M64.2705 69.9899C61.3011 71.3598 53.1354 72.8588 53.1354 72.8588C53.1354 72.8588 47.7906 59.5111 46.3801 51.9228C45.9376 49.21 44.5964 46.709 42.5579 44.7951C40.5195 42.8811 37.8936 41.6575 35.0743 41.3077C31.4665 40.8559 16.2337 41.0065 10.8889 42.068C5.54402 43.1295 4.6161 50.7107 4.14101 55.2651C3.66591 59.8195 0.689125 76.7821 3.19823 81.8027C5.70734 86.8234 14.5041 84.8295 14.5041 84.8295V86.6512H45.2815L44.5391 72.7369C44.5391 72.7369 47.4491 80.1244 51.9625 80.4256C56.4759 80.7269 66.7202 73.4541 66.7202 73.4541L64.2705 69.9899ZM10.0797 77.7719C10.0797 77.7719 10.4212 69.1077 11.0299 66.6117L11.9578 71.2379L13.2644 77.7719H10.0797Z" fill="#4E91F7" />
  <path d="M29.6556 75.9014L34.4956 70.2424L41.288 69.2383L42.3273 75.0694L37.1309 76.9055C37.1309 76.9055 34.6292 79.8175 29.6333 79.3154L29.6556 75.9014Z" fill="#FF8B7B" />
  <path d="M64.2671 69.9972L66.7838 65.536L72.9234 63.04L75.2472 69.115L70.1617 71.03C70.1617 71.03 68.8328 73.8559 66.7838 73.4901L64.2671 69.9972Z" fill="#FF8B7B" />
  <path d="M29.7534 35.9056C29.7201 36.4215 29.7201 36.9389 29.7534 37.4548C29.8277 38.4374 29.6346 40.2377 31.6315 41.1844C30.5997 43.3361 28.1128 48.7297 26.6059 50.5587C24.3121 48.7441 18.9227 41.4211 18.9227 41.4211C18.9227 41.4211 22.7086 37.4548 19.9916 29.9812C19.9916 29.9812 16.176 27.2844 16.9406 25.7998C17.8166 24.0712 20.3034 25.0036 20.8305 25.7352C20.2737 24.9463 17.683 16.2893 20.8305 13.1047C22.7903 11.118 24.75 11.0965 28.4024 10.953H28.7067C31.0451 10.8741 32.7822 10.953 32.7822 10.953C33.576 11.7793 34.2754 12.6859 34.8681 13.657C36.5245 16.2695 37.5402 19.2136 37.8375 22.2638C38.5279 29.3716 37.0803 35.131 29.7534 35.9056Z" fill="#FF8B7B" />
  <path d="M31.7782 27.0355C31.7782 27.0355 28.4523 28.1262 27.2422 25.6865" stroke="#263238" stroke-width="0.5" stroke-linecap="round" stroke-linejoin="round" />
  <path d="M27.7631 16.8748C27.2068 16.8589 26.6571 16.9945 26.1767 17.266C25.6963 17.5375 25.3044 17.934 25.0459 18.4103" stroke="#263238" stroke-linecap="round" stroke-linejoin="round" />
  <path d="M36.2149 16.066C35.9454 15.7813 35.619 15.552 35.2554 15.3919C34.8919 15.2318 34.4986 15.1442 34.0991 15.1343" stroke="#263238" stroke-linecap="round" stroke-linejoin="round" />
  <path d="M33.1592 25.7183L32.5059 20.3462L35.7798 24.4057C35.7798 24.4057 35.4606 25.8043 33.1592 25.7183Z" fill="#FF5652" />
  <path d="M27.7834 20.3931C27.8206 20.9384 28.1549 21.3618 28.5263 21.3402C28.8978 21.3187 29.1578 20.8523 29.1132 20.2998C29.0686 19.7473 28.7492 19.3311 28.3703 19.3598C27.9914 19.3885 27.7388 19.8693 27.7834 20.3931Z" fill="#263238" />
  <path d="M34.2565 19.5303C34.3011 20.0828 34.628 20.5062 34.9994 20.4775C35.3709 20.4488 35.6309 19.9895 35.5863 19.437C35.5418 18.8845 35.2149 18.4683 34.8434 18.497C34.472 18.5257 34.2194 18.9849 34.2565 19.5303Z" fill="#263238" />
  <path d="M18.5774 21.828C18.5774 21.828 14.7841 16.915 17.9167 13.7305C19.8765 11.7437 25.1471 10.4455 28.792 10.2949C28.7103 11.1269 28.792 18.414 18.5774 21.828Z" fill="#263238" />
  <path d="M34.9337 13.7319C32.603 13.5044 30.4157 12.5386 28.7124 10.9849L28.4229 10.6908C29.885 10.6325 31.3494 10.7335 32.7882 10.9921C33.5821 11.8184 34.2815 12.7249 34.8743 13.6961L34.9337 13.7319Z" fill="#263238" />
  <path opacity="0.2" d="M29.7779 37.4002C28.1645 36.9262 26.733 36.0001 25.665 34.7393C26.9438 35.3558 28.3317 35.733 29.7557 35.851C29.7298 36.3673 29.7372 36.8847 29.7779 37.4002Z" fill="black" />
  <path opacity="0.2" d="M11.9657 71.3229L11.0371 66.6968V60.0552C11.0371 60.0552 12.1069 67.0625 11.9657 71.3229Z" fill="black" />
  <path d="M148.387 49.7792L94.2759 52.7388L96.6334 92.9757L150.745 90.0161L148.387 49.7792Z" fill="#4E91F7" />
  <path opacity="0.3" d="M148.387 49.7792L94.2759 52.7388L96.6334 92.9757L150.745 90.0161L148.387 49.7792Z" fill="black" />
  <path d="M128.726 50.8995L74.6143 53.8589L76.9719 94.0958L131.084 91.1364L128.726 50.8995Z" fill="#4E91F7" />
  <path opacity="0.3" d="M128.726 50.8995L74.6143 53.8589L76.9719 94.0958L131.084 91.1364L128.726 50.8995Z" fill="white" />
  <path opacity="0.3" d="M135.417 54.3035L123.865 54.9731L124.099 58.7386L135.651 58.069L135.417 54.3035Z" fill="black" />
  <path opacity="0.5" d="M89.5235 58.063L77.9902 58.6938L78.3469 64.7806L89.8801 64.1498L89.5235 58.063Z" fill="white" />
  <path opacity="0.3" d="M93.5508 73.9851L75.8521 74.9531L76.1302 79.7008L93.8289 78.7328L93.5508 73.9851Z" fill="black" />
  <path d="M164.019 16.623L161.05 20.2809C161.873 20.8358 162.818 21.1968 163.812 21.3353L164.019 16.623Z" fill="#A02724" />
  <path d="M182.983 35.9145C182.983 35.9145 171.328 38.9627 172.189 36.7536C172.623 35.4166 172.797 34.0134 172.701 32.6152C172.701 31.6972 172.583 31.0445 172.583 31.0445C168.366 31.2812 165.53 28.3333 164.268 24.7041C162.643 20.0493 163.237 14.8493 165.211 10.4312C165.367 10.0726 165.812 8.55203 166.206 8.36555L170.779 6.32861C170.779 6.32861 175.233 9.14734 177.549 10.8974C179.865 12.6474 181.728 20.7809 181.728 27.1069C181.728 33.4329 182.983 35.9145 182.983 35.9145Z" fill="#B55B52" />
  <path d="M163.667 15.2646C163.461 15.3191 163.278 15.4352 163.144 15.5964C163.011 15.7575 162.934 15.9554 162.924 16.1616C162.894 16.3531 162.924 16.549 163.012 16.7234C163.099 16.8977 163.24 17.0421 163.414 17.1375L163.667 15.2646Z" fill="#263238" />
  <path d="M163.673 11.6593C164.158 11.6488 164.636 11.7759 165.047 12.0248" stroke="#263238" stroke-linecap="round" stroke-linejoin="round" />
  <path d="M167.724 23.2826C167.724 23.2826 171.109 28.3893 176.498 29.5584C181.887 30.7275 183.587 28.92 184.307 25.9722C184.931 23.1928 186.313 20.625 188.309 18.5345C190.172 16.6769 189.051 11.6347 186.683 7.48911C186.683 7.48911 189.222 5.43065 185.131 3.45108C181.041 1.47152 179.534 4.76362 175.986 2.84144C172.437 0.91925 177.174 0.280914 173.826 6.27698C170.478 12.2731 168.629 7.91228 168.132 10.5804C167.635 13.2485 165.044 17.8818 167.724 23.2826Z" fill="#263238" />
  <path d="M168.134 11.7718C167.799 11.6642 157.064 7.91306 156.96 6.21322C156.856 4.51338 165.283 7.60465 165.602 7.72658L167.777 11.0474L168.134 11.7718Z" fill="#4E91F7" />
  <path d="M189.8 15.9355C189.696 16.2439 189.057 18.288 188.783 18.288L187.884 18.2378C187.048 18.1709 186.217 18.0776 185.39 17.9581C184.477 17.8218 183.579 17.6497 182.695 17.4489H182.658C181.76 17.2409 180.877 17.0114 180.016 16.7316C177.902 16.115 175.827 15.3798 173.802 14.5297C172.659 14.0492 171.649 13.583 170.833 13.1813C169.163 12.378 168.168 11.8114 168.168 11.8114L168.019 11.5747L167.411 10.6495L166.112 8.66276L165.666 7.99574V7.94553C165.645 7.88502 165.645 7.81956 165.666 7.75905C165.711 6.99878 167.322 4.89011 167.611 4.5315C168.803 2.99182 170.322 1.71546 172.065 0.787538C174.455 -0.489137 177.15 0.0703091 179.689 0.500649C180.529 0.669139 181.348 0.924012 182.131 1.26091L182.629 1.46891L182.725 1.51195C182.814 1.56215 182.911 1.59801 183 1.64105L183.163 1.71994C185.05 2.57353 186.766 3.74132 188.233 5.16983C191.574 8.79186 190.215 14.7664 189.8 15.9355Z" fill="#4E91F7" />
  <path d="M186.161 39.7382C186.161 39.7382 185.626 36.152 184.461 35.4348C183.295 34.7176 171.715 34.8252 169.911 36.0516C168.107 37.2781 168.426 41.2874 168.426 41.2874L186.161 39.7382Z" fill="#4E91F7" />
  <path d="M165.609 17.5724C165.609 17.5724 167.584 15.1051 169.7 16.6328C171.816 18.1605 170.138 21.7826 167.651 22.801C167.651 22.801 164.436 23.8123 164.021 20.6493C163.605 17.4863 165.609 17.5724 165.609 17.5724Z" fill="#B55B52" />
  <path d="M157.694 103.489C157.694 103.489 153.348 143.22 152.115 161.997H170.174C172.03 147.688 177.188 134.172 177.188 134.172C177.188 134.172 177.587 149.474 181.299 161.997H197.998C197.998 146.792 198.04 115.696 194.343 103.503L157.694 103.489Z" fill="#4E91F7" />
  <path opacity="0.3" d="M198 161.997H181.301C179.259 155.112 180.523 158.113 179.105 148.352C177.917 140.383 177.175 134.172 177.175 134.172C177.175 134.172 171.942 147.652 170.086 161.997H152.109C153.342 143.22 157.688 103.489 157.688 103.489H194.301C198.012 115.682 198 146.828 198 161.997Z" fill="black" />
  <path opacity="0.3" d="M179.099 148.416C177.918 140.448 177.176 134.237 177.176 134.237L177.918 123.091L179.099 148.416Z" fill="black" />
  <path opacity="0.3" d="M165.602 7.8339C165.832 8.9743 166.07 9.84932 168.022 11.8361C165.543 10.9467 157.049 7.77652 156.96 6.32054C156.871 4.86456 163.464 7.05211 165.602 7.8339Z" fill="black" />
  <path opacity="0.3" d="M165.602 8.01061C165.581 7.94933 165.581 7.88305 165.602 7.82178C165.602 7.82178 165.602 7.90167 165.602 8.05419V8.01061Z" fill="black" />
  <path opacity="0.3" d="M168.141 11.833L167.91 11.7458C167.922 11.7154 167.937 11.6862 167.954 11.6587L168.141 11.833Z" fill="black" />
  <path d="M189.8 15.9355C189.696 16.2439 189.057 18.288 188.783 18.288L187.884 18.2378C187.048 18.1709 186.217 18.0776 185.39 17.9581C184.477 17.8218 183.579 17.6497 182.695 17.4489H182.658C181.76 17.2409 180.877 17.0114 180.016 16.7316C177.902 16.115 175.827 15.3798 173.802 14.5297C172.659 14.0492 171.649 13.583 170.833 13.1813C169.163 12.378 168.168 11.8114 168.168 11.8114L168.019 11.5747L167.411 10.6495L166.112 8.66276L165.666 7.99574V7.94553C165.645 7.88502 165.645 7.81956 165.666 7.75905C165.711 6.99878 167.322 4.89011 167.611 4.5315C168.803 2.99182 170.322 1.71546 172.065 0.787538C174.455 -0.489137 177.15 0.0703091 179.689 0.500649C180.529 0.669139 181.348 0.924012 182.131 1.26091L182.629 1.46891L182.725 1.51195C182.814 1.56215 182.911 1.59801 183 1.64105L183.163 1.71994C185.05 2.57353 186.766 3.74132 188.233 5.16983C191.574 8.79186 190.215 14.7664 189.8 15.9355Z" fill="#4E91F7" />
  <path opacity="0.2" d="M175.196 30.2827C174.406 31.0775 173.573 31.832 172.702 32.543C172.702 31.6245 172.583 30.9716 172.583 30.9716C173.479 30.8398 174.355 30.6086 175.196 30.2827Z" fill="black" />
  <path d="M157.687 103.953V67.2164L150.746 64.4837C150.746 64.4837 152.075 44.8817 161.955 41.7904C171.836 38.6992 189.422 37.401 194.262 41.7904C197.32 44.5805 197.729 49.056 197.84 52.8932C198.078 60.7111 195.962 68.3568 195.494 76.1316C195.123 82.4576 194.9 88.7836 194.752 95.1167C194.752 95.6045 194.559 103.953 194.544 103.953H157.687Z" fill="#263238" />
  <path d="M161.491 68.4606C161.491 68.4606 156.354 84.8565 151.276 85.8822C146.198 86.9078 128.857 77.7631 128.857 77.7631H121.115L120.016 71.1861C120.016 71.1861 127.224 68.604 132.027 71.6953C132.027 71.6953 143.244 76.4219 146.978 77.799L152.39 65.147L161.491 68.4606Z" fill="#B55B52" />
</svg>
