<svg xmlns="http://www.w3.org/2000/svg" xmlns:xlink="http://www.w3.org/1999/xlink" width="180" height="175" fill="none" xmlns:v="https://vecta.io/nano"><style><![CDATA[.B{fill:#4e91f7}.C{fill:#000}.D{opacity:.7}.E{fill:#e4897b}.F{fill:#263238}.G{opacity:.3}.H{fill:#e0e0e0}]]></style><g class="E"><path d="M.5 66.411l.469 7.959 4.619.171 1.205-7.761L.5 66.411zm42.841-14.617a185.07 185.07 0 0 1-4.225 12.477 122.72 122.72 0 0 1-5.355 12.261l-.837 1.545-.937 1.572-.259.422-.377.548a12.52 12.52 0 0 1-.837 1.051 9.17 9.17 0 0 1-2.242 1.797c-1.584.865-3.356 1.253-5.129 1.123a12.59 12.59 0 0 1-4.1-1.06c-1.129-.484-2.21-1.086-3.23-1.797-.963-.644-1.885-1.356-2.761-2.129a33.23 33.23 0 0 1-2.435-2.362 32.87 32.87 0 0 1-2.242-2.605l3.347-3.881 2.426 1.545 2.51 1.401a20.79 20.79 0 0 0 4.794 1.895c.595.129 1.206.15 1.807.063.46-.072.636-.234.695-.35l.125-.225.092-.198.059-.126.125-.27.602-1.222.594-1.329c1.548-3.638 2.97-7.599 4.326-11.57l4.033-11.974 9.43 3.396z"/><path d="M11.871 70.872L6.8 66.776l-1.213 7.761s4.184 3.431 7.179.44l-.895-4.105z"/></g><use xlink:href="#B" class="B"/><use xlink:href="#B" class="C G"/><use xlink:href="#C" class="B"/><use xlink:href="#C" class="C G"/><path d="M39.911 93.024l-5.325 81.58h19.149c1.874-22.852 8.291-81.58 8.291-81.58H39.911z" class="B"/><path d="M39.911 93.024l-5.258 81.58h19.082c1.874-22.852 8.291-81.58 8.291-81.58H39.911z" class="C D"/><use xlink:href="#D" class="B"/><use xlink:href="#D" class="C D"/><path d="M62.843 20.813c-.904 4.94-1.807 13.995 1.414 17.292 0 0-1.448 3.315-9.999 3.315-7.815 0-4.301-3.315-4.301-3.315 5.129-1.32 5.02-5.39 4.108-9.243l8.777-8.048z" class="E"/><path d="M59.237 24.102l-5.196 4.761c.223.882.371 1.784.444 2.695 1.673 1.707 4.652-2.614 4.861-4.815.111-.88.074-1.774-.109-2.641z" fill="#ce6f64"/><path d="M47.113 5.76c-2.795 2.003-2.837 11.489 1.431 12.8s3.866-16.555-1.431-12.8z" class="F"/><path d="M63.421 13.384c-.377 6.683-.285 10.618-3.431 14.058-4.736 5.165-12.425 2.093-13.915-4.581-1.339-6.009-.485-15.935 5.614-18.603a7.98 7.98 0 0 1 4.246-.627c1.442.183 2.816.76 3.992 1.675s2.114 2.137 2.725 3.551.875 2.973.767 4.527z" class="E"/><g class="F"><path d="M65.581 4.95l-6.016 2.892c2.359 4.725-2.945 12.701 2.401 11.83 2.452-.404 10.183-8.614 3.615-14.723z"/><path d="M64.024 17.067l-6.175-1.401c-.035-.009-.065-.031-.085-.063s-.028-.07-.023-.108a.15.15 0 0 1 .019-.053.14.14 0 0 1 .037-.041.13.13 0 0 1 .049-.022c.018-.004.036-.004.053 0 .05 0 4.694 1.033 6.192 1.401a.13.13 0 0 1 .095.042.15.15 0 0 1 .039.102.15.15 0 0 1-.039.102.13.13 0 0 1-.095.042h-.067z"/></g><path d="M66.205 20.75c-.414.707-.953 1.319-1.588 1.802a5.72 5.72 0 0 1-2.11 1.01c-2.033.485-2.937-1.5-2.276-3.494.602-1.796 2.376-4.204 4.368-3.791.433.1.836.314 1.173.623a2.87 2.87 0 0 1 .756 1.147 3.06 3.06 0 0 1 .157 1.395 2.99 2.99 0 0 1-.48 1.308z" class="E"/><path d="M54.327 15.253c0 .539-.276.979-.602.979s-.603-.44-.603-.979.268-.988.603-.988.602.44.602.988zm-5.74 0c0 .539-.268.979-.603.979s-.594-.44-.594-.979.268-.988.594-.988.603.44.603.988z" class="F"/><path d="M50.032 15.521c-.604 1.662-1.418 3.228-2.419 4.653.345.268.74.451 1.158.537s.848.071 1.261-.043v-5.147z" fill="#de5753"/><path d="M50.785 22.995c-.02-.001-.039-.006-.057-.016s-.034-.022-.047-.038-.023-.034-.03-.054-.009-.041-.008-.063.004-.042.012-.061.019-.036.033-.051a.14.14 0 0 1 .049-.033c.018-.007.038-.01.057-.009a3.79 3.79 0 0 0 1.844-.34 4.07 4.07 0 0 0 1.503-1.197c.023-.034.058-.057.096-.066a.15.15 0 0 1 .113.021c.027.03.042.07.042.112s-.015.082-.042.112c-.428.563-.974 1.01-1.594 1.302a4.01 4.01 0 0 1-1.971.378zm6.127-12.333c-.045.005-.09-.001-.133-.018s-.08-.045-.11-.081c-.24-.31-.547-.554-.894-.71a2.2 2.2 0 0 0-1.098-.188c-.078.011-.158-.011-.221-.062s-.107-.125-.122-.208.006-.168.052-.237a.3.3 0 0 1 .191-.131 2.78 2.78 0 0 1 1.378.218 2.97 2.97 0 0 1 1.133.87c.054.06.085.141.085.225s-.03.164-.085.225c-.048.051-.109.086-.176.099z" class="F"/><path d="M68.056 56.06l-9.826-.354-.027.862 9.826.354.027-.862z" class="H"/><g class="F"><path d="M46.032 10.603a.32.32 0 0 1-.117-.072c-.055-.062-.085-.144-.085-.229a.35.35 0 0 1 .085-.229 2.95 2.95 0 0 1 1.176-.816 2.77 2.77 0 0 1 1.394-.145.28.28 0 0 1 .122.038c.038.022.071.052.097.088a.32.32 0 0 1 .054.124.37.37 0 0 1 .002.137.32.32 0 0 1-.051.125.31.31 0 0 1-.094.092c-.037.023-.078.037-.121.042a.27.27 0 0 1-.126-.016c-.371-.05-.748-.005-1.1.131a2.37 2.37 0 0 0-.925.651c-.04.042-.09.072-.144.087a.29.29 0 0 1-.165-.006zm6.256-5.652s-.184-5.21 4.719-4.94c3.807.207 10.944 6.135 13.178 4.94 0 0-4.184 5.3-9.689 3.593a32.22 32.22 0 0 1-8.208-3.593z"/><path d="M52.286 4.95s4.117-2.695 1.389-4.231c-3.966-2.21-8.735 5.821-10.961 4.626 0 0 .485 3.818 5.798 1.581a26.71 26.71 0 0 0 3.774-1.976zm2.043 14.902c-2.025 0-3.673-2.21-3.673-4.922 0-2.407 1.305-3.737 3.673-3.737s3.682 1.329 3.682 3.737c0 2.713-1.648 4.922-3.682 4.922zm0-8.372c-1.548 0-3.405.602-3.405 3.449 0 2.551 1.531 4.626 3.405 4.626s3.405-2.075 3.405-4.626c0-2.847-1.841-3.449-3.405-3.449zm-8.302 8.372c-1.673 0-3.087-2.21-3.087-4.922 0-3.252 1.933-3.737 3.087-3.737s3.087.485 3.087 3.737c0 2.713-1.381 4.922-3.087 4.922zm0-8.372c-1.289 0-2.82.602-2.82 3.449 0 2.551 1.264 4.626 2.82 4.626s2.82-2.075 2.82-4.626c0-2.847-1.531-3.449-2.82-3.449z"/><path d="M48.73 13.34c-.024 0-.047-.006-.068-.019s-.038-.031-.05-.053a.14.14 0 0 1-.02-.054c-.003-.019-.002-.039.003-.058s.013-.036.025-.051.026-.027.043-.035a2.32 2.32 0 0 1 2.511 0c.031.019.054.05.065.087s.008.076-.007.111c-.008.017-.019.033-.033.046s-.03.022-.047.028-.035.008-.053.006a.13.13 0 0 1-.051-.017c-.336-.221-.723-.338-1.117-.338s-.781.117-1.117.338l-.084.009z"/></g><path d="M56.007 40.458s2.159 3.243 2.577 5.587c2.577-1.15 7.455-4.024 8.108-8.084a10.79 10.79 0 0 1-2.669-1.347s-2.602 2.371-8.016 3.845zm-1.741-.151c-1.345 1.38-2.227 3.2-2.51 5.174-2.577-1.15-3.59-4.904-2.912-7.393a13.98 13.98 0 0 1 3.054-1.078c-.039.763.179 1.515.614 2.12s1.057 1.022 1.754 1.176z" fill="#f0f0f0"/><use xlink:href="#E" class="B"/><use xlink:href="#E" class="C D"/><g class="H"><path d="M68.115 91.669h-1.213a.54.54 0 0 1-.397-.176c-.105-.113-.164-.266-.164-.426s.059-.315.164-.429a.55.55 0 0 1 .397-.182h1.213a.56.56 0 0 1 .4.181c.106.114.167.268.169.429s-.063.314-.17.426a.55.55 0 0 1-.4.176z"/><path d="M66.766 93.261v-1.707a.84.84 0 0 1 .057-.305c.038-.097.093-.184.162-.258s.151-.132.242-.171a.69.69 0 0 1 .284-.058.71.71 0 0 1 .521.232.82.82 0 0 1 .216.559v1.707a.83.83 0 0 1-.218.556.72.72 0 0 1-.518.234.72.72 0 0 1-.524-.231.83.83 0 0 1-.221-.559z"/></g><use xlink:href="#F" class="B"/><use xlink:href="#F" class="C D"/><g class="H"><path d="M43.867 91.669h-1.213a.58.58 0 0 1-.407-.176c-.11-.112-.177-.264-.188-.426-.002-.079.01-.157.036-.23a.6.6 0 0 1 .117-.197.55.55 0 0 1 .178-.134.52.52 0 0 1 .213-.049h1.214c.152.002.297.067.406.18a.66.66 0 0 1 .18.431c.005.078-.006.156-.031.23s-.064.141-.114.197a.53.53 0 0 1-.178.131c-.067.03-.14.045-.213.044z"/><path d="M42.588 93.261l-.075-1.707c-.005-.103.011-.206.044-.302s.086-.184.152-.258.147-.133.235-.172a.66.66 0 0 1 .28-.058.75.75 0 0 1 .531.232c.143.147.229.347.239.559l.075 1.707c.005.102-.01.204-.044.3s-.084.183-.15.257-.145.133-.232.173a.66.66 0 0 1-.277.061.76.76 0 0 1-.534-.231.87.87 0 0 1-.244-.559z"/></g><g class="B"><use xlink:href="#G"/><use xlink:href="#H"/></g><g class="C"><use xlink:href="#G" class="D"/><use xlink:href="#H" class="D"/></g><path d="M54.78 41.411l1.23-.952 2.611 2.695-3.841-1.743z" class="B"/><path opacity=".5" d="M54.78 41.411l1.23-.952 2.611 2.695-3.841-1.743z" class="C"/><path d="M54.78 41.411l-.511-1.105-3.373 2.848 3.883-1.743z" class="B"/><path opacity=".5" d="M54.78 41.411l-.511-1.105-3.373 2.848 3.883-1.743z" class="C"/><use xlink:href="#I" class="B"/><use xlink:href="#I" class="C D"/><use xlink:href="#J" class="B"/><use xlink:href="#J" class="C D"/><use xlink:href="#K" class="B"/><use xlink:href="#K" class="C D"/><use xlink:href="#L" class="B"/><use xlink:href="#L" class="C G"/><g class="B"><path d="M12.17 63.966l-10.682-.689-.083 1.48 10.682.689.083-1.48z"/><path d="M11.496 63.181l-9.246-.597-.083 1.48 9.246.597.083-1.48z"/></g><path d="M11.496 63.181l-9.246-.597-.083 1.48 9.246.597.083-1.48z" fill="#f5f5f5"/><g fill="#ebebeb"><path d="M12.17 63.966l-10.682-.689-.083 1.48 10.682.689.083-1.48z"/><path opacity=".43" d="M5.926 68.025l-.427 7.653-2.971-.189-.109-7.689 3.507.225z"/></g><use xlink:href="#M" class="B"/><use xlink:href="#M" fill="#fff" class="G"/><use xlink:href="#N" class="B"/><g fill="#fff"><use xlink:href="#N" class="D"/><path d="M87.804 112.006l-31.302-1.096a1.31 1.31 0 0 1-.553-.142c-.173-.088-.327-.214-.452-.37a1.84 1.84 0 0 1-.319-.628c-.066-.229-.089-.471-.066-.711l2.577-29.328a1.8 1.8 0 0 1 .186-.664 1.67 1.67 0 0 1 .417-.53 1.33 1.33 0 0 1 .516-.243 1.28 1.28 0 0 1 .563 0l30.716 7.186a1.45 1.45 0 0 1 .691.673c.153.302.204.651.146.989l-2.008 23.435a1.49 1.49 0 0 1-.308.938c-.204.262-.49.437-.805.491zM59.046 78.437a1.07 1.07 0 0 0-.678.243 1.47 1.47 0 0 0-.374.473c-.092.184-.147.387-.162.596l-2.586 29.328a1.74 1.74 0 0 0 .343 1.204c.111.137.247.247.4.324a1.16 1.16 0 0 0 .487.125l31.302 1.105c.469 0 .895-.557.954-1.249l2.008-23.435c.055-.3.011-.612-.124-.881a1.25 1.25 0 0 0-.62-.592l-30.708-7.186a.92.92 0 0 0-.243-.054zm15.828 23.777h-.318a3.56 3.56 0 0 1-1.396-.485 3.81 3.81 0 0 1-1.114-1.024c-.905-1.232-1.323-2.797-1.163-4.356.048-.761.239-1.505.563-2.184a5.57 5.57 0 0 1 1.32-1.768 3.48 3.48 0 0 1 1.299-.708 3.33 3.33 0 0 1 1.454-.091 3.72 3.72 0 0 1 1.486.643c.448.323.828.744 1.116 1.235.007.008.013.017.017.027s.006.021.006.032-.002.022-.006.032-.01.019-.017.027-.016.014-.025.018-.019.007-.029.007-.02-.002-.03-.007-.018-.011-.025-.018c-.28-.469-.648-.871-1.08-1.18a3.62 3.62 0 0 0-1.43-.616 3.17 3.17 0 0 0-1.389.091 3.32 3.32 0 0 0-1.238.681 5.4 5.4 0 0 0-1.276 1.708 5.76 5.76 0 0 0-.548 2.109c-.154 1.517.251 3.039 1.13 4.24.604.806 1.478 1.326 2.435 1.446.505.04 1.011-.038 1.485-.228a3.49 3.49 0 0 0 1.259-.876c.016-.017.037-.026.059-.026s.043.009.059.026.021.039.021.062a.1.1 0 0 1-.021.063 3.64 3.64 0 0 1-1.197.841c-.447.193-.924.289-1.406.282z"/><path d="M77.372 101.075c-.022.008-.045.008-.067 0-.727-1.169-1.05-2.574-.912-3.971.102-1.363.661-2.639 1.573-3.593.017-.017.039-.026.061-.025s.044.011.06.029.024.042.023.066-.011.047-.027.064c-.899.926-1.445 2.178-1.531 3.512-.129 1.353.184 2.712.887 3.845.009.007.016.017.021.028s.007.022.007.035-.002.023-.007.034-.012.021-.021.028l-.067-.053z"/></g><g class="E"><path d="M81.679 47.635c1.146 4.734 2.142 9.459 3.029 14.255l1.23 7.231.544 3.674.234 1.868.134.997.058.476.05.575c.18 2.767.05 5.548-.385 8.282-.375 2.525-.878 5.025-1.506 7.492a100.45 100.45 0 0 1-4.677 14.076l-4.686-1.626c.837-4.635 1.514-9.387 2.058-14.004.268-2.308.46-4.608.561-6.845a31.8 31.8 0 0 0-.243-6.189l-.05-.323-.084-.413-.159-.844-.351-1.698-.745-3.449-1.556-7.007-3.079-14.004 9.622-2.524z"/><path d="M80.59 102.708l-4.016.602-3.23 5.686-1.422 4.339 6.418-.341 1.54-2.632s2.853-3.899.711-7.654z"/></g><use xlink:href="#O" class="B"/><use xlink:href="#O" class="C G"/><path d="M149.653 29.562c-2.87-1.186-10.351-4.051-5.757-13.725s15.789 3.53 19.596-.898c-.502 5.614-4.979 18.28-13.839 14.624z" class="F"/><use xlink:href="#P" class="B"/><use xlink:href="#P" class="C G"/><path d="M139.219 61.64a80.79 80.79 0 0 0-12.426 0c2.803-2.865 2.017-11.12 1.23-15.414l5.28 4.842 2.351 2.156a14.71 14.71 0 0 0-.385 2.326c-.209 2.65.511 5.201 3.95 6.09zm13.582 9.818l.527 5.147.728 5.201a104.8 104.8 0 0 0 2.091 10.186l1.473 4.878.728 2.03c.116.317.293.605.519.844.311.253.682.409 1.071.45.61.069 1.226.051 1.832-.054a18.28 18.28 0 0 0 4.259-1.357l1.95 3.009a17 17 0 0 1-2.259 1.86 14.17 14.17 0 0 1-2.578 1.455c-1.004.442-2.064.721-3.146.826-1.343.142-2.698-.118-3.912-.752a7.51 7.51 0 0 1-2.965-2.841c-.324-.498-.604-1.027-.837-1.581l-.552-1.32-1.9-5.39a88.85 88.85 0 0 1-2.585-10.95l-.837-5.533s-.418-3.674-.527-5.659l6.92-.449z" class="E"/><use xlink:href="#Q" class="B"/><use xlink:href="#Q" class="C D"/><path d="M178.853 84.704l-11.355-1.949-.577 2.515-5.656 13.16 11.354 1.949 5.656-13.16.578-2.515z" class="F"/><path d="M179.5 84.824l-11.354-1.949-.578 2.506-5.656 13.168 11.354 1.949 5.657-13.168.577-2.506z" class="B"/><g class="E"><path d="M167.693 101.974l5.363-4.492-6.694-1.509s-2.82 3.521-1.807 6.288l3.138-.287z"/><path d="M174.422 91.57l-5.681-.943-2.393 5.336 6.71 1.509 1.364-5.902z"/></g><use xlink:href="#R" class="B"/><use xlink:href="#R" class="C D"/><g class="B"><path d="M127.975 59.081c-.909.447-1.691 1.145-2.268 2.021.661 1.159 5.757 3.324 7.137 3.189-.05-1.178.285-2.337.946-3.279 0 0-3.548-.126-5.815-1.931z"/><path d="M136.216 59.267c.921.428 1.769 1.016 2.51 1.743-.285.988-2.51 2.785-3.481 3.18-.195-1.192-.71-2.297-1.481-3.18.93-.373 1.769-.969 2.452-1.743zm11.176 47.5s5.224 45.748 4.78 67.837H134.8c-.878-24.568-7.447-67.837-7.447-67.837h20.039z"/><path d="M140.167 107.163s-2.546 39.463-6.605 67.444l-18.421.393c4.184-56.591-3.925-54.713 4.844-67.819l20.182-.018z"/><path opacity=".57" d="M133.902 83.743l3.654.138c1.704.064 3.134-1.366 3.194-3.196l.124-3.761c.06-1.829-1.273-3.365-2.977-3.429l-3.654-.138c-1.704-.065-3.134 1.366-3.194 3.196l-.124 3.761c-.06 1.829 1.273 3.365 2.977 3.429z"/></g><path d="M135.656 53.209a14.71 14.71 0 0 0-.385 2.327c-1.832-.341-4.234-2.291-4.418-4.15-.111-.772-.077-1.56.101-2.317l2.351 1.985 2.351 2.156z" fill="#ce6f64"/><path d="M125.859 36.46c.41 7.186.443 10.204 3.815 13.887 5.071 5.533 13.179 3.422 14.768-3.728 1.44-6.44.528-17.067-6.007-19.932-1.438-.637-3.005-.869-4.55-.674s-3.018.813-4.279 1.792-2.266 2.289-2.922 3.804a10.42 10.42 0 0 0-.825 4.85z" class="E"/><g class="F"><path d="M124.812 39.534c-.03.009-.062.009-.092 0s-.048-.029-.067-.05-.034-.047-.043-.075-.014-.057-.012-.087.009-.058.022-.085c.836-1.85 7.589-3.117 8.367-3.261 2.189-.335 4.408-.395 6.61-.18.261-.133.547-.203.837-.203s.575.069.836.203c1.43-.17 2.872-.17 4.301 0 .028.002.055.01.08.025a.2.2 0 0 1 .064.057c.018.024.03.051.037.08s.008.06.003.089c-.008.058-.037.11-.081.146s-.099.051-.153.043c-1.415-.167-2.844-.167-4.259 0-.036.009-.073.009-.109 0a1.4 1.4 0 0 0-1.372 0c-.023.01-.047.015-.071.015s-.049-.005-.071-.015a25.38 25.38 0 0 0-6.569.18c-2.016.368-7.413 1.617-8.04 3.009-.021.041-.053.073-.093.093s-.083.025-.125.015z"/><path d="M136.259 41.841h-.201a2.73 2.73 0 0 1-1.232-.303c-.385-.197-.724-.483-.994-.837-1.205-1.644-.728-4.419-.711-4.491.002-.015.007-.03.014-.043s.018-.024.03-.033.025-.014.039-.017a.09.09 0 0 1 .043.002c.014.004.026.007.037.015a.1.1 0 0 1 .029.029.11.11 0 0 1 .017.039c.002.014.003.029 0 .043 0 0-.477 2.803.67 4.365a2.7 2.7 0 0 0 .927.777 2.52 2.52 0 0 0 1.148.274 2.4 2.4 0 0 0 1.122-.148 2.55 2.55 0 0 0 .953-.652c1.414-1.536 1.23-4.77 1.23-4.806a.12.12 0 0 1 .004-.042c.004-.014.011-.026.019-.037s.019-.02.031-.026.025-.01.038-.011c.027 0 .054.011.074.031a.12.12 0 0 1 .035.077c0 .135.184 3.369-1.289 4.976a2.76 2.76 0 0 1-.939.631 2.6 2.6 0 0 1-1.094.187zm7.419-.161c-.321.013-.642-.049-.939-.18a2.25 2.25 0 0 1-.785-.583c-1.272-1.5-.837-4.626-.837-4.761.001-.015.005-.029.011-.042s.016-.024.028-.033.024-.015.037-.017.028-.002.041.002.026.007.038.015a.11.11 0 0 1 .029.029c.008.012.013.025.016.039s.003.029.001.043c0 0-.435 3.153.762 4.572a2.08 2.08 0 0 0 .802.569 1.96 1.96 0 0 0 .955.123 1.37 1.37 0 0 0 .624-.178 1.48 1.48 0 0 0 .489-.451c.996-1.419.293-4.77.285-4.806-.003-.029.003-.059.019-.084s.038-.043.064-.051a.09.09 0 0 1 .043-.002c.014.003.027.008.039.017a.11.11 0 0 1 .03.033c.007.013.012.028.014.043 0 .144.728 3.485-.326 4.985-.149.214-.341.389-.561.513a1.59 1.59 0 0 1-.711.205h-.168z"/><path d="M124.813 40.256c10.317-2.246 14.676-12.351 14.676-12.351s-1.313-4.491-7.338-3.889c-4.794.494-14.475 9.504-7.338 16.241zm-4.108-10.583c3.263-1.123 11.714-3.809 6.025-14.417s-18.04 2.982-22.592-1.958c.845 6.036 6.527 19.834 16.567 16.375z"/><path d="M144.507 35.695c-3.883-8.713-10.543-9.369-10.543-9.369s3.74-3.512 8.869-.099c3.673 2.452 3.104 6.674 1.674 9.468z"/></g><path d="M124.242 40.442c.139 1.382.783 2.648 1.791 3.521 1.339 1.141 2.669 0 2.853-1.707.168-1.563-.335-4.033-1.949-4.491a2.05 2.05 0 0 0-1.077.003 2.15 2.15 0 0 0-.945.553 2.38 2.38 0 0 0-.587.969c-.117.37-.147.766-.086 1.152z" class="E"/><g class="F"><use xlink:href="#S"/><use xlink:href="#S" x="6.25"/><path d="M142.074 37.44l1.306-.404s-.712 1.096-1.306.404z"/></g><path d="M140.5 39.461a16.17 16.17 0 0 0 1.942 3.728c-.278.212-.596.357-.931.423a2.19 2.19 0 0 1-1.011-.037v-4.114z" fill="#de5753"/><path d="M138.591 45.874c-.73.022-1.455-.144-2.113-.485a4.66 4.66 0 0 1-1.67-1.473c-.022-.04-.029-.087-.02-.132s.035-.085.071-.11.078-.031.119-.021a.16.16 0 0 1 .098.075c.416.572.949 1.033 1.56 1.345a4.09 4.09 0 0 0 1.955.452.16.16 0 0 1 .11.052c.03.032.047.074.049.118.001.023-.002.046-.009.068a.18.18 0 0 1-.034.059.16.16 0 0 1-.053.039c-.02.009-.041.014-.063.014zm-4.156-12.276c-.068-.001-.135-.026-.189-.07s-.094-.107-.113-.178a.36.36 0 0 1 .009-.215.34.34 0 0 1 .126-.167c.562-.352 1.191-.563 1.84-.619a4.08 4.08 0 0 1 1.909.296.32.32 0 0 1 .105.074.36.36 0 0 1 .071.111.37.37 0 0 1 .024.132.37.37 0 0 1-.024.132.34.34 0 0 1-.176.18c-.078.034-.165.033-.243 0a3.54 3.54 0 0 0-1.614-.236c-.547.048-1.079.224-1.558.515a.29.29 0 0 1-.167.045zm9.053-.35c-.062 0-.123-.018-.175-.054-.331-.243-.711-.397-1.108-.451a2.35 2.35 0 0 0-1.177.145.31.31 0 0 1-.123.031c-.043.002-.084-.006-.124-.022s-.076-.04-.107-.071a.37.37 0 0 1-.073-.109c-.018-.041-.027-.086-.029-.131s.005-.091.02-.133a.35.35 0 0 1 .066-.115.32.32 0 0 1 .102-.079 2.97 2.97 0 0 1 1.489-.2c.504.062.986.254 1.407.559.07.048.12.124.139.212a.36.36 0 0 1-.039.256c-.028.05-.067.091-.114.119a.3.3 0 0 1-.154.043zm-7.707 4.192l1.272-.404s-.636 1.096-1.272.404z" class="F"/><use xlink:href="#T" class="B"/><use xlink:href="#T" opacity=".6" fill="#fff"/><path d="M122.276 108.368h-.745c-.151 0-.26-.081-.251-.18l.351-3.422c0-.099.134-.18.285-.18h.745c.142 0 .259.081.251.18l-.352 3.422c-.008.099-.142.18-.284.18zm23.98 0h-.745c-.143 0-.26-.081-.251-.18l.351-3.422c0-.099.142-.18.285-.18h.745c.15 0 .259.081.251.18l-.352 3.422c-.008.099-.134.18-.284.18zm-9.694 0h-.737c-.15 0-.259-.081-.251-.18l.343-3.422c0-.099.143-.18.293-.18h.745c.142 0 .26.081.243.18l-.343 3.422c-.009.099-.143.18-.293.18z" class="B"/><g class="H"><path d="M125.17 103.51h1.213c.156-.003.305-.065.422-.175s.193-.262.214-.428a.56.56 0 0 0-.013-.227c-.02-.074-.055-.143-.102-.201s-.105-.105-.17-.136-.137-.047-.208-.047h-1.189c-.156.003-.307.067-.424.179s-.192.266-.212.432a.55.55 0 0 0 .012.221c.018.071.051.138.095.195a.5.5 0 0 0 .162.135.47.47 0 0 0 .2.052z"/><path d="M126.341 105.088l.192-1.707c.015-.099.009-.202-.017-.299a.72.72 0 0 0-.135-.262.65.65 0 0 0-.226-.175c-.087-.04-.181-.058-.275-.054-.205-.002-.404.078-.559.224a.92.92 0 0 0-.278.566l-.192 1.707c-.015.1-.009.202.017.299a.68.68 0 0 0 .135.262.63.63 0 0 0 .226.175.61.61 0 0 0 .275.055c.205.001.404-.079.559-.224a.92.92 0 0 0 .278-.567zm16.184-1.578h1.222a.62.62 0 0 0 .418-.176c.115-.111.19-.262.21-.427a.56.56 0 0 0-.014-.227c-.02-.074-.054-.143-.101-.201a.49.49 0 0 0-.171-.136.47.47 0 0 0-.208-.047h-1.222c-.155.007-.304.071-.42.183s-.193.263-.216.428c-.01.077-.004.154.017.228s.057.141.104.198.107.103.173.133a.46.46 0 0 0 .208.044z"/><path d="M143.691 105.088l.192-1.707c.015-.099.009-.202-.017-.299a.69.69 0 0 0-.135-.262.65.65 0 0 0-.226-.175c-.087-.04-.181-.058-.275-.054-.205-.002-.404.078-.559.224s-.253.347-.278.566l-.192 1.707a.76.76 0 0 0 .02.297c.027.097.073.186.136.261s.138.135.224.175.179.06.273.058c.205.001.404-.079.559-.224s.253-.348.278-.567z"/></g><use xlink:href="#U" class="B"/><use xlink:href="#U" opacity=".6" fill="#fff"/><use xlink:href="#V" class="B"/><use xlink:href="#V" opacity=".6" fill="#fff"/><g class="E"><path d="M118.854 71.73l.168 6.288.393 6.288.837 6.054.636 2.82.401 1.294.193.521c-.004.008-.006.018-.006.027s.002.018.006.027c0 .081.318.368.945.566a8.41 8.41 0 0 0 2.284.323c1.848.014 3.693-.148 5.514-.485 1.9-.314 3.824-.755 5.732-1.258l5.731-1.635 1.289 3.386c-3.733 2.023-7.639 3.653-11.664 4.868-2.118.657-4.294 1.075-6.493 1.249a13.89 13.89 0 0 1-3.74-.225c-.738-.154-1.455-.408-2.134-.754a6.76 6.76 0 0 1-2.158-1.734 6.72 6.72 0 0 1-.837-1.285c-.134-.26-.167-.35-.243-.512l-.201-.44c-.242-.593-.468-1.177-.669-1.797-.389-1.129-.718-2.281-.987-3.449a60.88 60.88 0 0 1-1.18-6.773 97.66 97.66 0 0 1-.711-13.474l6.894.108z"/><path d="M140.208 93.472l2.116-6.944 3.607 6.288s-2.117 4.051-4.92 3.988l-.803-3.333z"/><path d="M147.025 83.147l2.761 5.407-3.857 4.231-3.606-6.252 4.702-3.386z"/></g><use xlink:href="#W" class="B"/><use xlink:href="#W" class="C D"/><use xlink:href="#X" class="B"/><use xlink:href="#X" class="C G"/><defs ><path id="B" d="M47.747 44.599c2.125 6.036-9.129 27.541-9.129 27.541l-14.132-5.165s5.02-14.749 9.338-21.684c4.493-7.123 11.597-7.357 13.923-.692z"/><path id="C" d="M40.287 39.975s-7.43 15.082-.377 53.052h33.645c.234-5.542-3.012-27.271 1.966-53.393-3.719-.773-7.481-1.283-11.262-1.527-4.763-.297-9.537-.297-14.3 0a59.26 59.26 0 0 0-9.672 1.868z"/><path id="D" d="M51.851 93.024s2.831 62.25 6.747 81.58H77.44c-2.652-22.753-3.884-81.553-3.884-81.553l-21.704-.027z"/><path id="E" d="M70.533 38.41l-1.59-.153c-.076-.006-.151.018-.211.068s-.101.121-.115.201c-4.426 25.484-1.941 52.54-1.941 52.54h1.766c-.963-17.468-.161-34.997 2.393-52.279.006-.047.003-.094-.01-.139s-.034-.087-.062-.122-.064-.064-.103-.084-.083-.031-.126-.032z"/><path id="F" d="M43.903 38.754l-1.573.314c-.065.013-.124.048-.169.099s-.074.118-.081.188c-3.348 25.493.326 51.713.326 51.713h1.774c-2.62-27.747-.293-48.659.109-51.947.01-.055.006-.111-.011-.164s-.046-.1-.085-.137-.086-.063-.136-.075-.103-.009-.153.007z"/><path id="G" d="M60.366 59.494c-.121-.009-.235-.069-.316-.166s-.124-.224-.119-.355l.234-4.491c.002-.065.017-.13.042-.189s.062-.112.108-.156.098-.077.156-.098.119-.029.179-.025.12.02.174.048.104.067.144.116.072.105.092.166a.53.53 0 0 1 .025.191l-.234 4.491c-.002.065-.017.13-.042.189s-.062.112-.108.156-.098.077-.156.098-.119.029-.179.025z"/><path id="H" d="M61.8 61.113c-.037 0-.074-.008-.109-.024a.27.27 0 0 1-.09-.069c-.025-.03-.044-.065-.056-.103s-.016-.078-.013-.118l.285-6.396c.004-.082.038-.159.094-.214s.131-.085.207-.083a.27.27 0 0 1 .108.03c.034.017.064.042.089.072a.31.31 0 0 1 .056.103c.012.038.017.078.015.118l-.285 6.396c-.002.04-.012.079-.028.116s-.039.069-.067.095a.28.28 0 0 1-.096.06c-.035.013-.073.019-.11.016z"/><path id="I" d="M55.949 42.793c1.456-.584 7.279-5.632 8.936-3.009s-.577 3.593.151 5.39 1.824 4.833-1.832 4.042c-4.083-.898-5.924-3.961-7.104-4.033l-.151-2.389z"/><path id="J" d="M53.63 42.426c-1.222-.557-6.259-5.282-7.48-2.856s.661 3.315.151 4.967-1.247 4.491 1.715 3.773c3.297-.791 4.652-3.638 5.614-3.701v-2.183z"/><path id="K" d="M56.208 45.319c.603-1.087 1.004-4.078-.285-3.548s-1.431.602-1.799.341-1.331-.737-1.498.359.084 3.279 1.038 3.234 1.933.728 2.544-.386z"/><path id="L" d="M11.174 64.632L9.333 79.256c-.016.114-.072.218-.155.291s-.189.11-.297.104l-5.857-.377c-.107-.011-.207-.063-.281-.148s-.117-.195-.12-.311l-.042-3.297-.109-7.689-.05-3.737 8.752.539z"/><path id="M" d="M87.101 113.387l-31.62-.764a2.8 2.8 0 0 1-1.178-.343c-.366-.2-.689-.481-.949-.823a3.27 3.27 0 0 1-.559-1.164 3.41 3.41 0 0 1-.075-1.308l2.619-29.76a3.14 3.14 0 0 1 .296-1.251c.183-.389.443-.73.763-.998s.69-.458 1.086-.555.806-.1 1.203-.007l30.959 7.617c1.054.261 1.807 1.725 1.674 3.252l-2.008 23.355c-.151 1.509-1.13 2.749-2.209 2.749z"/><path id="N" d="M87.685 113.389l-31.335-.764c-.405-.026-.8-.143-1.161-.341s-.68-.476-.936-.814-.445-.728-.553-1.148a3.38 3.38 0 0 1-.078-1.29l2.602-29.642c.007-.429.102-.852.278-1.237s.428-.725.739-.995.674-.463 1.062-.566.793-.114 1.185-.031l30.674 7.545c1.054.251 1.799 1.716 1.673 3.243l-2 23.256c-.134 1.563-1.113 2.785-2.15 2.785z"/><path id="O" d="M75.522 39.631c6.694 1.275 14.015 28.071 14.015 28.071L74.083 73.37s-5.154-13.303-4.184-21.558c.92-8.156-.728-13.393 5.623-12.18z"/><path id="P" d="M144.516 29.907c-3.397-1.841-4.183-3.593-4.409-4.384a.73.73 0 0 1-.005-.338.7.7 0 0 1 .147-.299c.636-.773 2.636-2.884 4.351-1.069s3.347 2.003.736 5.866c-.089.136-.221.233-.371.274s-.309.024-.449-.05z"/><path id="Q" d="M150.616 63.084c2.778.755 4.719 13.025 4.719 13.025l-7.656 5.587s-7.338-12.378-5.204-15.648c2.226-3.404 4.083-4.051 8.141-2.964z"/><path id="R" d="M150.616 63.086s3.205 1.213-3.221 43.664h-27.369c.46-11.965.468-19.33-4.853-43.871 3.833-.831 7.717-1.362 11.622-1.59a80.73 80.73 0 0 1 12.425 0c5.364.485 11.396 1.797 11.396 1.797z"/><path id="S" d="M135.94 39.526c.356 0 .644-.475.644-1.06s-.288-1.06-.644-1.06-.645.475-.645 1.06.289 1.06.645 1.06z"/><path id="T" d="M119.725 105.304l-1.23 2.632c-.1.198.126.404.444.404h28.699c.243 0 .452-.125.469-.296l.243-2.623c0-.189-.193-.341-.469-.341h-27.712c-.086-.009-.172.008-.25.047s-.145.101-.194.177z"/><path id="U" d="M121.366 61.289l1.364-.144c.104-.008.207.022.292.086a.48.48 0 0 1 .176.265c5.682 20.265 3.515 41.446 3.515 41.446h-1.749c1.322-25.206-3.255-38.365-3.975-41.069a.5.5 0 0 1 .063-.385c.036-.056.083-.102.137-.136a.41.41 0 0 1 .177-.062z"/><path id="V" d="M142.359 61.21l1.197.18c.092.019.177.068.243.14s.11.164.125.264c3.398 15.738.142 41.104.142 41.104h-1.757c2.226-27.532-.05-38.625-.435-41.158a.49.49 0 0 1 .017-.212c.021-.068.056-.131.103-.182s.104-.09.168-.114.13-.031.197-.022z"/><path id="W" d="M115.171 62.9c-2.744.898-6.032 11.031-6.032 11.031l10.634 8.165s3.883-8.462 2.728-12.27c-1.196-3.961-4.2-7.95-7.33-6.926z"/><path id="X" d="M126.009 29.624c3.723-1.5 4.769-3.261 5.02-4.024a.77.77 0 0 0 .04-.353c-.015-.119-.057-.233-.123-.33-.578-.898-2.435-3.324-4.41-1.644s-3.665 1.68-1.397 6.018a.7.7 0 0 0 .375.347c.161.061.338.056.495-.015z"/></defs></svg>