<svg width="128" height="216" viewBox="0 0 128 216" fill="none"
  xmlns="http://www.w3.org/2000/svg">
  <path d="M33.5206 8.42218C29.7961 9.49242 27.341 23.3063 35.0408 27.7716C42.7405 32.2368 59.6526 25.5531 59.6526 25.5531C59.6526 25.5531 57.0911 22.7181 57.9424 15.1838C58.7785 7.80555 59.1205 -1.82663 45.9709 0.299676C37.3971 1.64634 32.9277 6.03362 33.5206 8.42218Z" fill="#263238" />
  <path d="M66.2358 42.4229C66.4107 44.1523 66.6311 46.0447 66.9123 47.852C67.1936 49.6594 67.4824 51.5022 67.87 53.3025C68.5897 56.8767 69.6062 60.3933 70.9104 63.8206L71.4197 65.0681C71.5109 65.2949 71.5717 65.4083 71.6477 65.5784C71.7237 65.7485 71.8225 65.9044 71.9137 66.0745C72.3369 66.8003 72.8117 67.4988 73.3351 68.1654C74.4865 69.6191 75.7196 71.015 77.0292 72.3471C78.3441 73.7221 79.7199 75.0759 81.1413 76.4013C82.5627 77.7267 84.0068 79.0663 85.4434 80.3633L83.4064 82.8086C79.8949 80.6749 76.5544 78.3061 73.4111 75.7209C71.7925 74.3983 70.269 72.9776 68.8506 71.4683C68.0874 70.6561 67.3912 69.7913 66.7679 68.8812C66.6083 68.6261 66.4487 68.3922 66.2967 68.1229C66.1446 67.8535 65.9698 67.5558 65.8786 67.3432L65.2097 65.9257C64.3508 64.078 63.6097 62.1847 62.9902 60.2555C62.3366 58.356 61.8501 56.4282 61.3864 54.5003C60.9228 52.5724 60.5427 50.6375 60.2463 48.6955C59.9499 46.7534 59.6914 44.8327 59.5698 42.7631L66.2358 42.4229Z" fill="#FFB573" />
  <path d="M64.1146 35.371C66.8129 36.0089 68.6752 46.3711 68.6752 46.3711L58.3987 52.9201C58.3987 52.9201 54.1498 40.6371 56.2248 37.8729C58.3987 34.9882 60.1697 34.4354 64.1146 35.371Z" fill="#263238" />
  <path opacity="0.2" d="M63.8714 37.6812L65.9465 48.1284L61.7584 50.7721L63.8714 37.6812Z" fill="black" />
  <path d="M57.8055 53.9808L69.4122 46.2269L69.1765 45.2275L57.0226 52.8468L57.8055 53.9808Z" fill="#4E91F7" />
  <path d="M49.5052 209.761H56.0573L56.4905 195.614H49.9385L49.5052 209.761Z" fill="#FFB573" />
  <path d="M4.19635 191.759L10.2619 194.063L17.9464 181.709L11.8809 179.398L4.19635 191.759Z" fill="#FFB573" />
  <path d="M11.402 193.219L5.07806 189.675C4.97048 189.612 4.84139 189.588 4.7162 189.609C4.59101 189.63 4.47878 189.694 4.40158 189.788L0.707522 194.041C0.61992 194.15 0.557972 194.275 0.525711 194.408C0.493449 194.541 0.4916 194.679 0.520283 194.813C0.548966 194.947 0.607532 195.073 0.692178 195.184C0.776824 195.296 0.885646 195.389 1.01156 195.458C3.23863 196.649 4.37877 197.117 7.16071 198.655C8.87852 199.605 12.8994 202.858 15.2633 204.162C17.6272 205.466 19.1398 203.368 18.3037 202.624C15.5156 200.273 13.4041 197.307 12.1621 193.998C12.0151 193.663 11.7459 193.387 11.402 193.219Z" fill="#263238" />
  <path d="M56.2783 209.055H48.9206C48.7933 209.052 48.6693 209.093 48.5725 209.17C48.4757 209.248 48.4129 209.355 48.3961 209.473L47.56 214.902C47.5439 215.039 47.5591 215.178 47.6046 215.309C47.65 215.44 47.7247 215.561 47.8238 215.664C47.9229 215.766 48.044 215.848 48.1793 215.903C48.3146 215.959 48.461 215.987 48.6089 215.987C51.1704 215.944 52.4094 215.809 55.6474 215.809C57.6388 215.809 61.7281 216.001 64.5101 216.001C67.292 216.001 67.406 213.463 66.2583 213.237C61.1277 212.202 59.1058 210.784 57.3728 209.43C57.0678 209.187 56.6795 209.054 56.2783 209.055Z" fill="#263238" />
  <g opacity="0.2">
    <path d="M56.4901 195.613L56.2621 202.907H49.7101L49.9381 195.613H56.4901Z" fill="black" />
    <path d="M11.8804 179.406L17.946 181.717L13.9783 188.082L7.91272 185.771L11.8804 179.406Z" fill="black" />
  </g>
  <path d="M64.1143 35.3705C64.1143 35.3705 67.2307 36.3911 60.9827 72.2265H34.3795C34.8279 62.1266 34.8431 55.9248 29.6669 35.1791C33.3897 34.4503 37.1648 33.9766 40.9619 33.7616C44.9853 33.4955 49.0239 33.4955 53.0474 33.7616C58.2236 34.2435 64.1143 35.3705 64.1143 35.3705Z" fill="#263238" />
  <path d="M42.1553 21.1177C42.9154 24.7466 43.6755 31.3877 40.9543 33.8047C43.4793 37.9569 47.1718 41.3878 51.6337 43.7274C57.0303 39.7087 53.0398 33.8047 53.0398 33.8047C48.6997 32.8407 48.8137 29.8426 49.5662 27.0217L42.1553 21.1177Z" fill="#FFB573" />
  <path opacity="0.2" d="M45.1728 23.5264L49.5662 27.0206C49.3802 27.6755 49.2556 28.3443 49.1937 29.0193C47.5367 28.7996 44.9296 27.4813 44.58 25.8015C44.4128 25.0077 45.036 23.902 45.1728 23.5264Z" fill="black" />
  <path d="M35.6341 15.2978C37.4355 21.1239 38.0588 23.6258 41.9809 25.9931C47.8792 29.537 55.1609 26.227 55.2673 20.0111C55.3661 14.426 52.4094 5.83569 45.6521 4.77253C44.1624 4.53063 42.6311 4.64787 41.2036 5.11311C39.7762 5.57835 38.5 6.37614 37.4962 7.43072C36.4924 8.4853 35.7944 9.76165 35.4685 11.1385C35.1426 12.5154 35.1996 13.9472 35.6341 15.2978Z" fill="#FFB573" />
  <path d="M39.1526 11.3121C40.7184 13.3959 38.9929 19.1085 36.4238 19.6472C34.364 20.0441 33.2466 16.8759 32.8818 15.6001C32.7918 15.2762 32.7738 14.9385 32.8286 14.6079L33.5051 10.4828C33.5997 9.89903 33.9151 9.36607 34.3944 8.98022L39.221 5.09616C39.5897 4.79878 40.0396 4.6025 40.5207 4.52914L47.3616 3.47308C47.8597 3.39501 48.3714 3.45158 48.8362 3.6361C49.2459 3.79726 49.6056 4.0519 49.8823 4.37659C50.1589 4.70129 50.3435 5.08561 50.4192 5.49424C50.4949 5.90287 50.4592 6.32269 50.3154 6.71509C50.1716 7.10749 49.9243 7.45989 49.5963 7.73987C48.2022 8.95916 46.5589 9.9039 44.7645 10.5177C42.9701 11.1314 41.0615 11.4016 39.1526 11.3121Z" fill="#263238" />
  <path d="M60.9831 72.2397C60.9831 72.2397 66.1517 119.295 65.7185 137.929C65.2396 157.306 57.6387 201.498 57.6387 201.498H48.7988C48.7988 201.498 50.1973 158.433 49.4144 139.403C48.5631 118.657 41.4943 72.2397 41.4943 72.2397H60.9831Z" fill="#4E91F7" />
  <path opacity="0.4" d="M60.9831 72.2397C60.9831 72.2397 66.1517 119.295 65.7185 137.929C65.2396 157.306 57.6387 201.498 57.6387 201.498H48.7988C48.7988 201.498 50.1973 158.433 49.4144 139.403C48.5631 118.657 41.4943 72.2397 41.4943 72.2397H60.9831Z" fill="white" />
  <path d="M48.031 201.797H58.4291L59.1892 198.7L47.5522 198.324L48.031 201.797Z" fill="#263238" />
  <path opacity="0.2" d="M49.5056 83.9507C56.0424 96.2053 50.813 118.574 48.5023 126.888C47.3166 114.392 45.3251 99.1184 43.7669 87.9056C44.755 81.555 46.488 78.3301 49.5056 83.9507Z" fill="black" />
  <path d="M53.9523 72.2378C53.9523 72.2378 47.9247 121.143 43.3794 136.863C37.9751 155.511 16.016 187.328 16.016 187.328L7.73859 184.181C7.73859 184.181 21.9143 147.956 26.0492 138.111C34.8663 117.146 27.3186 85.8958 34.3647 72.1953L53.9523 72.2378Z" fill="#4E91F7" />
  <path opacity="0.4" d="M53.9523 72.2378C53.9523 72.2378 47.9247 121.143 43.3794 136.863C37.9751 155.511 16.016 187.328 16.016 187.328L7.73859 184.181C7.73859 184.181 21.9143 147.956 26.0492 138.111C34.8663 117.146 27.3186 85.8958 34.3647 72.1953L53.9523 72.2378Z" fill="white" />
  <path d="M6.62103 184.225L16.8823 188.13L19.2918 185.536L7.44194 180.433L6.62103 184.225Z" fill="#263238" />
  <path d="M46.1158 14.7733C46.2298 15.2482 46.5946 15.5813 46.9291 15.4821C47.2635 15.3829 47.446 14.9647 47.3319 14.4827C47.2179 14.0008 46.8531 13.6676 46.5186 13.7385C46.1842 13.8094 46.0018 14.2914 46.1158 14.7733Z" fill="#263238" />
  <path d="M51.9459 13.5602C52.0599 14.0422 52.4247 14.3753 52.7591 14.269C53.0936 14.1627 53.276 13.7516 53.162 13.2696C53.048 12.7877 52.6832 12.4545 52.3487 12.5609C52.0143 12.6672 51.8318 13.0782 51.9459 13.5602Z" fill="#263238" />
  <path d="M52.2039 12.6176L53.3592 12.0298C53.3592 12.0298 52.9411 13.0637 52.2039 12.6176Z" fill="#263238" />
  <path d="M50.3497 14.8022C51.0719 15.804 51.939 16.708 52.9264 17.4885C52.7055 17.7191 52.4332 17.902 52.1286 18.0244C51.8241 18.1468 51.4946 18.2058 51.163 18.1973L50.3497 14.8022Z" fill="#ED893E" />
  <path d="M48.7989 20.657C49.0547 20.643 49.3089 20.6098 49.559 20.5577C49.5994 20.5477 49.6342 20.5239 49.6567 20.4911C49.6792 20.4583 49.6877 20.4189 49.6806 20.3805C49.6762 20.3624 49.6679 20.3452 49.6563 20.3301C49.6447 20.3149 49.63 20.302 49.6131 20.2921C49.5961 20.2822 49.5773 20.2756 49.5576 20.2725C49.5379 20.2694 49.5177 20.27 49.4982 20.2742C48.8583 20.4211 48.1903 20.4252 47.5484 20.286C46.9065 20.1468 46.3089 19.8684 45.8042 19.4733C45.7906 19.4596 45.7742 19.4486 45.7559 19.4411C45.7376 19.4336 45.7178 19.4297 45.6977 19.4297C45.6777 19.4297 45.6579 19.4336 45.6396 19.4411C45.6213 19.4486 45.6049 19.4596 45.5913 19.4733C45.563 19.501 45.5472 19.5378 45.5472 19.5761C45.5472 19.6144 45.563 19.6512 45.5913 19.6789C46.0279 20.0347 46.537 20.3048 47.0882 20.4728C47.6393 20.6409 48.2212 20.7035 48.7989 20.657Z" fill="#263238" />
  <path d="M35.2236 21.108C35.5745 21.5887 36.0237 22.0002 36.5454 22.3188C37.0672 22.6375 37.6511 22.8571 38.2639 22.965C39.9058 23.2485 40.5442 21.8451 39.997 20.4772C39.4725 19.244 37.9903 17.6421 36.4017 17.954C36.0562 18.0332 35.7373 18.1917 35.4742 18.4151C35.211 18.6384 35.0118 18.9195 34.8948 19.2329C34.7777 19.5462 34.7465 19.8819 34.8039 20.2094C34.8613 20.5368 35.0056 20.8457 35.2236 21.108Z" fill="#FFB573" />
  <path d="M43.6833 12.6479C43.7462 12.6659 43.8136 12.6654 43.8762 12.6464C43.9388 12.6274 43.9935 12.5907 44.0329 12.5416C44.8766 11.4571 46.7237 11.4713 46.7389 11.4713C46.7798 11.4723 46.8205 11.4657 46.8587 11.4519C46.8969 11.4382 46.9318 11.4176 46.9615 11.3913C46.9911 11.3649 47.0149 11.3334 47.0315 11.2985C47.0481 11.2636 47.0571 11.226 47.0581 11.1878C47.0582 11.1113 47.0266 11.0376 46.97 10.9822C46.9134 10.9267 46.8361 10.8938 46.754 10.8901C46.6628 10.8901 44.5574 10.8901 43.5313 12.2014C43.5065 12.2318 43.4886 12.2666 43.4786 12.3036C43.4686 12.3407 43.4668 12.3792 43.4731 12.417C43.4795 12.4547 43.494 12.4908 43.5158 12.5232C43.5375 12.5556 43.5661 12.5835 43.5997 12.6054C43.623 12.6262 43.6519 12.6409 43.6833 12.6479Z" fill="#263238" />
  <path d="M53.1542 9.57911C53.2078 9.57554 53.2597 9.55937 53.3049 9.53211C53.35 9.50485 53.3871 9.46738 53.4126 9.42318C53.4497 9.35454 53.4562 9.27498 53.4305 9.20192C53.4049 9.12885 53.3492 9.06825 53.2758 9.03336C52.8434 8.8132 52.3602 8.6943 51.8676 8.68689C51.3751 8.67948 50.888 8.78379 50.4482 8.99083C50.412 9.00921 50.3802 9.03425 50.3547 9.06445C50.3292 9.09464 50.3106 9.12936 50.2999 9.16648C50.2892 9.20361 50.2868 9.24236 50.2927 9.2804C50.2986 9.31843 50.3127 9.35496 50.3342 9.38775C50.3755 9.45257 50.4422 9.4999 50.5202 9.51974C50.5982 9.53958 50.6814 9.53037 50.7523 9.49406C51.1035 9.335 51.4905 9.25712 51.8808 9.26699C52.2711 9.27686 52.6531 9.37419 52.9945 9.55076C53.0439 9.57389 53.0992 9.58371 53.1542 9.57911Z" fill="#263238" />
  <path d="M13.9179 195.537H13.9939C14.1425 195.508 14.2803 195.442 14.3936 195.348C14.5069 195.253 14.5918 195.133 14.64 194.999C14.6799 194.92 14.6968 194.832 14.6888 194.745C14.6807 194.658 14.6482 194.574 14.5944 194.502C14.1155 193.865 11.7516 193.943 11.4856 193.957C11.4545 193.957 11.4243 193.966 11.3986 193.983C11.373 193.999 11.353 194.022 11.3412 194.049C11.3248 194.072 11.3161 194.099 11.3161 194.127C11.3161 194.155 11.3248 194.182 11.3412 194.205C11.9872 194.736 13.1046 195.622 13.9179 195.537ZM11.8732 194.219C12.8157 194.219 14.0927 194.318 14.3435 194.651C14.3658 194.684 14.3777 194.722 14.3777 194.761C14.3777 194.8 14.3658 194.838 14.3435 194.871C14.3151 194.962 14.2615 195.043 14.188 195.108C14.1146 195.173 14.0239 195.218 13.9255 195.24C13.4922 195.332 12.7397 194.949 11.8732 194.219Z" fill="#4E91F7" />
  <path d="M11.7291 194.218C12.5348 194.133 14.0093 193.616 14.1994 193.013C14.2386 192.905 14.2375 192.787 14.1961 192.679C14.1548 192.571 14.0756 192.479 13.9713 192.418C13.8779 192.35 13.7695 192.302 13.6539 192.277C13.5383 192.253 13.4183 192.253 13.3025 192.276C12.3675 192.439 11.3946 193.949 11.3566 194.013C11.3416 194.034 11.3336 194.058 11.3336 194.084C11.3336 194.109 11.3416 194.134 11.3566 194.155C11.3673 194.178 11.3853 194.198 11.4084 194.212C11.4314 194.226 11.4584 194.233 11.4858 194.232L11.7291 194.218ZM13.4089 192.553C13.4749 192.544 13.5422 192.549 13.6063 192.566C13.6705 192.583 13.7301 192.612 13.7813 192.652C13.9409 192.765 13.9333 192.85 13.9105 192.921C13.7585 193.325 12.5728 193.821 11.7823 193.921C12.1395 193.439 12.8008 192.659 13.3633 192.56L13.4089 192.553Z" fill="#4E91F7" />
  <path d="M58.7411 210.158C59.3007 210.201 59.8599 210.069 60.3296 209.782C60.4334 209.693 60.513 209.582 60.5619 209.459C60.6108 209.336 60.6276 209.204 60.6109 209.073C60.6032 208.994 60.575 208.918 60.5286 208.851C60.4823 208.785 60.4192 208.729 60.3448 208.691C59.5391 208.279 56.932 209.52 56.6356 209.669C56.6064 209.682 56.5826 209.703 56.5676 209.73C56.5525 209.757 56.5471 209.788 56.552 209.817C56.5572 209.846 56.5715 209.873 56.5932 209.895C56.6148 209.916 56.6428 209.931 56.6736 209.938C57.3543 210.069 58.0463 210.142 58.7411 210.158ZM59.904 208.889C60.0038 208.885 60.103 208.905 60.1928 208.946C60.2248 208.959 60.2519 208.981 60.2707 209.009C60.2896 209.037 60.2995 209.069 60.2992 209.102C60.3124 209.186 60.3033 209.272 60.2729 209.352C60.2424 209.432 60.1915 209.505 60.1244 209.562C59.7216 209.895 58.6422 209.952 57.1905 209.732C58.0396 209.296 58.9625 208.999 59.9192 208.854L59.904 208.889Z" fill="#4E91F7" />
  <path d="M56.7033 209.905C56.7255 209.911 56.7494 209.911 56.7717 209.905C57.5318 209.579 59.0976 208.261 58.976 207.566C58.976 207.403 58.8239 207.205 58.3907 207.162C58.2368 207.144 58.0807 207.157 57.9326 207.2C57.7846 207.243 57.6479 207.314 57.5318 207.41C56.7109 208.048 56.5589 209.692 56.5513 209.763C56.5503 209.788 56.556 209.813 56.568 209.835C56.58 209.857 56.5977 209.877 56.6197 209.891C56.6445 209.905 56.6745 209.91 56.7033 209.905ZM58.269 207.431H58.3983C58.6795 207.431 58.7023 207.566 58.7099 207.601C58.7783 208.02 57.7294 209.054 56.9313 209.501C56.999 208.808 57.2905 208.151 57.7674 207.616C57.9091 207.506 58.0849 207.441 58.269 207.431Z" fill="#4E91F7" />
  <path d="M46.3736 13.828L47.529 13.2402C47.529 13.2402 47.1109 14.2742 46.3736 13.828Z" fill="#263238" />
  <path d="M33.9772 70.7808L33.2931 73.0063C33.2019 73.1764 33.4223 73.3536 33.7263 73.3536H61.0897C61.3329 73.3536 61.5306 73.2402 61.5458 73.1056L61.7814 70.88C61.7814 70.7312 61.5914 70.5965 61.3329 70.5965H34.4104C34.3274 70.5907 34.2442 70.6045 34.1684 70.6368C34.0927 70.669 34.0269 70.7185 33.9772 70.7808Z" fill="#4E91F7" />
  <path opacity="0.2" d="M33.9772 70.7808L33.2931 73.0063C33.2019 73.1764 33.4223 73.3536 33.7263 73.3536H61.0897C61.3329 73.3536 61.5306 73.2402 61.5458 73.1056L61.7814 70.88C61.7814 70.7312 61.5914 70.5965 61.3329 70.5965H34.4104C34.3274 70.5907 34.2442 70.6045 34.1684 70.6368C34.0927 70.669 34.0269 70.7185 33.9772 70.7808Z" fill="black" />
  <path d="M37.6863 73.595H36.9643C36.8198 73.595 36.7058 73.5241 36.721 73.4391L37.0555 70.5544C37.0555 70.4693 37.1923 70.3984 37.3367 70.3984H38.0968C38.2412 70.3984 38.3476 70.4693 38.34 70.5544L37.998 73.4391C37.9524 73.5241 37.8232 73.595 37.6863 73.595Z" fill="#4E91F7" />
  <path opacity="0.4" d="M37.6863 73.595H36.9643C36.8198 73.595 36.7058 73.5241 36.721 73.4391L37.0555 70.5544C37.0555 70.4693 37.1923 70.3984 37.3367 70.3984H38.0968C38.2412 70.3984 38.3476 70.4693 38.34 70.5544L37.998 73.4391C37.9524 73.5241 37.8232 73.595 37.6863 73.595Z" fill="white" />
  <path d="M59.0826 73.595H58.3985C58.2541 73.595 58.1477 73.5241 58.1553 73.4391L58.4973 70.5544C58.4973 70.4693 58.6342 70.3984 58.7786 70.3984H59.4931C59.6375 70.3984 59.7515 70.4693 59.7363 70.5544L59.4019 73.4391C59.3562 73.5241 59.227 73.595 59.0826 73.595Z" fill="#4E91F7" />
  <path opacity="0.4" d="M59.0826 73.595H58.3985C58.2541 73.595 58.1477 73.5241 58.1553 73.4391L58.4973 70.5544C58.4973 70.4693 58.6342 70.3984 58.7786 70.3984H59.4931C59.6375 70.3984 59.7515 70.4693 59.7363 70.5544L59.4019 73.4391C59.3562 73.5241 59.227 73.595 59.0826 73.595Z" fill="white" />
  <path d="M48.4265 73.595H47.7044C47.56 73.595 47.4535 73.5241 47.4611 73.4391L47.8032 70.5544C47.8032 70.4693 47.94 70.3984 48.0844 70.3984H48.8065C48.9433 70.3984 49.0574 70.4693 49.0498 70.5544L48.7077 73.4391C48.7001 73.5241 48.5709 73.595 48.4265 73.595Z" fill="#4E91F7" />
  <path opacity="0.4" d="M48.4265 73.595H47.7044C47.56 73.595 47.4535 73.5241 47.4611 73.4391L47.8032 70.5544C47.8032 70.4693 47.94 70.3984 48.0844 70.3984H48.8065C48.9433 70.3984 49.0574 70.4693 49.0498 70.5544L48.7077 73.4391C48.7001 73.5241 48.5709 73.595 48.4265 73.595Z" fill="white" />
  <path d="M63.3109 48.4164L51.4838 56.2916C49.9089 57.3403 49.5438 59.3809 50.6684 60.8495L71.8486 88.5073C72.9732 89.9759 75.1616 90.3162 76.7365 89.2676L88.5636 81.3923C90.1385 80.3436 90.5035 78.303 89.3789 76.8344L68.1988 49.1766C67.0742 47.7081 64.8858 47.3677 63.3109 48.4164Z" fill="#263238" />
  <path d="M97.5586 26.0833L86.0356 33.7522L86.4765 33.4545C85.4807 31.6897 84.333 31.3282 83.5349 29.45C82.6076 27.1394 81.9007 23.9358 79.6432 20.1651C77.9558 17.33 68.4926 11.0361 68.4926 11.0361C68.4926 11.0361 66.4632 12.3615 66.1135 12.6238C63.9473 14.2823 65.1634 16.8764 67.6337 19.7894C70.4461 23.1915 69.7468 32.3985 68.7587 37.9411C67.7706 43.4836 67.3297 50.4012 67.3297 50.4367L86.5221 75.0381L92.2988 74.1167C96.1672 73.3856 99.8557 71.9892 103.176 69.9987L121.752 57.6307L97.5586 26.0833Z" fill="#263238" />
  <path d="M107.158 22.7194C106.957 22.4561 106.701 22.2324 106.407 22.0613C106.112 21.8902 105.784 21.775 105.441 21.7223C105.099 21.6696 104.749 21.6805 104.411 21.7543C104.073 21.8281 103.754 21.9634 103.472 22.1524L88.7034 31.9831C87.7077 30.2182 87.0008 29.5307 86.2027 27.6808C85.2753 25.3702 84.5761 22.1666 82.3186 18.396C80.0611 14.6253 73.4559 8.87008 69.6326 10.4294C65.8094 11.9887 67.4436 14.6182 70.2559 18.0203C73.0683 21.4224 72.369 30.6293 71.3808 36.1719C70.3927 41.7145 69.9519 48.625 69.9519 48.6675L89.1518 73.2689L94.9209 72.3475C98.7914 71.6157 102.482 70.2193 105.805 68.2296L126.29 54.5857C126.573 54.3988 126.813 54.1616 126.997 53.8877C127.181 53.6138 127.306 53.3087 127.363 52.9899C127.42 52.6711 127.409 52.3449 127.331 52.03C127.252 51.7152 127.108 51.4179 126.906 51.1553L125.804 49.7378C125.46 49.2888 124.964 48.9603 124.397 48.8049C123.829 48.6494 123.222 48.6759 122.672 48.8801L121.562 49.0503C121.445 49.0866 121.318 49.086 121.201 49.0484C121.085 49.0109 120.984 48.9386 120.916 48.8427C120.848 48.7467 120.815 48.6324 120.823 48.5175C120.832 48.4026 120.88 48.2934 120.962 48.2068L122.3 46.7397C123.128 45.882 123.652 44.3015 122.93 43.3588L120.787 40.5237C120.446 40.0813 119.958 39.7565 119.398 39.6C118.838 39.4436 118.239 39.4644 117.693 39.659L115.413 40.3678C115.3 40.4025 115.177 40.4031 115.063 40.3695C114.95 40.3359 114.85 40.2697 114.778 40.1804C114.707 40.0912 114.668 39.9832 114.665 39.8719C114.663 39.7605 114.699 39.6514 114.767 39.5598L116.66 37.1075C116.972 36.6923 117.14 36.1973 117.14 35.6899C117.14 35.1826 116.972 34.6876 116.66 34.2724L114.334 31.2389C114.003 30.8081 113.533 30.488 112.992 30.3259C112.451 30.1638 111.869 30.1683 111.331 30.3387L108.458 31.253C108.344 31.2873 108.221 31.2871 108.107 31.2526C107.993 31.218 107.894 31.1508 107.823 31.0606C107.752 30.9703 107.714 30.8616 107.713 30.7498C107.713 30.638 107.75 30.5289 107.82 30.4379L109.287 28.6164C109.649 28.1994 109.855 27.6827 109.871 27.1459C109.888 26.6092 109.715 26.0823 109.378 25.6467L107.158 22.7194Z" fill="#4E91F7" />
  <path d="M65.524 46.9286L53.6969 54.8038C52.122 55.8525 51.757 57.8931 52.8816 59.3617L74.0617 87.0195C75.1863 88.4881 77.3747 88.8285 78.9496 87.7798L90.7767 79.9045C92.3516 78.8558 92.7167 76.8152 91.592 75.3466L70.4119 47.6888C69.2873 46.2203 67.0989 45.8799 65.524 46.9286Z" fill="#4E91F7" />
  <path opacity="0.6" d="M65.524 46.9286L53.6969 54.8038C52.122 55.8525 51.757 57.8931 52.8816 59.3617L74.0617 87.0195C75.1863 88.4881 77.3747 88.8285 78.9496 87.7798L90.7767 79.9045C92.3516 78.8558 92.7167 76.8152 91.592 75.3466L70.4119 47.6888C69.2873 46.2203 67.0989 45.8799 65.524 46.9286Z" fill="black" />
  <path d="M115.475 62.983L112.018 65.3945L112.473 65.9621L115.93 63.5505L115.475 62.983Z" fill="#4E91F7" />
  <path d="M127.045 54.9443L118.772 60.7129L119.228 61.2805L127.5 55.5119L127.045 54.9443Z" fill="#4E91F7" />
  <path d="M83.4362 82.771L78.5564 85.7762L79.4001 88.6113L84.8956 85.1028L83.4362 82.771Z" fill="#FFB573" />
  <path d="M45.0362 62.5716L48.9203 57.0503L50.8205 63.004C50.8205 63.004 47.8714 65.8391 45.2566 65.0878L45.0362 62.5716Z" fill="#FFB573" />
  <path d="M33.2089 43.2583C32.8136 46.9368 32.3348 50.6154 31.8255 54.2868C31.3162 57.9582 30.7842 61.6296 30.2141 65.294L30.1077 66.0028L30.0697 66.2366C30.0649 66.2601 30.0649 66.2841 30.0697 66.3075C30.0697 66.343 30.0697 66.3075 30.0165 66.2296C29.9686 66.1096 29.8934 66.0008 29.796 65.9106C29.7237 65.8232 29.6261 65.7568 29.5148 65.7192C29.4464 65.7192 29.4692 65.7192 29.5148 65.7192C29.7417 65.7945 29.9808 65.8328 30.2217 65.8326C31.0218 65.8451 31.8213 65.7833 32.6084 65.6484C33.4749 65.5137 34.3794 65.3152 35.2839 65.0955C37.1005 64.6703 38.94 64.1245 40.7718 63.5221C42.6036 62.9196 44.4506 62.2888 46.2521 61.6438L47.7722 64.3868C44.3108 66.4428 40.6517 68.194 36.8421 69.6175C35.8616 69.9648 34.8583 70.2837 33.8017 70.5601C32.6617 70.8652 31.4892 71.053 30.3053 71.1201C29.5404 71.1611 28.7732 71.1038 28.025 70.95C27.5434 70.8461 27.0783 70.6841 26.6417 70.468C26.0864 70.1985 25.5937 69.8293 25.192 69.3817C24.7902 68.9341 24.4873 68.4169 24.3006 67.8597C24.1407 67.4013 24.0512 66.924 24.0345 66.4422C24.0191 66.2345 24.0191 66.0261 24.0345 65.8185L24.0725 65.3578L24.1333 64.649C24.4526 60.9587 24.8149 57.2731 25.2203 53.5922C25.6155 49.9066 26.0336 46.2281 26.5428 42.5566L33.2089 43.2583Z" fill="#FFB573" />
  <path d="M29.6591 35.1941C26.9911 35.9525 23.7911 44.5073 23.7911 44.5073L34.1284 51.4037C34.1284 51.4037 37.9289 44.2593 36.7811 41.0485C35.5954 37.696 32.6994 34.3294 29.6591 35.1941Z" fill="#263238" />
  <path d="M34.2201 52.2506L23.0695 44.7235L23.3051 43.7241L35.193 51.2371L34.2201 52.2506Z" fill="#4E91F7" />
  <path d="M54.1348 55.4077L55.4421 60.4754L50.8208 63.0057L48.9205 57.0592L54.1348 55.4077Z" fill="#FFB573" />
</svg>
