<svg width="106" height="195" viewBox="0 0 106 195" fill="none"
  xmlns="http://www.w3.org/2000/svg">
  <path d="M38.7307 63.9387L38.3858 64.2316C38.2584 64.3434 38.1151 64.4499 37.9771 64.5564C37.7011 64.7747 37.4463 64.993 37.1278 65.2006C36.5546 65.6212 35.9442 66.0046 35.3338 66.388C34.1026 67.1493 32.8122 67.8099 31.4751 68.3633C30.1438 68.9324 28.7725 69.4023 27.3723 69.769C27.022 69.8648 26.6611 69.9287 26.3108 70.0086L25.78 70.1257C25.6685 70.1257 25.78 70.1257 25.78 70.1524C25.8523 70.1694 25.9208 70.2001 25.9817 70.2429C26.0295 70.2908 26.0294 70.2908 26.0082 70.2801C25.9033 70.124 25.8211 69.9537 25.7641 69.7743C25.5757 69.16 25.4599 68.5256 25.4191 67.8841C25.3554 67.1866 25.3341 66.4519 25.3394 65.7118C25.3394 64.2262 25.4562 62.7088 25.573 61.186C25.6897 59.6632 25.8755 58.1351 26.0719 56.6016C26.2683 55.0682 26.4859 53.5347 26.7141 52.0226L24.7184 51.5647C23.8395 54.6036 23.1307 57.6895 22.5954 60.8079C22.3174 62.3938 22.1243 63.9934 22.0168 65.5999C21.9545 66.429 21.935 67.2607 21.9584 68.0918C21.9659 69.0092 22.0817 69.9225 22.3034 70.8126C22.4534 71.3818 22.6974 71.9217 23.0253 72.4099C23.2547 72.7427 23.5403 73.0328 23.8692 73.2672C24.2469 73.5378 24.6805 73.7198 25.1378 73.7996C25.5313 73.8661 25.9331 73.8661 26.3267 73.7996L26.9371 73.6984C27.3458 73.6292 27.7597 73.576 28.1631 73.4855C29.7907 73.1612 31.3885 72.7017 32.9401 72.1117C34.4912 71.5147 35.9912 70.7918 37.4251 69.95C38.1416 69.5187 38.8422 69.0662 39.5216 68.571C39.8613 68.3261 40.1957 68.0385 40.5301 67.8043C40.6946 67.6658 40.8591 67.5327 41.0237 67.3836C41.1882 67.2345 41.3421 67.1121 41.5544 66.9098L38.7307 63.9387Z" fill="#E4897B" />
  <path d="M44.4999 61.5166C38.6615 60.7232 33.9695 65.446 33.9695 65.446L39.309 73.7096C39.309 73.7096 45.0307 70.0357 46.0392 67.5332C47.0795 64.9296 47.4882 61.9053 44.4999 61.5166Z" fill="#4E91F7" />
  <path opacity="0.6" d="M44.4999 61.5166C38.6615 60.7232 33.9695 65.446 33.9695 65.446L39.309 73.7096C39.309 73.7096 45.0307 70.0357 46.0392 67.5332C47.0795 64.9296 47.4882 61.9053 44.4999 61.5166Z" fill="#FAFAFA" />
  <path d="M26.666 52.7411L28.6035 48.8436L23.5234 48.801C23.5234 48.801 23.4226 51.5218 24.7072 53.0606L26.666 52.7411Z" fill="#E4897B" />
  <path d="M27.7011 44.6533L23.9216 45.3295L23.5234 48.8011L28.6035 48.8437L27.7011 44.6533Z" fill="#E4897B" />
  <path d="M65.1467 190.155L60.391 190.613L57.1003 179.41L61.856 178.947L65.1467 190.155Z" fill="#E4897B" />
  <path d="M95.3848 173.585L91.8605 176.908L84.2492 168.516L87.7735 165.194L95.3848 173.585Z" fill="#E4897B" />
  <path d="M90.2305 175.316L92.8844 170.524C92.9295 170.441 93.0027 170.378 93.0904 170.346C93.1782 170.314 93.2747 170.314 93.3621 170.348L97.4437 171.903C97.5447 171.946 97.6356 172.01 97.7103 172.091C97.7851 172.172 97.842 172.268 97.8776 172.372C97.9131 172.477 97.9264 172.587 97.9165 172.697C97.9067 172.807 97.874 172.914 97.8205 173.01C96.8705 174.661 96.3238 175.411 95.1667 177.515C94.4501 178.814 93.0436 181.774 92.0617 183.574C91.0798 185.373 89.2592 184.474 89.5087 183.643C90.6445 179.916 90.4269 177.823 90.1085 176.189C90.0446 175.892 90.0879 175.583 90.2305 175.316Z" fill="#263238" />
  <path d="M59.8335 189.159H65.5977C65.7008 189.16 65.8007 189.195 65.8822 189.258C65.9637 189.322 66.0222 189.41 66.0488 189.51L67.3067 194.084C67.3364 194.192 67.3405 194.306 67.3188 194.416C67.2971 194.526 67.2502 194.63 67.1817 194.719C67.1132 194.807 67.0251 194.879 66.9243 194.928C66.8235 194.977 66.7128 195.001 66.6008 195C64.568 195 63.6073 195 61.0702 195H53.3263C51.2032 195 50.7786 192.87 51.6491 192.668C55.5555 191.805 57.8113 190.607 59.0161 189.473C59.2394 189.269 59.5313 189.156 59.8335 189.159Z" fill="#263238" />
  <path d="M57.1002 179.411L58.7987 185.188H63.6924L61.8612 178.953L57.1002 179.411Z" fill="#CE6F64" />
  <path d="M87.7788 165.199L84.2492 168.516L88.1769 172.84L91.7012 169.523L87.7788 165.199Z" fill="#CE6F64" />
  <path d="M38.7462 58.2094C38.7834 54.3385 42.2758 52.9861 42.2758 52.9861C42.2758 52.9861 37.9076 44.6906 40.1528 39.1851C42.3979 33.6797 49.7968 32.7106 52.1428 35.2823C56.2669 35.1066 57.5779 41.0487 57.5779 41.0487C57.5779 41.0487 61.0279 41.6291 61.9568 44.1475C62.8856 46.666 60.0566 49.5039 60.0566 49.5039C60.0566 49.5039 63.9949 50.0364 65.4439 53.0766C66.8929 56.1169 66.0012 60.1528 61.6489 63.635C55.3221 68.6932 43.693 62.3465 43.693 62.3465C43.693 62.3465 38.7038 62.6606 38.7462 58.2094Z" fill="#263238" />
  <path d="M39.4947 62.0588C39.4947 62.0588 37.3716 62.9906 44.4627 91.0877L64.1011 89.3786C63.0821 81.3919 62.6415 76.4295 65.0459 59.6255C62.244 59.2931 59.4216 59.1668 56.6014 59.2475C53.6111 59.2927 50.6277 59.5507 47.6738 60.0195C44.9152 60.5618 42.1854 61.2424 39.4947 62.0588Z" fill="#4E91F7" />
  <path opacity="0.6" d="M39.4947 62.0588C39.4947 62.0588 37.3716 62.9906 44.4627 91.0877L64.1011 89.3786C63.0821 81.3919 62.6415 76.4295 65.0459 59.6255C62.244 59.2931 59.4216 59.1668 56.6014 59.2475C53.6111 59.2927 50.6277 59.5507 47.6738 60.0195C44.9152 60.5618 42.1854 61.2424 39.4947 62.0588Z" fill="#FAFAFA" />
  <path d="M44.5845 60.6852C45.6036 60.4403 46.7076 60.206 47.7161 60.0197C50.6698 59.549 53.6532 59.2893 56.6436 59.2423C57.668 59.205 58.6924 59.205 59.6531 59.2423L58.9949 60.4989C58.8782 60.7225 56.0757 65.9671 50.7521 68.9435L49.2872 69.7634L47.9231 68.789C44.4837 66.3238 43.9742 63.1185 44.5845 60.6852Z" fill="#FAFAFA" />
  <path d="M54.8869 49.2378C54.5737 52.1716 54.4676 57.5013 56.6384 59.2478C56.6384 59.2478 54.1544 63.9812 49.4518 66.6061C45.2906 63.6351 47.7109 60.0198 47.7109 60.0198C50.8477 58.9549 50.5611 56.6015 49.834 54.4078L54.8869 49.2378Z" fill="#E4897B" />
  <path d="M52.8222 51.3467L49.8177 54.4082C50.0007 54.917 50.1393 55.4408 50.2317 55.9736C51.4367 55.6914 53.1885 54.4295 53.2097 53.1304C53.1856 52.5176 53.0545 51.9139 52.8222 51.3467Z" fill="#CE6F64" />
  <path d="M55.0145 42.5825C55.593 47.3745 55.938 49.4031 53.9901 52.2836C51.0603 56.6071 45.052 56.2663 43.0616 51.7512C41.2676 47.6726 40.6253 40.5059 44.9193 37.7639C45.8607 37.156 46.9413 36.7993 48.0586 36.7276C49.1759 36.6559 50.293 36.8715 51.304 37.3541C52.315 37.8366 53.1865 38.5702 53.8358 39.4851C54.4851 40.4001 54.8908 41.4662 55.0145 42.5825Z" fill="#E4897B" />
  <path d="M51.3095 36.6777C47.6206 37.6361 51.267 48.892 57.1479 45.6281C57.1479 45.6281 56.8826 40.8734 55.2478 38.8554C54.2591 37.6532 52.8507 36.8744 51.3095 36.6777Z" fill="#263238" />
  <path d="M51.7024 37.3003C50.1101 39.8986 38.3005 44.8237 42.2706 39.2331C46.2408 33.6424 51.7024 37.3003 51.7024 37.3003Z" fill="#263238" />
  <path d="M56.5323 46.7297C56.5985 47.6632 56.2953 48.5853 55.6883 49.2961C54.8708 50.2279 53.7932 49.6635 53.4535 48.5347C53.1509 47.523 53.2093 45.8192 54.2975 45.2974C54.5376 45.1912 54.8003 45.1462 55.062 45.1663C55.3237 45.1865 55.5763 45.2712 55.7975 45.4129C56.0187 45.5547 56.2015 45.7491 56.3297 45.9788C56.4579 46.2085 56.5275 46.4665 56.5323 46.7297Z" fill="#E4897B" />
  <path d="M44.4837 91.0884C44.4837 91.0884 37.8332 120.607 42.2704 141.415C45.2427 155.355 55.9696 183.51 55.9696 183.51L64.3557 183.297C64.3557 183.297 56.2403 153.747 54.5577 142.129C51.6863 122.247 58.8782 89.8372 58.8782 89.8372L44.4837 91.0884Z" fill="#263238" />
  <path d="M52.1529 97.0464L56.3464 103.681C55.0825 111.548 54.2813 119.482 53.9471 127.444C48.0495 116.853 50.8417 102.653 52.1529 97.0464Z" fill="#263238" />
  <path d="M55.28 183.946L65.6406 183.68L65.0409 180.491L53.7302 181.029L55.28 183.946Z" fill="#4E91F7" />
  <path opacity="0.6" d="M55.28 183.946L65.6406 183.68L65.0409 180.491L53.7302 181.029L55.28 183.946Z" fill="#FAFAFA" />
  <path d="M48.7832 90.7684C48.7832 90.7684 52.6843 122.076 61.1448 139.168C67.9758 152.953 86.2024 172.653 86.2024 172.653L90.8625 167.834C90.8625 167.834 78.5487 146.478 73.4692 137.304C61.0174 114.819 71.1976 97.6636 64.1383 89.384L48.7832 90.7684Z" fill="#263238" />
  <path d="M85.7352 173.271L91.7542 167.388L89.7531 164.662L83.1981 171.461L85.7352 173.271Z" fill="#4E91F7" />
  <path opacity="0.6" d="M85.7352 173.271L91.7542 167.388L89.7531 164.662L83.1981 171.461L85.7352 173.271Z" fill="#FAFAFA" />
  <path d="M64.3397 88.1972L65.3747 89.8851C65.4597 90.0182 65.3057 90.1726 65.0828 90.1886L44.4624 91.9776C44.282 91.9776 44.1281 91.919 44.1068 91.8072L43.7777 90.0608C43.7777 89.9383 43.8998 89.8212 44.0962 89.8052L64.0053 88.0748C64.0669 88.0645 64.13 88.0703 64.1886 88.0918C64.2472 88.1132 64.2993 88.1496 64.3397 88.1972Z" fill="#4E91F7" />
  <path opacity="0.3" d="M64.3397 88.1972L65.3747 89.8851C65.4597 90.0182 65.3057 90.1726 65.0828 90.1886L44.4624 91.9776C44.282 91.9776 44.1281 91.919 44.1068 91.8072L43.7777 90.0608C43.7777 89.9383 43.8998 89.8212 44.0962 89.8052L64.0053 88.0748C64.0669 88.0645 64.13 88.0703 64.1886 88.0918C64.2472 88.1132 64.2993 88.1496 64.3397 88.1972Z" fill="black" />
  <path d="M61.8559 90.6563L62.3867 90.6083C62.4929 90.6083 62.5672 90.5391 62.5566 90.4699L62.1054 88.2022C62.1054 88.133 61.9939 88.0851 61.8878 88.0957L61.3569 88.1436C61.2508 88.1436 61.1764 88.2128 61.1871 88.282L61.633 90.5498C61.6542 90.6243 61.7497 90.6563 61.8559 90.6563Z" fill="#263238" />
  <path d="M45.9755 92.0405L46.5064 91.9926C46.6125 91.9926 46.6869 91.9234 46.6762 91.8542L46.225 89.5811C46.225 89.5173 46.1135 89.4694 46.0074 89.48L45.4765 89.5279C45.3704 89.5279 45.2961 89.5971 45.3067 89.661L45.7526 91.9341C45.7738 92.0033 45.8641 92.0459 45.9755 92.0405Z" fill="#263238" />
  <path d="M53.9155 91.3484L54.4463 91.3059C54.5525 91.3059 54.6268 91.2313 54.6162 91.1675L54.165 88.8944C54.165 88.8305 54.0535 88.7826 53.9473 88.7932L53.4165 88.8358C53.3103 88.8358 53.236 88.9103 53.2466 88.9742L53.6925 91.2473C53.7138 91.3112 53.8252 91.3591 53.9155 91.3484Z" fill="#263238" />
  <path d="M48.0773 45.2285C48.1463 45.6118 47.9977 45.9631 47.7482 46.011C47.4987 46.0589 47.2174 45.7821 47.1643 45.3935C47.1112 45.0049 47.2386 44.6536 47.4934 44.611C47.7482 44.5684 47.9871 44.8665 48.0773 45.2285Z" fill="#263238" />
  <path d="M43.7407 46.0272C43.8097 46.4105 43.661 46.7618 43.4115 46.8097C43.1621 46.8576 42.8807 46.5808 42.8276 46.1922C42.7745 45.8036 42.9019 45.4523 43.1567 45.4097C43.4115 45.3671 43.6451 45.6386 43.7407 46.0272Z" fill="#263238" />
  <path d="M43.2471 45.3989L42.2756 45.3032C42.2756 45.3032 42.8808 45.9303 43.2471 45.3989Z" fill="#263238" />
  <path d="M44.9936 46.4639C44.808 47.4086 44.4955 48.3237 44.0647 49.1841C44.2874 49.2883 44.5302 49.3423 44.776 49.3423C45.0218 49.3423 45.2646 49.2883 45.4873 49.1841L44.9936 46.4639Z" fill="#DE5753" />
  <path d="M47.1 50.4625C47.618 50.382 48.1091 50.178 48.5322 49.8677C48.9552 49.5574 49.2978 49.1498 49.5312 48.6792C49.54 48.6558 49.5393 48.63 49.5294 48.6071C49.5195 48.5843 49.5011 48.5662 49.4781 48.5567C49.467 48.5515 49.455 48.5486 49.4427 48.5481C49.4304 48.5477 49.4182 48.5498 49.4068 48.5543C49.3954 48.5588 49.385 48.5656 49.3762 48.5742C49.3675 48.5829 49.3606 48.5932 49.356 48.6046C49.1324 49.0433 48.8086 49.4229 48.411 49.7124C48.0135 50.002 47.5533 50.1933 47.0681 50.2708C47.0428 50.2708 47.0185 50.2809 47.0006 50.2989C46.9827 50.3169 46.9726 50.3412 46.9726 50.3667C46.9726 50.3921 46.9827 50.4164 47.0006 50.4344C47.0185 50.4524 47.0428 50.4625 47.0681 50.4625H47.1Z" fill="#263238" />
  <path d="M49.1122 42.204C49.1528 42.2048 49.1925 42.1926 49.2257 42.1692C49.2589 42.1458 49.2838 42.1124 49.2968 42.0738C49.3098 42.0353 49.3102 41.9936 49.298 41.9548C49.2859 41.916 49.2617 41.8821 49.229 41.858C48.9493 41.6321 48.6196 41.4769 48.2676 41.4056C47.9156 41.3343 47.5517 41.3488 47.2065 41.4481C47.1828 41.4564 47.1609 41.4694 47.1422 41.4862C47.1235 41.5031 47.1083 41.5235 47.0974 41.5462C47.0866 41.569 47.0803 41.5936 47.079 41.6188C47.0777 41.644 47.0813 41.6692 47.0897 41.6929C47.098 41.7167 47.111 41.7386 47.1278 41.7574C47.1446 41.7762 47.1649 41.7915 47.1876 41.8023C47.2102 41.8132 47.2348 41.8195 47.26 41.8208C47.2851 41.8221 47.3102 41.8185 47.3339 41.8101C47.6187 41.7316 47.9181 41.7225 48.2072 41.7836C48.4962 41.8447 48.7664 41.9743 48.9954 42.1614C49.0292 42.187 49.0699 42.2018 49.1122 42.204Z" fill="#263238" />
  <path d="M41.2563 44.5574C41.2846 44.5572 41.3125 44.551 41.3382 44.539C41.3638 44.5271 41.3866 44.5097 41.4049 44.4881C41.5862 44.2536 41.82 44.0654 42.0876 43.9386C42.3551 43.8119 42.6486 43.7503 42.9443 43.7589C42.9948 43.7634 43.0451 43.7482 43.0847 43.7165C43.1242 43.6847 43.15 43.6389 43.1567 43.5885C43.1596 43.5636 43.1575 43.5384 43.1505 43.5143C43.1435 43.4902 43.1317 43.4678 43.1158 43.4484C43.0999 43.4291 43.0803 43.4131 43.0582 43.4015C43.036 43.3899 43.0117 43.3829 42.9868 43.3809C42.6275 43.3623 42.269 43.431 41.9419 43.5812C41.6147 43.7313 41.3285 43.9585 41.1077 44.2433C41.0729 44.2799 41.0536 44.3285 41.0536 44.379C41.0536 44.4296 41.0729 44.4782 41.1077 44.5148C41.1501 44.5472 41.2032 44.5624 41.2563 44.5574Z" fill="#263238" />
  <path d="M63.5971 66.6964C64.3954 68.2852 65.2814 69.8281 66.251 71.318C67.2063 72.7875 68.2148 74.2252 69.3029 75.6095C70.4023 76.9988 71.5808 78.3232 72.8325 79.5762C73.48 80.1885 74.1116 80.8115 74.807 81.3865L75.3377 81.8231L75.4651 81.9296L75.635 82.0627C75.7469 82.1544 75.8639 82.2397 75.9853 82.3183C76.4678 82.65 76.9927 82.915 77.5457 83.1063C78.5872 83.4471 79.6877 83.5685 80.7781 83.4631C81.7549 83.3651 82.7169 83.1524 83.6443 82.8295C85.3622 82.2282 87.0003 81.4182 88.522 80.4175C91.4499 78.5123 94.1466 76.2716 96.5579 73.7406L95.146 72.2551C93.8775 73.2774 92.5399 74.2944 91.1706 75.2155C89.8293 76.158 88.4326 77.0186 86.9881 77.7925C85.6128 78.5504 84.1609 79.1591 82.657 79.6082C81.224 80.0075 79.7856 80.0767 78.793 79.6614C78.2322 79.4168 77.7307 79.0536 77.3228 78.5965C76.7336 78.0641 76.187 77.4731 75.6296 76.898C74.5416 75.7107 73.5331 74.4381 72.5406 73.1709C71.548 71.9037 70.651 70.5087 69.7806 69.1243C69.34 68.4322 68.9207 67.7293 68.5067 67.0265C68.0927 66.3237 67.6946 65.5836 67.3496 64.9233L63.5971 66.6964Z" fill="#E4897B" />
  <path d="M93.8027 72.8893L95.6924 68.9705L98.835 72.9744C98.835 72.9744 96.7541 74.7155 94.7316 74.6516L93.8027 72.8893Z" fill="#E4897B" />
  <path d="M97.7571 67.8259L99.5354 71.2389L98.8347 72.9747L95.6922 68.9707L97.7571 67.8259Z" fill="#E4897B" />
  <path d="M65.0885 59.6258C67.4982 60.0517 70.8792 66.9895 70.8792 66.9895L64.2605 72.9902C64.2605 72.9902 59.9718 67.2131 60.2266 64.0611C60.4442 61.3722 62.0206 59.0827 65.0885 59.6258Z" fill="#4E91F7" />
  <path opacity="0.6" d="M65.0885 59.6258C67.4982 60.0517 70.8792 66.9895 70.8792 66.9895L64.2605 72.9902C64.2605 72.9902 59.9718 67.2131 60.2266 64.0611C60.4442 61.3722 62.0206 59.0827 65.0885 59.6258Z" fill="#FAFAFA" />
  <path d="M89.3016 177.888C89.365 177.888 89.4279 177.877 89.4874 177.856C90.066 177.664 90.4429 176.594 90.6181 175.971C90.6233 175.953 90.6231 175.934 90.6174 175.916C90.6117 175.898 90.6009 175.882 90.5862 175.87C90.5701 175.861 90.5518 175.856 90.5332 175.856C90.5145 175.856 90.4962 175.861 90.4801 175.87C90.3049 175.961 88.7655 176.791 88.7177 177.398C88.7105 177.465 88.7221 177.532 88.7512 177.592C88.7803 177.652 88.8257 177.703 88.8823 177.739C89.0018 177.833 89.1493 177.886 89.3016 177.888ZM90.3633 176.142C90.0979 176.999 89.7528 177.563 89.4237 177.675C89.3486 177.697 89.269 177.7 89.1927 177.682C89.1164 177.664 89.046 177.627 88.9884 177.574C88.9594 177.556 88.936 177.531 88.9209 177.501C88.9059 177.471 88.8998 177.437 88.9035 177.403C88.9353 177.031 89.8378 176.44 90.3686 176.142H90.3633Z" fill="#4E91F7" />
  <path d="M89.0628 176.38C89.5876 176.378 90.105 176.256 90.5757 176.023C90.5905 176.016 90.6029 176.005 90.6114 175.991C90.6199 175.976 90.6241 175.96 90.6235 175.944C90.6234 175.926 90.6183 175.908 90.609 175.893C90.5996 175.878 90.5862 175.866 90.5704 175.858C90.5226 175.858 89.3017 175.161 88.6435 175.395C88.5625 175.422 88.4885 175.466 88.427 175.525C88.3654 175.584 88.3178 175.656 88.2878 175.736C88.2458 175.813 88.2314 175.902 88.2469 175.988C88.2623 176.074 88.3067 176.152 88.3727 176.21C88.5781 176.341 88.8204 176.4 89.0628 176.38ZM90.3156 175.944C89.7848 176.167 88.7815 176.306 88.4948 176.061C88.4471 176.023 88.4046 175.954 88.463 175.805C88.4841 175.751 88.5169 175.703 88.5592 175.663C88.6014 175.623 88.652 175.594 88.7072 175.576C89.1584 175.417 89.9705 175.773 90.3156 175.944Z" fill="#4E91F7" />
  <path d="M57.2754 190.096C57.8117 190.084 58.3454 190.016 58.8679 189.894C58.8877 189.89 58.9055 189.879 58.9189 189.864C58.9323 189.848 58.9404 189.829 58.9422 189.809C58.945 189.789 58.9413 189.769 58.9318 189.752C58.9222 189.735 58.9072 189.721 58.8891 189.713C58.6502 189.601 56.5641 188.649 56.0332 188.989C55.9859 189.022 55.9481 189.067 55.9238 189.119C55.8996 189.172 55.8897 189.23 55.8952 189.287C55.9015 189.392 55.9304 189.493 55.9799 189.585C56.0295 189.677 56.0984 189.757 56.1819 189.82C56.5103 190.02 56.8914 190.117 57.2754 190.096ZM58.5175 189.766C57.8964 189.884 56.7498 190.033 56.2774 189.676C56.2149 189.629 56.1635 189.569 56.1268 189.5C56.0901 189.431 56.069 189.355 56.0651 189.277C56.062 189.253 56.0652 189.228 56.0745 189.206C56.0839 189.183 56.0989 189.164 56.1182 189.149C56.4154 188.947 57.6523 189.383 58.5175 189.766Z" fill="#4E91F7" />
  <path d="M58.825 189.893C58.8455 189.902 58.8683 189.902 58.8887 189.893C58.9019 189.882 58.9118 189.867 58.9174 189.85C58.923 189.833 58.9241 189.815 58.9206 189.798C58.9206 189.712 58.4216 187.642 57.2909 187.775C57.0043 187.807 56.93 187.95 56.914 188.062C56.8397 188.595 58.1615 189.659 58.7879 189.909L58.825 189.893ZM57.3918 187.94C58.119 187.94 58.5384 189.143 58.6817 189.627C57.9969 189.265 57.0573 188.403 57.0892 188.067C57.0892 188.041 57.0892 187.966 57.2962 187.945L57.3918 187.94Z" fill="#4E91F7" />
  <path d="M47.6042 44.6107L46.6328 44.5098C46.6328 44.5098 47.238 45.1475 47.6042 44.6107Z" fill="#263238" />
  <path opacity="0.6" d="M87.5345 14.2671L103.091 115.149L15.5569 128.716L4.17345e-05 27.8285L87.5345 14.2671ZM51.5696 71.6487C55.5874 71.0249 59.3305 69.2196 62.3253 66.4613C65.3201 63.703 67.4321 60.1156 68.3941 56.1529C69.3561 52.1903 69.1248 48.0304 67.7295 44.1996C66.3342 40.3688 63.8375 37.0393 60.5555 34.6322C57.2734 32.2251 53.3534 30.8487 49.2914 30.677C45.2294 30.5053 41.2078 31.5461 37.7356 33.6677C34.2633 35.7893 31.4964 38.8964 29.7848 42.5958C28.0732 46.2953 27.4939 50.4209 28.1202 54.4507C28.9592 59.8493 31.9002 64.6931 36.297 67.9178C40.6939 71.1425 46.187 72.4844 51.5696 71.6487Z" fill="#4E91F7" />
  <g style="mix-blend-mode: multiply" opacity="0.3">
    <path d="M18.2002 124.888H18.3329L106 111.262V111.129L90.4007 10.1299H90.2733L2.6062 23.7551V23.8883L18.2002 124.888ZM105.697 111.044L18.4231 124.584L2.90874 23.9522L90.1831 10.4334L105.697 111.044Z" fill="#4E91F7" />
  </g>
  <path d="M48.4169 72.6918C49.5134 72.6906 50.6082 72.6052 51.6917 72.4362C57.1368 71.584 62.0413 68.6494 65.3761 64.2481C68.7109 59.8467 70.2168 54.3208 69.5779 48.8296C68.9389 43.3385 66.2048 38.3091 61.9491 34.7966C57.6934 31.284 52.247 29.5615 46.7527 29.9902C41.2583 30.419 36.143 32.9659 32.48 37.0964C28.8171 41.2269 26.8912 46.62 27.1065 52.1442C27.3218 57.6683 29.6615 62.8942 33.6348 66.7252C37.608 70.5562 42.9059 72.6946 48.4169 72.6918ZM51.4476 70.8602C47.5875 71.4584 43.6374 70.8951 40.0965 69.2414C36.5556 67.5877 33.5829 64.918 31.5545 61.5696C29.526 58.2213 28.5327 54.3448 28.7003 50.4303C28.8679 46.5157 30.1887 42.7389 32.4958 39.5773C34.803 36.4158 37.9928 34.0114 41.6619 32.6683C45.3311 31.3252 49.3149 31.1036 53.1096 32.0316C56.9043 32.9596 60.3395 34.9954 62.9809 37.8818C65.6223 40.7681 67.3512 44.3753 67.9492 48.2473C68.744 53.4402 67.453 58.7373 64.3594 62.9766C61.2658 67.2159 56.6223 70.0511 51.4476 70.8602Z" fill="#FAFAFA" />
  <path d="M68.4783 77.8904L87.7603 74.8994L88.4302 79.2458L69.1483 82.2367L68.4783 77.8904Z" fill="#4E91F7" />
  <path opacity="0.6" d="M68.4783 77.8904L87.7603 74.8994L88.4302 79.2458L69.1483 82.2367L68.4783 77.8904Z" fill="#FAFAFA" />
  <path d="M52.8928 80.3077L65.938 78.2842L66.6079 82.6305L53.5628 84.6541L52.8928 80.3077Z" fill="#4E91F7" />
  <path opacity="0.6" d="M52.8928 80.3077L65.938 78.2842L66.6079 82.6305L53.5628 84.6541L52.8928 80.3077Z" fill="#FAFAFA" />
  <path d="M19.3946 94.5221L89.1211 83.7063L89.7911 88.0526L20.0646 98.8684L19.3946 94.5221Z" fill="#FAFAFA" />
  <path d="M55.3046 98.1745L90.0376 92.8953L90.6952 97.2493L55.9622 102.528L55.3046 98.1745Z" fill="#FAFAFA" />
  <path d="M26.7435 102.845L49.9385 99.2468L50.6084 103.593L27.4135 107.191L26.7435 102.845Z" fill="#FAFAFA" />
  <path d="M36.2249 110.839L91.9673 102.192L92.6372 106.538L36.8949 115.185L36.2249 110.839Z" fill="#FAFAFA" />
  <path d="M101.189 15.9082H100.614C100.616 14.4763 100.44 13.0497 100.091 11.6614L100.666 11.5229C101.022 12.9571 101.197 14.4303 101.189 15.9082ZM98.9345 8.45315C97.6688 5.79606 95.7558 3.50193 93.3723 1.78281L93.7059 1.31543C96.1675 3.08846 98.1454 5.45356 99.458 8.19348L98.9345 8.45315Z" fill="#4E91F7" />
  <path opacity="0.6" d="M101.189 15.9082H100.614C100.616 14.4763 100.44 13.0497 100.091 11.6614L100.666 11.5229C101.022 12.9571 101.197 14.4303 101.189 15.9082ZM98.9345 8.45315C97.6688 5.79606 95.7558 3.50193 93.3723 1.78281L93.7059 1.31543C96.1675 3.08846 98.1454 5.45356 99.458 8.19348L98.9345 8.45315Z" fill="#FAFAFA" />
  <path d="M83.3183 0C80.1818 0 77.1158 0.933018 74.5079 2.68106C71.9 4.42909 69.8674 6.91364 68.6671 9.82052C67.4668 12.7274 67.1528 15.9261 67.7647 19.012C68.3766 22.0979 69.8869 24.9325 72.1048 27.1574C74.3226 29.3822 77.1483 30.8973 80.2245 31.5111C83.3007 32.125 86.4893 31.8099 89.387 30.6059C92.2847 29.4018 94.7615 27.3628 96.504 24.7466C98.2466 22.1305 99.1766 19.0548 99.1766 15.9084C99.1766 11.6892 97.5058 7.64287 94.5318 4.65947C91.5578 1.67606 87.5242 0 83.3183 0ZM83.3183 29.7569C80.588 29.7569 77.9189 28.9447 75.6487 27.423C73.3785 25.9013 71.6091 23.7385 70.5643 21.208C69.5194 18.6775 69.246 15.893 69.7787 13.2067C70.3114 10.5204 71.6261 8.05281 73.5568 6.11607C75.4874 4.17933 77.9472 2.8604 80.6251 2.32605C83.303 1.79171 86.0787 2.06595 88.6012 3.1141C91.1237 4.16226 93.2797 5.93725 94.7966 8.21461C96.3135 10.492 97.1232 13.1694 97.1232 15.9084C97.1232 19.5813 95.6687 23.1037 93.0798 25.7007C90.4909 28.2978 86.9796 29.7569 83.3183 29.7569Z" fill="#4E91F7" />
  <path opacity="0.6" d="M83.3183 0C80.1818 0 77.1158 0.933018 74.5079 2.68106C71.9 4.42909 69.8674 6.91364 68.6671 9.82052C67.4668 12.7274 67.1528 15.9261 67.7647 19.012C68.3766 22.0979 69.8869 24.9325 72.1048 27.1574C74.3226 29.3822 77.1483 30.8973 80.2245 31.5111C83.3007 32.125 86.4893 31.8099 89.387 30.6059C92.2847 29.4018 94.7615 27.3628 96.504 24.7466C98.2466 22.1305 99.1766 19.0548 99.1766 15.9084C99.1766 11.6892 97.5058 7.64287 94.5318 4.65947C91.5578 1.67606 87.5242 0 83.3183 0ZM83.3183 29.7569C80.588 29.7569 77.9189 28.9447 75.6487 27.423C73.3785 25.9013 71.6091 23.7385 70.5643 21.208C69.5194 18.6775 69.246 15.893 69.7787 13.2067C70.3114 10.5204 71.6261 8.05281 73.5568 6.11607C75.4874 4.17933 77.9472 2.8604 80.6251 2.32605C83.303 1.79171 86.0787 2.06595 88.6012 3.1141C91.1237 4.16226 93.2797 5.93725 94.7966 8.21461C96.3135 10.492 97.1232 13.1694 97.1232 15.9084C97.1232 19.5813 95.6687 23.1037 93.0798 25.7007C90.4909 28.2978 86.9796 29.7569 83.3183 29.7569Z" fill="#FAFAFA" />
  <path d="M83.3179 29.7508C90.9389 29.7508 97.117 23.5532 97.117 15.9081C97.117 8.26302 90.9389 2.06543 83.3179 2.06543C75.6969 2.06543 69.5188 8.26302 69.5188 15.9081C69.5188 23.5532 75.6969 29.7508 83.3179 29.7508Z" fill="#4E91F7" />
  <path opacity="0.2" d="M83.3179 29.7508C90.9389 29.7508 97.117 23.5532 97.117 15.9081C97.117 8.26302 90.9389 2.06543 83.3179 2.06543C75.6969 2.06543 69.5188 8.26302 69.5188 15.9081C69.5188 23.5532 75.6969 29.7508 83.3179 29.7508Z" fill="black" />
  <path d="M81.1726 24.6677L73.0737 16.5433L75.1099 14.5064L81.1726 20.5882L91.532 10.196L93.5624 12.2387L81.1726 24.6677Z" fill="#FAFAFA" />
</svg>
