<svg width="358px" height="450px" viewBox="0 0 358 450" fill="none"
  xmlns="http://www.w3.org/2000/svg">
  <path d="M179 450C277.859 450 358 445.317 358 439.54C358 433.763 277.859 429.08 179 429.08C80.141 429.08 0 433.763 0 439.54C0 445.317 80.141 450 179 450Z" fill="#F5F5F5" />
  <path d="M217.238 102.563C215.997 112.299 214.639 122.086 213.199 131.822L208.877 161.431C208.209 165.029 206.78 168.44 204.689 171.434C202.777 174.119 200.471 176.497 197.851 178.486C193.233 181.875 188.1 184.488 182.652 186.221C177.649 187.873 172.514 189.089 167.304 189.856C164.738 190.256 162.188 190.523 159.622 190.739C157.055 190.956 154.572 191.09 151.84 191.09L150.996 181.687C155.449 180.653 160.168 179.453 164.589 177.969C168.969 176.6 173.251 174.929 177.403 172.967C181.18 171.27 184.689 169.023 187.817 166.299C189.039 165.182 190.083 163.883 190.914 162.448C191.519 161.313 191.885 160.064 191.99 158.78L192.47 151.761C192.635 149.26 192.867 146.76 193.082 144.292C193.513 139.324 194.004 134.373 194.556 129.438C195.632 119.535 196.907 109.715 198.447 99.8623L217.238 102.563Z" fill="#E4897B" />
  <path d="M206.527 87.6416C206.527 87.6416 191.792 125.62 205.782 196.357H272.604C273.051 186.021 266.611 135.656 276.512 86.9914C269.125 85.5573 261.653 84.6106 254.144 84.1572C244.687 83.5983 235.206 83.5983 225.749 84.1572C219.261 84.8106 212.834 85.9756 206.527 87.6416Z" fill="#407BFF" />
  <path opacity="0.2" d="M206.527 87.6416C206.527 87.6416 191.792 125.62 205.782 196.357H272.604C273.051 186.021 266.611 135.656 276.512 86.9914C269.125 85.5573 261.653 84.6106 254.144 84.1572C244.687 83.5983 235.206 83.5983 225.749 84.1572C219.261 84.8106 212.834 85.9756 206.527 87.6416Z" fill="black" />
  <path d="M221.361 96.2445C225.567 107.498 215.484 145.226 215.484 145.226L187.735 131.255C187.735 131.255 189.043 112.449 195.401 97.9117C201.758 83.374 216.825 83.9075 221.361 96.2445Z" fill="#407BFF" />
  <path opacity="0.2" d="M221.361 96.2445C225.567 107.498 215.484 145.226 215.484 145.226L187.735 131.255C187.735 131.255 189.043 112.449 195.401 97.9117C201.758 83.374 216.825 83.9075 221.361 96.2445Z" fill="black" />
  <path d="M285.602 427.093H273.101L263.366 397.968H275.866L285.602 427.093Z" fill="#E4897B" />
  <path d="M181.891 397.968L183.596 412.989H196.097L194.375 397.968H181.891Z" fill="#CE6F64" />
  <path d="M275.866 397.968H263.366L268.399 412.989H280.883L275.866 397.968Z" fill="#CE6F64" />
  <path d="M229.492 196.357C229.492 196.357 204.657 266.378 212.455 302.406C220.965 341.834 262.522 410.071 262.522 410.071H285.404C285.404 410.071 254.791 345.052 249.923 305.99C244.641 263.611 272.605 227.867 272.605 196.357H229.492Z" fill="#407BFF" />
  <path opacity="0.7" d="M229.492 196.357C229.492 196.357 204.657 266.378 212.455 302.406C220.965 341.834 262.522 410.071 262.522 410.071H285.404C285.404 410.071 254.791 345.052 249.923 305.99C244.641 263.611 272.605 227.867 272.605 196.357H229.492Z" fill="black" />
  <path d="M197.686 427.093H185.203L181.875 397.968H194.375L197.686 427.093Z" fill="#E4897B" />
  <path d="M205.782 196.357C205.782 196.357 157.089 264.328 158.447 302.672C159.854 342.568 178.911 410.071 178.911 410.071H200.07C200.07 410.071 191.411 344.902 192.338 305.723C193.365 263.011 249.707 229.301 249.707 196.357H205.782Z" fill="#407BFF" />
  <path opacity="0.7" d="M205.782 196.357C205.782 196.357 157.089 264.328 158.447 302.672C159.854 342.568 178.911 410.071 178.911 410.071H200.07C200.07 410.071 191.411 344.902 192.338 305.723C193.365 263.011 249.707 229.301 249.707 196.357H205.782Z" fill="black" />
  <path d="M271.461 425.626H286.693C286.942 425.625 287.184 425.71 287.377 425.869C287.57 426.027 287.703 426.247 287.753 426.493L290.22 437.663C290.28 437.936 290.278 438.218 290.214 438.49C290.15 438.762 290.025 439.016 289.85 439.232C289.675 439.449 289.453 439.622 289.202 439.741C288.951 439.859 288.676 439.918 288.399 439.914C283.432 439.83 279.922 439.53 273.746 439.53C269.955 439.53 262.156 439.93 256.891 439.93C251.626 439.93 250.964 434.712 253.117 434.245C262.736 432.111 266.362 429.244 269.441 426.41C269.995 425.905 270.715 425.626 271.461 425.626Z" fill="#263238" />
  <path d="M185.369 425.626H199.011C199.261 425.627 199.504 425.713 199.699 425.871C199.895 426.028 200.031 426.247 200.087 426.493L202.554 437.663C202.614 437.934 202.612 438.216 202.549 438.486C202.486 438.757 202.363 439.009 202.19 439.226C202.016 439.442 201.797 439.616 201.548 439.735C201.298 439.854 201.026 439.915 200.75 439.914C195.783 439.83 188.713 439.53 182.537 439.53C175.302 439.53 169.06 439.93 160.583 439.93C155.451 439.93 153.961 434.712 156.179 434.245C165.948 432.078 173.928 431.861 182.372 426.61C183.26 426.008 184.298 425.667 185.369 425.626Z" fill="#263238" />
  <path d="M157.636 180.536L144.01 181.453L150.384 196.174C152.943 196.102 155.411 195.207 157.428 193.62C159.445 192.033 160.904 189.837 161.593 187.355L157.636 180.536Z" fill="#E4897B" />
  <path d="M136.643 186.105L144.209 196.408L150.385 196.174L144.01 181.453L136.643 186.105Z" fill="#E4897B" />
  <path opacity="0.2" d="M262.886 110.248C265.072 99.145 269.327 101.062 273.35 106.53C271.623 121.253 270.827 136.07 270.966 150.894C268.151 146.192 259.244 128.854 262.886 110.248Z" fill="black" />
  <path d="M251.33 51.948C249.541 61.1507 247.753 78.0058 254.144 84.1576C254.144 84.1576 251.644 93.4771 234.657 93.4771C215.998 93.4771 225.75 84.1576 225.75 84.1576C235.932 81.7069 235.684 74.1546 233.895 66.9358L251.33 51.948Z" fill="#E4897B" />
  <path d="M244.226 58.0664L233.895 66.9357C234.334 68.5734 234.628 70.2471 234.773 71.9372C238.663 71.3704 244.011 67.0691 244.425 62.9679C244.654 61.3354 244.587 59.6747 244.226 58.0664Z" fill="#CE6F64" />
  <path d="M229.16 16.6206C222.653 18.1711 215.798 37.2101 222.885 42.4617C229.971 47.7133 241.461 13.7365 229.16 16.6206Z" fill="#263238" />
  <path d="M253.978 41.0779C250.352 53.0148 248.828 60.1837 241.262 64.9351C229.904 72.0872 216.427 62.9512 216.427 50.164C216.427 38.6439 222.371 21.072 235.302 19.0881C238.146 18.6478 241.054 18.9458 243.752 19.9539C246.45 20.9621 248.847 22.647 250.718 24.8491C252.588 27.0511 253.869 29.6975 254.439 32.5375C255.01 35.3775 254.851 38.3171 253.978 41.0779Z" fill="#E4897B" />
  <path d="M250.303 52.7477C243.332 53.848 237.835 27.7403 256.147 25.723C278.349 23.1889 261.528 50.9805 250.303 52.7477Z" fill="#263238" />
  <path d="M259.143 31.9252C250.385 32.0919 224.772 26.8069 221.461 12.5027C220.103 6.63427 230.186 -1.03468 240.352 0.115668C226.924 6.05077 237.471 15.5369 251.71 14.2866C267.985 12.8361 270.965 31.7084 259.143 31.9252Z" fill="#263238" />
  <path d="M263.034 26.9399C263.034 26.9399 271.875 26.2897 269.657 34.2254C269.273 32.5378 268.462 30.9792 267.301 29.7022C266.14 28.4252 264.67 27.4734 263.034 26.9399Z" fill="#263238" />
  <path d="M260.667 26.6571C260.667 26.6571 268.267 31.2751 269.807 23.156C268.706 24.476 267.289 25.4907 265.689 26.1035C264.09 26.7163 262.361 26.9069 260.667 26.6571Z" fill="#263238" />
  <path d="M256.229 55.7493C253.988 57.9265 250.983 59.1248 247.868 59.0837C243.746 59.0003 242.901 54.9991 245.004 51.6981C246.925 48.7306 251.395 45.1795 255.054 46.8634C258.713 48.5472 258.928 53.0319 256.229 55.7493Z" fill="#E4897B" />
  <path d="M258.465 410.572H288.383V402.469L254.938 401.952L258.465 410.572Z" fill="#407BFF" />
  <path d="M174.192 410.572H204.093V402.369L170.666 401.952L174.192 410.572Z" fill="#407BFF" />
  <path d="M234.922 40.0611C234.69 41.0447 233.978 41.7283 233.266 41.5615C232.554 41.3948 232.306 40.4779 232.538 39.4942C232.77 38.5106 233.481 37.8271 234.193 37.9938C234.905 38.1605 235.154 39.0775 234.922 40.0611Z" fill="#263238" />
  <path d="M223.845 37.3767C223.613 38.377 222.902 39.0439 222.19 38.8939C221.478 38.7438 221.229 37.8102 221.461 36.8266C221.693 35.843 222.405 35.1594 223.117 35.3095C223.829 35.4595 224.077 36.3931 223.845 37.3767Z" fill="#263238" />
  <path d="M227.256 38.7441C225.364 41.4764 223.107 43.9335 220.55 46.0463C221.105 46.69 221.792 47.204 222.564 47.5524C223.336 47.9008 224.175 48.0753 225.021 48.0636L227.256 38.7441Z" fill="#DE5753" />
  <path d="M229.458 51.7311C228.711 51.7281 227.967 51.6386 227.24 51.4644C227.162 51.4446 227.095 51.3956 227.052 51.3274C227.009 51.2592 226.993 51.177 227.008 51.0976C227.018 51.0592 227.035 51.0231 227.058 50.9914C227.082 50.9597 227.112 50.9331 227.145 50.9129C227.179 50.8928 227.217 50.8795 227.256 50.8741C227.295 50.8686 227.334 50.8709 227.372 50.8809C228.585 51.2038 229.856 51.2331 231.082 50.9665C232.308 50.7 233.453 50.145 234.425 49.3471C234.483 49.2918 234.559 49.2617 234.638 49.2632C234.717 49.2648 234.793 49.298 234.848 49.3555C234.903 49.4129 234.932 49.49 234.931 49.5697C234.929 49.6495 234.896 49.7253 234.839 49.7806C233.338 51.0629 231.427 51.7556 229.458 51.7311Z" fill="#263238" />
  <path d="M239.243 37.2933C239.129 37.2876 239.02 37.2503 238.926 37.1855C238.833 37.1208 238.759 37.0311 238.713 36.9265C238.426 36.2238 237.975 35.601 237.399 35.1106C236.823 34.6202 236.138 34.2767 235.402 34.109C235.325 34.097 235.252 34.0696 235.186 34.0284C235.12 33.9873 235.063 33.9332 235.018 33.8695C234.973 33.8057 234.942 33.7336 234.925 33.6573C234.908 33.5811 234.907 33.5022 234.921 33.4255C234.946 33.2687 235.031 33.128 235.158 33.0343C235.286 32.9406 235.444 32.9014 235.6 32.9253C236.515 33.1367 237.365 33.5667 238.08 34.179C238.795 34.7913 239.353 35.5679 239.706 36.4431C239.739 36.5152 239.758 36.5933 239.761 36.6728C239.764 36.7522 239.751 36.8315 239.723 36.9059C239.696 36.9804 239.654 37.0486 239.6 37.1065C239.545 37.1644 239.48 37.2109 239.408 37.2433C239.356 37.2672 239.3 37.284 239.243 37.2933Z" fill="#263238" />
  <path d="M220.137 32.3918C219.998 32.3962 219.863 32.3487 219.757 32.2584C219.638 32.1578 219.562 32.0143 219.547 31.8586C219.531 31.7028 219.577 31.5472 219.674 31.4248C220.257 30.6698 221.014 30.069 221.879 29.674C222.745 29.279 223.692 29.1018 224.641 29.1575C224.796 29.1783 224.937 29.2599 225.033 29.3848C225.13 29.5096 225.173 29.6675 225.154 29.8243C225.146 29.9012 225.123 29.9756 225.086 30.0433C225.049 30.111 224.999 30.1706 224.939 30.2187C224.878 30.2667 224.809 30.3023 224.736 30.3234C224.662 30.3444 224.585 30.3505 224.508 30.3412C223.765 30.3163 223.025 30.4696 222.352 30.7884C221.678 31.1072 221.09 31.5824 220.634 32.175C220.576 32.2503 220.5 32.3096 220.413 32.3475C220.327 32.3854 220.232 32.4006 220.137 32.3918Z" fill="#263238" />
  <path d="M267.305 427.826C266.435 427.904 265.565 427.68 264.838 427.193C264.615 427 264.442 426.755 264.335 426.478C264.228 426.202 264.19 425.903 264.226 425.609C264.225 425.438 264.27 425.269 264.358 425.122C264.445 424.975 264.572 424.855 264.722 424.776C266.097 424.059 270.136 426.543 270.6 426.843C270.649 426.875 270.687 426.92 270.711 426.973C270.734 427.026 270.742 427.085 270.732 427.143C270.721 427.2 270.693 427.253 270.651 427.295C270.61 427.336 270.558 427.364 270.501 427.376C269.456 427.648 268.384 427.799 267.305 427.826ZM265.451 425.226C265.319 425.215 265.186 425.244 265.07 425.309C265.008 425.339 264.956 425.386 264.921 425.445C264.885 425.505 264.868 425.573 264.871 425.642C264.844 425.844 264.867 426.049 264.94 426.238C265.012 426.428 265.131 426.596 265.285 426.726C266.674 427.376 268.258 427.46 269.706 426.96C268.412 426.111 266.967 425.522 265.451 425.226Z" fill="#407BFF" />
  <path d="M270.502 427.393C270.459 427.41 270.412 427.41 270.369 427.393C269.061 426.693 266.578 423.942 266.843 422.542C266.879 422.321 266.992 422.12 267.162 421.976C267.332 421.833 267.548 421.755 267.77 421.758C267.997 421.73 268.228 421.749 268.447 421.815C268.667 421.881 268.87 421.992 269.045 422.141C270.485 423.325 270.701 426.96 270.8 427.143C270.801 427.197 270.79 427.251 270.767 427.3C270.744 427.35 270.71 427.393 270.667 427.426C270.61 427.433 270.552 427.421 270.502 427.393ZM267.985 422.291H267.853C267.455 422.291 267.439 422.525 267.422 422.592C267.257 423.425 268.846 425.509 270.138 426.493C270.047 425.057 269.534 423.682 268.664 422.542C268.473 422.382 268.233 422.294 267.985 422.291Z" fill="#407BFF" />
  <path d="M180.103 427.827C179.031 427.925 177.957 427.654 177.057 427.06C176.856 426.881 176.701 426.655 176.606 426.402C176.51 426.15 176.478 425.878 176.51 425.609C176.519 425.447 176.568 425.289 176.652 425.149C176.735 425.01 176.852 424.893 176.99 424.809C178.514 423.959 183.53 426.476 184.11 426.826C184.161 426.856 184.203 426.9 184.23 426.954C184.256 427.007 184.266 427.067 184.259 427.126C184.252 427.188 184.226 427.246 184.185 427.291C184.143 427.336 184.087 427.366 184.027 427.377C182.736 427.651 181.422 427.802 180.103 427.827ZM177.835 425.226C177.645 425.213 177.456 425.254 177.288 425.343C177.23 425.373 177.181 425.418 177.146 425.474C177.111 425.529 177.092 425.593 177.09 425.659C177.073 425.835 177.097 426.013 177.16 426.178C177.223 426.343 177.324 426.491 177.454 426.61C178.232 427.293 180.285 427.41 183.034 426.96C181.412 426.087 179.653 425.501 177.835 425.226Z" fill="#407BFF" />
  <path d="M183.961 427.393H183.845C182.338 426.709 179.358 424.059 179.573 422.575C179.573 422.241 179.871 421.825 180.682 421.741C180.978 421.703 181.278 421.727 181.563 421.814C181.848 421.9 182.112 422.046 182.338 422.241C183.994 423.558 184.259 426.943 184.275 427.093C184.284 427.144 184.277 427.196 184.257 427.244C184.236 427.291 184.202 427.331 184.159 427.36C184.098 427.39 184.029 427.402 183.961 427.393ZM180.914 422.291H180.749C180.202 422.291 180.169 422.558 180.169 422.625C180.02 423.492 182.057 425.626 183.596 426.559C183.453 425.124 182.875 423.768 181.941 422.675C181.658 422.423 181.292 422.287 180.914 422.291Z" fill="#407BFF" />
  <path d="M183.199 101.179C186.059 99.161 189.287 97.7323 192.697 96.9751C196.107 96.2179 199.633 96.1472 203.07 96.7669C206.508 97.3867 209.789 98.6847 212.727 100.586C215.664 102.488 218.199 104.956 220.186 107.848C225.969 103.791 233.116 102.213 240.054 103.462C246.992 104.712 253.153 108.685 257.182 114.508C261.211 120.331 262.777 127.527 261.537 134.514C260.296 141.5 256.351 147.704 250.568 151.761L206.891 182.353L176.527 138.423C174.525 135.541 173.109 132.288 172.361 128.852C171.613 125.416 171.547 121.865 172.167 118.403C172.788 114.942 174.081 111.638 175.975 108.682C177.868 105.726 180.323 103.176 183.199 101.179Z" fill="#407BFF" />
  <path opacity="0.3" d="M183.199 101.179C186.059 99.161 189.287 97.7323 192.697 96.9751C196.107 96.2179 199.633 96.1472 203.07 96.7669C206.508 97.3867 209.789 98.6847 212.727 100.586C215.664 102.488 218.199 104.956 220.186 107.848C225.969 103.791 233.116 102.213 240.054 103.462C246.992 104.712 253.153 108.685 257.182 114.508C261.211 120.331 262.777 127.527 261.537 134.514C260.296 141.5 256.351 147.704 250.568 151.761L206.891 182.353L176.527 138.423C174.525 135.541 173.109 132.288 172.361 128.852C171.613 125.416 171.547 121.865 172.167 118.403C172.788 114.942 174.081 111.638 175.975 108.682C177.868 105.726 180.323 103.176 183.199 101.179Z" fill="white" />
  <path d="M125.301 146.409C126.537 140.75 129.953 135.816 134.798 132.69C139.644 129.564 145.523 128.503 151.145 129.738C152.482 124.189 155.922 119.388 160.729 116.361C165.536 113.334 171.328 112.32 176.868 113.538C182.407 114.755 187.253 118.107 190.37 122.876C193.487 127.645 194.627 133.453 193.547 139.057L184.292 181.753L141.89 172.434C139.103 171.823 136.463 170.665 134.121 169.027C131.778 167.388 129.78 165.3 128.239 162.883C126.698 160.467 125.646 157.768 125.142 154.941C124.637 152.114 124.691 149.215 125.301 146.409Z" fill="#407BFF" />
  <path opacity="0.5" d="M125.301 146.409C126.537 140.75 129.953 135.816 134.798 132.69C139.644 129.564 145.523 128.503 151.145 129.738C152.482 124.189 155.922 119.388 160.729 116.361C165.536 113.334 171.328 112.32 176.868 113.538C182.407 114.755 187.253 118.107 190.37 122.876C193.487 127.645 194.627 133.453 193.547 139.057L184.292 181.753L141.89 172.434C139.103 171.823 136.463 170.665 134.121 169.027C131.778 167.388 129.78 165.3 128.239 162.883C126.698 160.467 125.646 157.768 125.142 154.941C124.637 152.114 124.691 149.215 125.301 146.409Z" fill="white" />
  <path d="M151.443 161.897C156.832 153.798 165.193 148.184 174.69 146.29C184.187 144.396 194.042 146.375 202.09 151.794C204.716 147.686 208.13 144.145 212.13 141.38C216.131 138.615 220.638 136.68 225.39 135.688C230.142 134.697 235.042 134.669 239.804 135.605C244.567 136.542 249.096 138.426 253.128 141.145C257.159 143.864 260.612 147.365 263.285 151.443C265.958 155.522 267.797 160.095 268.694 164.897C269.592 169.699 269.53 174.633 268.513 179.411C267.496 184.188 265.543 188.714 262.77 192.723L222.14 253.808L161.46 212.879C157.471 210.2 154.046 206.755 151.382 202.74C148.718 198.725 146.868 194.22 145.937 189.483C145.007 184.746 145.014 179.871 145.959 175.137C146.904 170.404 148.767 165.904 151.443 161.897Z" fill="#407BFF" />
  <path opacity="0.7" d="M151.443 161.897C156.832 153.798 165.193 148.184 174.69 146.29C184.187 144.396 194.042 146.375 202.09 151.794C204.716 147.686 208.13 144.145 212.13 141.38C216.131 138.615 220.638 136.68 225.39 135.688C230.142 134.697 235.042 134.669 239.804 135.605C244.567 136.542 249.096 138.426 253.128 141.145C257.159 143.864 260.612 147.365 263.285 151.443C265.958 155.522 267.797 160.095 268.694 164.897C269.592 169.699 269.53 174.633 268.513 179.411C267.496 184.188 265.543 188.714 262.77 192.723L222.14 253.808L161.46 212.879C157.471 210.2 154.046 206.755 151.382 202.74C148.718 198.725 146.868 194.22 145.937 189.483C145.007 184.746 145.014 179.871 145.959 175.137C146.904 170.404 148.767 165.904 151.443 161.897Z" fill="white" />
  <path d="M281.263 96.7778C282.356 99.1119 283.25 101.179 284.111 103.446C284.972 105.714 285.766 107.814 286.627 110.115C288.283 114.533 289.657 119.018 290.899 123.602C292.186 128.208 293.242 132.877 294.061 137.59L294.657 141.174L295.088 144.826C295.253 146.043 295.32 147.293 295.402 148.527L295.535 150.394V150.861V151.628C295.535 152.228 295.535 152.745 295.535 153.295C295.21 156.573 294.265 159.759 292.753 162.681C291.586 165.032 290.258 167.3 288.78 169.466C286.048 173.431 283.055 177.207 279.823 180.77C273.59 187.664 266.837 194.063 259.624 199.909L253.001 193.24C258.415 186.288 263.796 179.102 268.68 171.967C271.071 168.495 273.282 164.9 275.303 161.197C276.214 159.531 277.011 157.805 277.687 156.029C278.177 154.895 278.458 153.68 278.515 152.444C278.515 152.361 278.515 152.444 278.515 152.444C278.515 152.528 278.515 152.544 278.515 152.444V152.061L278.283 150.561C278.134 149.544 278.001 148.56 277.77 147.526L277.174 144.492L276.462 141.424C275.468 137.34 274.309 133.239 273.001 129.154C271.693 125.07 270.269 120.985 268.763 116.917C268.034 114.883 267.256 112.866 266.461 110.849L264.094 104.98L281.263 96.7778Z" fill="#E4897B" />
  <path d="M279.111 87.825C290.253 92.143 298.25 133.189 298.25 133.189L271.759 143.708C271.759 143.708 262.869 123.086 259.888 107.831C256.693 91.7762 266.495 82.9236 279.111 87.825Z" fill="#407BFF" />
  <path opacity="0.2" d="M279.111 87.825C290.253 92.143 298.25 133.189 298.25 133.189L271.759 143.708C271.759 143.708 262.869 123.086 259.888 107.831C256.693 91.7762 266.495 82.9236 279.111 87.825Z" fill="black" />
  <path d="M255.898 191.373L243.646 194.707L253.796 207.094C253.796 207.094 263.614 201.976 261.494 196.424L255.898 191.373Z" fill="#E4897B" />
  <path d="M234.773 204.96L243.647 214.663L253.796 207.044L243.647 194.657L234.773 204.96Z" fill="#E4897B" />
</svg>
