<svg width="101" height="166" viewBox="0 0 101 166" fill="none" xmlns="http://www.w3.org/2000/svg">
<path d="M59.9676 76.0802C39.6747 74.8959 24.1841 57.4851 25.3684 37.1922C26.5527 16.8993 43.9634 1.40864 64.2564 2.59294C84.5493 3.77724 100.04 21.188 98.8556 41.4809C97.6713 61.7739 80.2606 77.2645 59.9676 76.0802Z" fill="#407BFF"/>
<path opacity="0.3" d="M59.9676 76.0802C39.6747 74.8959 24.1841 57.4851 25.3684 37.1922C26.5527 16.8993 43.9634 1.40864 64.2564 2.59294C84.5493 3.77724 100.04 21.188 98.8556 41.4809C97.6713 61.7739 80.2606 77.2645 59.9676 76.0802Z" fill="#FAFAFA"/>
<path d="M86.9744 10.3881L87.3199 9.98952C86.5174 9.29336 85.6724 8.62909 84.8169 8.00732L84.5033 8.43778C85.3483 9.05954 86.1826 9.7185 86.9744 10.3881Z" fill="#407BFF"/>
<path opacity="0.3" d="M86.9744 10.3881L87.3199 9.98952C86.5174 9.29336 85.6724 8.62909 84.8169 8.00732L84.5033 8.43778C85.3483 9.05954 86.1826 9.7185 86.9744 10.3881Z" fill="#FAFAFA"/>
<path d="M94.9191 19.8949L95.3761 19.6239C93.8058 16.9742 91.9274 14.5197 89.7802 12.3115L89.3976 12.6782C91.5159 14.8579 93.3692 17.2803 94.9191 19.8949Z" fill="#407BFF"/>
<path opacity="0.3" d="M94.9191 19.8949L95.3761 19.6239C93.8058 16.9742 91.9274 14.5197 89.7802 12.3115L89.3976 12.6782C91.5159 14.8579 93.3692 17.2803 94.9191 19.8949Z" fill="#FAFAFA"/>
<path d="M62.1411 78.0219V77.4905C58.943 77.4852 55.7581 77.08 52.6606 76.2842L52.5277 76.8156C55.6694 77.6165 58.8989 78.0218 62.1411 78.0219Z" fill="#407BFF"/>
<path opacity="0.3" d="M62.1411 78.0219V77.4905C58.943 77.4852 55.7581 77.08 52.6606 76.2842L52.5277 76.8156C55.6694 77.6165 58.8989 78.0218 62.1411 78.0219Z" fill="#FAFAFA"/>
<path d="M62.0668 73.4462C70.4945 73.4528 78.6253 70.3339 84.8867 64.6929C91.1481 59.0518 95.0953 51.2893 95.9649 42.9066C96.8345 34.5238 94.5647 26.1164 89.5946 19.3102C84.6244 12.504 77.307 7.78265 69.0573 6.05914C60.8077 4.33563 52.2121 5.73244 44.9327 9.97944C37.6533 14.2264 32.2073 21.0219 29.648 29.0516C27.0887 37.0814 27.5979 45.7749 31.0771 53.451C34.5563 61.127 40.7583 67.2403 48.4837 70.6084L48.59 70.364L48.4837 70.6084C52.7673 72.4808 57.3919 73.447 62.0668 73.4462ZM62.1518 5.76456C70.5485 5.7506 78.6481 8.87048 84.8657 14.5137C91.0833 20.1568 94.9713 27.9171 95.7688 36.2758C96.5663 44.6345 94.2159 52.99 89.1776 59.707C84.1393 66.4241 76.7757 71.0193 68.5279 72.5934C60.2801 74.1674 51.7417 72.6071 44.5838 68.2176C37.4258 63.8281 32.1635 56.9255 29.8266 48.8606C27.4897 40.7957 28.2465 32.149 31.9488 24.6127C35.6511 17.0763 42.0325 11.1928 49.8441 8.11344C53.7618 6.56094 57.9378 5.76396 62.1518 5.76456Z" fill="#FAFAFA"/>
<path d="M56.5718 72.7499C58.2059 72.7378 59.825 72.4374 61.3546 71.8624C68.6882 69.1735 75.7029 60.5857 79.6992 49.4525C85.97 31.9156 83.2119 13.114 73.5613 7.52875C70.3728 5.68473 66.6847 5.44027 62.901 6.82728C55.5728 9.51626 48.5527 18.104 44.5617 29.2373C38.291 46.7741 41.0437 65.5758 50.6996 71.161L50.8325 70.9325L50.6996 71.161C52.4809 72.2033 54.508 72.7518 56.5718 72.7499ZM67.6519 6.47123C69.6289 6.46869 71.571 6.99136 73.2797 7.98578C82.723 13.4488 85.3695 31.9741 79.1784 49.2771C75.2512 60.2615 68.3428 68.7271 61.1527 71.3629C57.5231 72.6915 53.9944 72.463 50.9494 70.704C41.5007 65.241 38.8437 46.7157 45.0453 29.4126C48.9725 18.4282 55.881 9.96265 63.0711 7.32681C64.5359 6.77471 66.0866 6.48508 67.6519 6.47123Z" fill="#FAFAFA"/>
<path d="M94.8977 47.9911C94.9682 48.0003 95.0394 47.981 95.0957 47.9377C95.152 47.8943 95.1888 47.8304 95.198 47.7599C95.2071 47.6895 95.1879 47.6182 95.1446 47.5619C95.1012 47.5056 95.0373 47.4688 94.9668 47.4597L29.3896 30.704C29.3561 30.6945 29.321 30.692 29.2864 30.6966C29.2519 30.7011 29.2187 30.7128 29.1888 30.7307C29.1589 30.7486 29.133 30.7725 29.1127 30.8008C29.0924 30.8291 29.0781 30.8613 29.0707 30.8953C29.062 30.9292 29.0599 30.9644 29.0648 30.999C29.0697 31.0337 29.0813 31.067 29.0991 31.0971C29.1169 31.1272 29.1404 31.1535 29.1684 31.1745C29.1963 31.1955 29.2282 31.2108 29.2621 31.2195L94.834 47.9805L94.8977 47.9911Z" fill="#FAFAFA"/>
<path d="M53.7234 72.399C53.7825 72.3993 53.84 72.3795 53.8864 72.3428C53.9327 72.3061 53.9652 72.2547 53.9785 72.1971L70.7289 6.62517C70.7452 6.55688 70.7343 6.48492 70.6987 6.42446C70.663 6.36399 70.6052 6.31973 70.5375 6.301C70.5037 6.29222 70.4684 6.2902 70.4338 6.29507C70.3992 6.29993 70.3659 6.31158 70.3357 6.32936C70.3056 6.34713 70.2793 6.37068 70.2583 6.39864C70.2373 6.4266 70.222 6.45844 70.2134 6.49231L53.4577 72.0642C53.4489 72.0981 53.4469 72.1333 53.4518 72.1679C53.4566 72.2026 53.4683 72.2359 53.4861 72.266C53.5038 72.2961 53.5274 72.3224 53.5553 72.3434C53.5833 72.3644 53.6151 72.3797 53.649 72.3884L53.7234 72.399Z" fill="#FAFAFA"/>
<path d="M85.8053 63.7692C85.8651 63.7698 85.9233 63.7502 85.9705 63.7135C86.0178 63.6769 86.0513 63.6254 86.0657 63.5673C86.0744 63.5338 86.0763 63.4989 86.0714 63.4646C86.0665 63.4304 86.0548 63.3974 86.037 63.3677C86.0191 63.338 85.9956 63.3122 85.9677 63.2917C85.9397 63.2712 85.908 63.2565 85.8743 63.2485L29.8149 48.9001C29.781 48.8913 29.7458 48.8893 29.7111 48.8942C29.6765 48.8991 29.6432 48.9107 29.613 48.9285C29.5829 48.9463 29.5566 48.9698 29.5356 48.9978C29.5146 49.0257 29.4994 49.0576 29.4907 49.0914C29.4744 49.1597 29.4852 49.2317 29.5209 49.2921C29.5566 49.3526 29.6143 49.3969 29.682 49.4156L85.7415 63.7639C85.762 63.7709 85.7839 63.7727 85.8053 63.7692Z" fill="#FAFAFA"/>
<path d="M94.4728 29.7797C94.5433 29.7888 94.6145 29.7696 94.6708 29.7263C94.7272 29.6829 94.7639 29.619 94.7731 29.5485C94.7823 29.478 94.763 29.4068 94.7197 29.3505C94.6763 29.2942 94.6124 29.2574 94.5419 29.2483L38.4824 14.9265C38.4486 14.9177 38.4133 14.9157 38.3787 14.9206C38.3441 14.9254 38.3108 14.9371 38.2806 14.9549C38.2505 14.9726 38.2242 14.9962 38.2032 15.0241C38.1822 15.0521 38.1669 15.0839 38.1583 15.1178C38.1421 15.1854 38.1531 15.2567 38.1888 15.3163C38.2246 15.3759 38.2823 15.4191 38.3496 15.4367L94.4091 29.785L94.4728 29.7797Z" fill="#FAFAFA"/>
<path d="M13.8723 160.817L10.0248 159.749L12.1133 150.73L15.9608 151.799L13.8723 160.817Z" fill="#E4897B"/>
<path d="M54.1858 152.309V152.314L55.1105 157.081L55.9289 161.317L59.8773 160.695L59.1493 157.081L58.1821 152.314V152.309H54.1858Z" fill="#E4897B"/>
<path d="M55.5781 160.902L60.0101 160.206C60.0885 160.194 60.1686 160.208 60.238 160.246C60.3073 160.285 60.3617 160.346 60.3927 160.418L61.7266 163.804C61.7577 163.886 61.7699 163.975 61.7623 164.063C61.7547 164.151 61.7274 164.236 61.6825 164.312C61.6377 164.388 61.5763 164.453 61.503 164.502C61.4297 164.551 61.3463 164.583 61.259 164.595C59.7072 164.813 58.942 164.845 57.0076 165.153C53.9573 165.539 50.8827 165.701 47.8087 165.637C46.1719 165.637 45.9169 163.979 46.6024 163.83C49.6793 163.161 54.1592 162.278 54.9935 161.248C55.1402 161.065 55.3479 160.943 55.5781 160.902Z" fill="#263238"/>
<path d="M10.1471 159.313L14.3984 160.477C14.4756 160.498 14.5431 160.544 14.5896 160.609C14.6361 160.674 14.6587 160.753 14.6535 160.833L14.4675 164.462C14.4629 164.55 14.4386 164.636 14.3963 164.713C14.3541 164.79 14.295 164.856 14.2236 164.907C14.1521 164.958 14.07 164.993 13.9834 165.008C13.8969 165.023 13.808 165.018 13.7236 164.994C12.2143 164.547 10.0461 163.851 8.13832 163.325C5.91167 162.709 3.95074 162.294 1.33615 161.572C-0.258104 161.13 -0.258113 159.414 0.464619 159.446C3.65314 159.621 6.13487 160.232 9.18522 159.35C9.49707 159.254 9.82873 159.241 10.1471 159.313Z" fill="#263238"/>
<path d="M12.1133 150.73L11.0345 155.38L14.8873 156.449L15.9608 151.799L12.1133 150.73Z" fill="#CE6F64"/>
<path d="M54.1858 152.314L55.1105 157.081H59.1493L58.1821 152.314H54.1858Z" fill="#CE6F64"/>
<path d="M25.7654 59.9428H47.1338C47.2188 58.1041 46.6024 52.2638 46.6024 44.7654C46.577 39.486 46.9465 34.212 47.7077 28.9876C47.899 27.7228 48.124 26.458 48.3826 25.1932C46.0207 24.7359 43.6312 24.4342 41.2297 24.2898C38.2049 24.1143 35.1725 24.1143 32.1477 24.2898C30.0743 24.4975 28.0203 24.8671 26.0045 25.3952C26.0045 25.3952 21.3068 37.4903 25.7654 59.9428Z" fill="#407BFF"/>
<path opacity="0.2" d="M25.7654 59.9428H47.1338C47.2188 58.1041 46.6024 52.2638 46.6024 44.7654C46.577 39.486 46.9465 34.212 47.7077 28.9876C47.899 27.7228 48.124 26.458 48.3826 25.1932C46.0207 24.7359 43.6312 24.4342 41.2297 24.2898C38.2049 24.1143 35.1725 24.1143 32.1477 24.2898C30.0743 24.4975 28.0203 24.8671 26.0045 25.3952C26.0045 25.3952 21.3068 37.4903 25.7654 59.9428Z" fill="black"/>
<path d="M44.2801 35.4924C44.8759 38.6259 45.6531 41.7222 46.6077 44.7657C46.5806 39.4863 46.9483 34.2123 47.7078 28.9878C45.2685 29.4395 43.6265 31.7459 44.2801 35.4924Z" fill="#407BFF"/>
<path opacity="0.4" d="M44.2801 35.4924C44.8759 38.6259 45.6531 41.7222 46.6077 44.7657C46.5806 39.4863 46.9483 34.2123 47.7078 28.9878C45.2685 29.4395 43.6265 31.7459 44.2801 35.4924Z" fill="black"/>
<path d="M30.3409 33.547H35.3788C35.4492 33.547 35.5168 33.519 35.5666 33.4692C35.6165 33.4194 35.6445 33.3518 35.6445 33.2813C35.6431 33.2113 35.6147 33.1445 35.5651 33.095C35.5156 33.0454 35.4488 33.017 35.3788 33.0156H30.3409C30.2708 33.017 30.2041 33.0454 30.1545 33.095C30.105 33.1445 30.0765 33.2113 30.0752 33.2813C30.0752 33.3518 30.1032 33.4194 30.153 33.4692C30.2028 33.519 30.2704 33.547 30.3409 33.547Z" fill="#FAFAFA"/>
<path d="M30.3409 35.8058H35.3788C35.4492 35.8058 35.5168 35.7778 35.5666 35.728C35.6165 35.6782 35.6445 35.6106 35.6445 35.5401C35.6445 35.4697 35.6165 35.4021 35.5666 35.3522C35.5168 35.3024 35.4492 35.2744 35.3788 35.2744H30.3409C30.2704 35.2744 30.2028 35.3024 30.153 35.3522C30.1032 35.4021 30.0752 35.4697 30.0752 35.5401C30.0752 35.6106 30.1032 35.6782 30.153 35.728C30.2028 35.7778 30.2704 35.8058 30.3409 35.8058Z" fill="#FAFAFA"/>
<path d="M30.3409 38.0641H35.3788C35.4488 38.0628 35.5156 38.0343 35.5651 37.9848C35.6147 37.9353 35.6431 37.8685 35.6445 37.7984C35.6445 37.728 35.6165 37.6604 35.5666 37.6105C35.5168 37.5607 35.4492 37.5327 35.3788 37.5327H30.3409C30.2704 37.5327 30.2028 37.5607 30.153 37.6105C30.1032 37.6604 30.0752 37.728 30.0752 37.7984C30.0765 37.8685 30.105 37.9353 30.1545 37.9848C30.2041 38.0343 30.2708 38.0628 30.3409 38.0641Z" fill="#FAFAFA"/>
<path d="M17.2946 48.422C17.2946 48.0978 17.3424 47.8056 17.3849 47.5239C17.5231 46.3548 17.7038 45.2601 17.9163 44.16C18.3255 41.9812 18.8038 39.8502 19.3299 37.7298C19.856 35.6095 20.4193 33.521 21.073 31.4219L27.1524 33.1968C26.621 35.2322 26.0311 37.2994 25.4572 39.3453C25.0816 40.6916 24.7096 42.0343 24.3412 43.3735L24.5166 43.432C24.405 44.5586 24.219 45.6374 23.9851 46.7321C23.7629 47.8595 23.4718 48.9722 23.1136 50.0641C22.9889 50.4296 22.8362 50.785 22.6566 51.1269C22.5652 51.2958 22.4585 51.4559 22.3377 51.6052C22.1968 51.7888 22.0324 51.9531 21.8488 52.0941C21.7744 52.1526 21.6522 52.2376 21.5512 52.3014L21.3174 52.4236C21.2213 52.4714 21.1218 52.5123 21.0198 52.5458C20.8917 52.59 20.7602 52.6238 20.6266 52.6468C20.4515 52.681 20.2735 52.697 20.0951 52.6946C19.6777 52.6855 19.2675 52.5839 18.8941 52.397C18.5863 52.2406 18.3105 52.0279 18.0811 51.7699C18.0065 51.6877 17.9373 51.6007 17.8738 51.5096C17.8177 51.433 17.7663 51.3531 17.7197 51.2704C17.6144 51.0795 17.5289 50.8783 17.4646 50.6699C17.4077 50.486 17.3668 50.2975 17.3424 50.1066C17.3105 49.8568 17.3052 49.7134 17.2946 49.5752C17.2574 49.0544 17.2786 48.7515 17.2946 48.422Z" fill="#E4897B"/>
<path d="M30.745 28.1479C32.0948 31.719 25.2713 42.2464 25.2713 42.2464L17.3 37.9101C18.4984 34.6363 20.0449 31.5006 21.9128 28.5571C24.724 24.3429 29.2783 24.2047 30.745 28.1479Z" fill="#407BFF"/>
<path opacity="0.2" d="M30.745 28.1479C32.0948 31.719 25.2713 42.2464 25.2713 42.2464L17.3 37.9101C18.4984 34.6363 20.0449 31.5006 21.9128 28.5571C24.724 24.3429 29.2783 24.2047 30.745 28.1479Z" fill="black"/>
<path d="M26.1216 25.2358C27.1854 24.8115 28.3103 24.5603 29.4536 24.4918C29.4751 24.491 29.4965 24.496 29.5155 24.5062C29.5345 24.5163 29.5505 24.5313 29.5619 24.5497C29.5732 24.568 29.5795 24.5891 29.58 24.6106C29.5806 24.6322 29.5755 24.6535 29.5652 24.6725C28.9115 25.9426 27.4395 28.6634 27.5936 39.5203C27.7477 49.3357 25.5423 53.3054 24.8249 54.331C24.8071 54.3554 24.7825 54.3741 24.7542 54.3847C24.7259 54.3953 24.6951 54.3973 24.6656 54.3905C24.6362 54.3837 24.6094 54.3684 24.5886 54.3465C24.5677 54.3245 24.5538 54.297 24.5486 54.2672L24.336 52.9334C24.3224 52.865 24.3224 52.7945 24.336 52.7261C24.5432 52.0246 25.723 47.6776 25.1491 41.0349C24.1447 29.3755 25.893 25.6237 26.0737 25.2783C26.0863 25.2607 26.1026 25.2462 26.1216 25.2358Z" fill="#263238"/>
<path d="M28.2897 38.7974L28.6617 43.0009L25.2925 43.5004L24.6548 38.893L28.2897 38.7974Z" fill="#E4897B"/>
<path d="M21.6417 41.2104L24.6548 38.8774L25.2925 43.4902C25.2925 43.4902 22.5929 45.4405 20.7276 43.6177L21.6417 41.2104Z" fill="#E4897B"/>
<path d="M40.3317 14.0762C39.7577 16.999 39.1838 22.3557 41.2298 24.306C41.2298 24.306 40.0553 27.2713 34.6242 27.2713C29.6608 27.2713 32.1478 24.306 32.1478 24.306C35.4054 23.5248 35.3363 21.1175 34.7518 18.8377L40.3317 14.0762Z" fill="#E4897B"/>
<path d="M38.057 16.021L34.7569 18.8375C34.8957 19.36 34.9899 19.8934 35.0386 20.4318C36.1014 21.4415 37.9933 18.8853 38.1261 17.5834C38.1963 17.0626 38.1729 16.5335 38.057 16.021Z" fill="#CE6F64"/>
<path d="M31.0424 5.07375C29.0762 5.90808 28.008 11.4189 30.511 12.689C33.014 13.9591 34.7624 3.51138 31.0424 5.07375Z" fill="#263238"/>
<path d="M40.6771 9.68104C40.4326 13.6348 40.4911 15.9624 38.4929 17.9978C35.4904 21.0534 30.6014 19.236 29.6607 15.2875C28.8105 11.7323 29.3472 5.86014 33.2213 4.28182C34.0741 3.93048 35.0027 3.80305 35.9187 3.91164C36.8347 4.02024 37.7077 4.36124 38.4548 4.90226C39.2019 5.44328 39.7983 6.16634 40.1872 7.00274C40.5762 7.83915 40.7448 8.76112 40.6771 9.68104Z" fill="#E4897B"/>
<path d="M29.2195 4.60068C28.9804 3.53783 29.9901 2.3262 30.8404 1.61941C31.677 0.933704 32.6584 0.446852 33.7106 0.195547C34.7628 -0.0557577 35.8583 -0.064962 36.9145 0.16863C38.262 0.361924 39.5503 0.850024 40.6876 1.59815L39.5503 2.12957C40.7939 2.7035 44.4235 2.17208 43.7698 4.78667C49.0309 7.07709 41.3306 13.1618 39.7735 13.401C36.3778 13.9324 39.9383 10.8395 38.445 8.03896C38.2485 7.61502 38.1375 7.1565 38.1183 6.68963C38.0992 6.22276 38.1723 5.7567 38.3334 5.31809C36.8295 5.03112 32.5303 5.04707 30.8935 5.64757C30.1867 5.56255 29.3418 5.15335 29.2195 4.60068Z" fill="#263238"/>
<path d="M43.0525 5.37154C43.0525 5.37154 43.5255 3.89419 45.5821 4.21304C45.0666 4.50001 43.7115 4.98892 43.0525 5.37154Z" fill="#263238"/>
<path d="M42.4627 14.0389C42.2019 14.4577 41.8604 14.8205 41.458 15.1061C41.0557 15.3916 40.6006 15.5943 40.1191 15.7023C38.8278 15.9892 38.2539 14.8148 38.6737 13.6351C39.051 12.5722 40.1829 11.148 41.4477 11.3925C41.7231 11.4511 41.9796 11.5777 42.1937 11.7607C42.4078 11.9436 42.5727 12.1772 42.6736 12.4402C42.7744 12.7031 42.808 12.9871 42.7712 13.2663C42.7343 13.5455 42.6283 13.8111 42.4627 14.0389Z" fill="#E4897B"/>
<path d="M25.7654 59.9429C25.7654 59.9429 17.7941 91.7165 16.1626 103.801C14.4674 116.364 10.3489 154.312 10.3489 154.312L16.6993 155.614C16.6993 155.614 25.6219 119.026 28.0186 106.814C30.6332 93.4967 39.8108 59.9429 39.8108 59.9429H25.7654Z" fill="#407BFF"/>
<path opacity="0.7" d="M25.7654 59.9429C25.7654 59.9429 17.7941 91.7165 16.1626 103.801C14.4674 116.364 10.3489 154.312 10.3489 154.312L16.6993 155.614C16.6993 155.614 25.6219 119.026 28.0186 106.814C30.6332 93.4967 39.8108 59.9429 39.8108 59.9429H25.7654Z" fill="black"/>
<path d="M35.3576 62.2915L37.2176 69.5666C35.4904 76.0659 33.1788 84.8768 31.2285 92.8003C31.0438 82.4798 32.4362 72.1916 35.3576 62.2915Z" fill="#407BFF"/>
<path opacity="0.8" d="M35.3576 62.2915L37.2176 69.5666C35.4904 76.0659 33.1788 84.8768 31.2285 92.8003C31.0438 82.4798 32.4362 72.1916 35.3576 62.2915Z" fill="black"/>
<path d="M33.3434 59.9429C33.3434 59.9429 35.1609 92.5986 37.6479 104.051C40.3741 116.576 53.362 156.172 53.362 156.172H60.6797C60.6797 156.172 51.1885 117.586 49.6315 105.188C47.9416 91.7271 47.1338 59.9588 47.1338 59.9588L33.3434 59.9429Z" fill="#407BFF"/>
<path opacity="0.7" d="M33.3434 59.9429C33.3434 59.9429 35.1609 92.5986 37.6479 104.051C40.3741 116.576 53.362 156.172 53.362 156.172H60.6797C60.6797 156.172 51.1885 117.586 49.6315 105.188C47.9416 91.7271 47.1338 59.9588 47.1338 59.9588L33.3434 59.9429Z" fill="black"/>
<path d="M57.7304 151.836C57.7393 151.835 57.748 151.833 57.7558 151.829C57.7637 151.825 57.7706 151.819 57.7761 151.812C57.7816 151.805 57.7856 151.797 57.7878 151.788C57.79 151.779 57.7904 151.77 57.7888 151.762C57.7251 151.39 48.8982 116.762 47.5006 105.624C45.986 93.5339 45.5077 64.6034 45.4759 64.3323C45.4717 64.3179 45.463 64.3052 45.451 64.2962C45.439 64.2871 45.4244 64.2822 45.4094 64.2822C45.3944 64.2822 45.3798 64.2871 45.3678 64.2962C45.3558 64.3052 45.3471 64.3179 45.343 64.3323C45.3749 64.6034 45.8478 93.5604 47.3677 105.624C48.76 116.783 57.5922 151.395 57.6507 151.767C57.6514 151.777 57.6539 151.786 57.6583 151.795C57.6627 151.804 57.6688 151.812 57.6762 151.818C57.6836 151.824 57.6922 151.829 57.7015 151.832C57.7108 151.835 57.7206 151.837 57.7304 151.836Z" fill="#407BFF"/>
<path opacity="0.3" d="M57.7304 151.836C57.7393 151.835 57.748 151.833 57.7558 151.829C57.7637 151.825 57.7706 151.819 57.7761 151.812C57.7816 151.805 57.7856 151.797 57.7878 151.788C57.79 151.779 57.7904 151.77 57.7888 151.762C57.7251 151.39 48.8982 116.762 47.5006 105.624C45.986 93.5339 45.5077 64.6034 45.4759 64.3323C45.4717 64.3179 45.463 64.3052 45.451 64.2962C45.439 64.2871 45.4244 64.2822 45.4094 64.2822C45.3944 64.2822 45.3798 64.2871 45.3678 64.2962C45.3558 64.3052 45.3471 64.3179 45.343 64.3323C45.3749 64.6034 45.8478 93.5604 47.3677 105.624C48.76 116.783 57.5922 151.395 57.6507 151.767C57.6514 151.777 57.6539 151.786 57.6583 151.795C57.6627 151.804 57.6688 151.812 57.6762 151.818C57.6836 151.824 57.6922 151.829 57.7015 151.832C57.7108 151.835 57.7206 151.837 57.7304 151.836Z" fill="black"/>
<path d="M34.6773 10.7862C34.6773 11.1051 34.5019 11.3655 34.2947 11.3655C34.0874 11.3655 33.9121 11.1051 33.9121 10.7862C33.9121 10.4674 34.0821 10.2017 34.2947 10.2017C34.5073 10.2017 34.6773 10.4621 34.6773 10.7862Z" fill="#263238"/>
<path d="M31.0319 10.7862C31.0319 11.1051 30.8618 11.3655 30.6492 11.3655C30.4367 11.3655 30.2719 11.1051 30.2719 10.7862C30.2719 10.4674 30.442 10.2017 30.6492 10.2017C30.8565 10.2017 31.0319 10.4621 31.0319 10.7862Z" fill="#263238"/>
<path d="M32.1903 10.9458C31.8061 11.9301 31.2874 12.8565 30.6491 13.6986C30.8689 13.8572 31.1209 13.9657 31.3872 14.0162C31.6535 14.0667 31.9277 14.058 32.1903 13.9908V10.9458Z" fill="#DE5753"/>
<path d="M33.131 14.8787C33.1056 14.8787 33.0813 14.8686 33.0633 14.8506C33.0454 14.8327 33.0353 14.8084 33.0353 14.783C33.0367 14.7586 33.0474 14.7356 33.0652 14.7188C33.0829 14.702 33.1065 14.6926 33.131 14.6927C33.5316 14.7023 33.9289 14.6167 34.2901 14.443C34.6513 14.2694 34.9661 14.0125 35.2088 13.6936C35.2158 13.6831 35.2248 13.6741 35.2352 13.6671C35.2457 13.6601 35.2574 13.6552 35.2697 13.6527C35.2821 13.6503 35.2948 13.6503 35.3071 13.6527C35.3195 13.6552 35.3312 13.66 35.3417 13.667C35.3586 13.684 35.368 13.7069 35.368 13.7308C35.368 13.7547 35.3586 13.7776 35.3417 13.7946C35.088 14.1402 34.7545 14.4194 34.3695 14.6081C33.9845 14.7969 33.5596 14.8897 33.131 14.8787Z" fill="#263238"/>
<path d="M35.772 9.61201C35.7431 9.61201 35.7146 9.60529 35.6888 9.59238C35.663 9.57947 35.6405 9.56072 35.6232 9.53762C35.4865 9.34306 35.3051 9.1841 35.0943 9.07407C34.8835 8.96405 34.6494 8.90615 34.4116 8.90522C34.3617 8.90817 34.3126 8.89147 34.2748 8.85869C34.2371 8.82592 34.2137 8.77967 34.2096 8.72986C34.2067 8.70485 34.2089 8.67949 34.2164 8.65542C34.2238 8.63135 34.2361 8.6091 34.2526 8.59008C34.2691 8.57107 34.2894 8.55572 34.3122 8.54501C34.335 8.5343 34.3598 8.52848 34.385 8.52792C34.6867 8.52502 34.9844 8.59618 35.2522 8.73516C35.52 8.87414 35.7495 9.07669 35.9208 9.32505C35.951 9.36385 35.9646 9.41303 35.9586 9.46182C35.9526 9.51062 35.9276 9.55506 35.8889 9.58544C35.8537 9.60625 35.8128 9.61554 35.772 9.61201Z" fill="#263238"/>
<path d="M29.395 9.4951C29.3686 9.49966 29.3417 9.49966 29.3153 9.4951C29.2939 9.48297 29.2751 9.46673 29.2601 9.44731C29.245 9.42789 29.234 9.40568 29.2276 9.38196C29.2211 9.35824 29.2195 9.33349 29.2227 9.30913C29.2259 9.28476 29.2339 9.26127 29.2462 9.24002C29.3868 8.97399 29.5898 8.74604 29.8379 8.57573C30.0859 8.40542 30.3716 8.29784 30.6704 8.26221C30.715 8.26972 30.7555 8.29279 30.7847 8.32733C30.8139 8.36187 30.8299 8.40563 30.8299 8.45086C30.8299 8.49609 30.8139 8.53986 30.7847 8.5744C30.7555 8.60893 30.715 8.632 30.6704 8.63951C30.4351 8.67202 30.211 8.76039 30.0169 8.89722C29.8227 9.03405 29.6641 9.21537 29.5544 9.42602C29.5352 9.4493 29.5107 9.46769 29.483 9.4797C29.4553 9.49171 29.4251 9.49699 29.395 9.4951Z" fill="#263238"/>
<path d="M42.6433 40.833C44.9975 42.22 47.4261 43.6336 49.7537 44.8239C50.2054 45.0525 50.6571 45.265 51.0982 45.4616C50.9016 44.7867 50.6837 44.0959 50.4605 43.4104C50.03 42.135 49.5943 40.8489 49.1266 39.5682L46.2835 31.852L52.161 29.519C53.2239 32.1761 54.1964 34.8332 55.0679 37.5488C55.4983 38.9092 55.9075 40.2856 56.2742 41.6886C56.6669 43.1355 56.9809 44.6026 57.2148 46.0834L57.2999 46.6733V46.8221V47.0559C57.3177 47.2183 57.3266 47.3815 57.3264 47.5448C57.3383 47.9742 57.2918 48.4033 57.1883 48.8202C57.023 49.4658 56.6956 50.0585 56.237 50.542C55.7486 51.0387 55.1295 51.387 54.4514 51.5464C54.011 51.6482 53.5576 51.6822 53.107 51.6474C52.5345 51.5942 51.9717 51.4656 51.433 51.2647C50.6351 50.9723 49.868 50.602 49.1426 50.1594C48.4677 49.7608 47.8353 49.3463 47.2295 48.9212C44.877 47.2282 42.6742 45.3365 40.6452 43.2669L42.6433 40.833Z" fill="#E4897B"/>
<path d="M48.3826 25.2091C52.161 25.7405 56.4921 38.8559 56.4921 38.8559L48.5527 43.3358C48.5527 43.3358 45.0559 37.1076 43.3341 32.4842C41.5007 27.6377 44.3279 24.6192 48.3826 25.2091Z" fill="#407BFF"/>
<path opacity="0.2" d="M48.3826 25.2091C52.161 25.7405 56.4921 38.8559 56.4921 38.8559L48.5527 43.3358C48.5527 43.3358 45.0559 37.1076 43.3341 32.4842C41.5007 27.6377 44.3279 24.6192 48.3826 25.2091Z" fill="black"/>
<path d="M46.4165 24.5661C45.0797 24.3382 43.7282 24.2068 42.3725 24.1729C42.3028 24.1722 42.2344 24.1919 42.1758 24.2297C42.1172 24.2675 42.071 24.3216 42.043 24.3854C41.2511 26.1285 36.8032 37.9048 37.7119 45.1108C38.5196 51.4879 44.7532 54.145 46.6982 54.8464C46.7641 54.8694 46.8346 54.8762 46.9037 54.8663C46.9728 54.8564 47.0385 54.83 47.0953 54.7893C47.1521 54.7487 47.1982 54.695 47.2299 54.6328C47.2616 54.5706 47.2779 54.5017 47.2774 54.4319V53.4328C47.2783 53.3461 47.2528 53.261 47.2045 53.189C47.1561 53.1169 47.0871 53.0611 47.0064 53.029C45.5556 52.4497 38.8863 49.3515 40.8685 41.6566C42.3047 35.9675 44.2431 30.4172 46.661 25.071C46.6848 25.0224 46.6973 24.9691 46.6974 24.9151C46.6975 24.861 46.6854 24.8076 46.6618 24.759C46.6382 24.7103 46.6039 24.6677 46.5614 24.6342C46.5189 24.6008 46.4694 24.5775 46.4165 24.5661Z" fill="#263238"/>
<path d="M54.3824 161.8C54.1171 161.864 53.8379 161.836 53.5906 161.72C53.5108 161.67 53.4444 161.601 53.3972 161.52C53.35 161.438 53.3233 161.347 53.3196 161.253C53.312 161.199 53.3188 161.144 53.3393 161.093C53.3599 161.043 53.3934 160.999 53.4365 160.966C53.8351 160.673 55.2327 161.253 55.3921 161.322C55.4094 161.328 55.4242 161.34 55.4347 161.355C55.4451 161.37 55.4507 161.388 55.4506 161.407C55.451 161.426 55.4457 161.445 55.4352 161.461C55.4248 161.477 55.4098 161.49 55.3921 161.497C55.0676 161.634 54.729 161.736 54.3824 161.8ZM53.665 161.077C53.6231 161.082 53.5829 161.096 53.5481 161.12C53.5481 161.12 53.5003 161.162 53.5109 161.237C53.5109 161.3 53.5269 161.363 53.5576 161.419C53.5882 161.474 53.6325 161.521 53.6862 161.555C54.1592 161.688 54.6649 161.635 55.0998 161.407C54.6473 161.205 54.1601 161.093 53.665 161.077Z" fill="#407BFF"/>
<path d="M55.3709 161.503H55.3177C54.8766 161.343 53.952 160.605 53.9626 160.153C53.9664 160.082 53.9943 160.014 54.0416 159.961C54.0889 159.908 54.1529 159.872 54.223 159.861C54.2922 159.84 54.3651 159.834 54.4367 159.844C54.5082 159.854 54.5768 159.88 54.6375 159.919C55.1689 160.222 55.4346 161.343 55.4453 161.391C55.4484 161.408 55.447 161.425 55.4414 161.44C55.4358 161.456 55.4262 161.47 55.4134 161.481C55.4015 161.492 55.3868 161.5 55.3709 161.503ZM54.308 160.025H54.2655C54.1433 160.062 54.1433 160.116 54.1433 160.142C54.1433 160.408 54.7385 160.982 55.2061 161.205C55.105 160.761 54.8759 160.356 54.5472 160.041C54.4762 160.013 54.3982 160.007 54.324 160.025H54.308Z" fill="#407BFF"/>
<path d="M8.38253 159.541C8.04613 159.48 7.74071 159.305 7.51631 159.047C7.4687 158.975 7.43947 158.892 7.43114 158.806C7.4228 158.72 7.43562 158.633 7.46849 158.553C7.48322 158.503 7.51136 158.459 7.5498 158.424C7.58824 158.389 7.63549 158.366 7.68637 158.356C8.21779 158.218 9.55698 159.419 9.70578 159.573C9.71612 159.59 9.72159 159.609 9.72159 159.629C9.72159 159.649 9.71612 159.668 9.70578 159.685C9.69784 159.703 9.68418 159.718 9.6669 159.728C9.64962 159.737 9.62967 159.741 9.61011 159.738C9.19589 159.709 8.78508 159.643 8.38253 159.541ZM7.90957 158.553C7.85029 158.538 7.78818 158.538 7.72889 158.553C7.70899 158.558 7.69065 158.567 7.67573 158.581C7.66081 158.595 7.64983 158.613 7.64386 158.633C7.62211 158.685 7.61363 158.742 7.6192 158.799C7.62476 158.855 7.64418 158.91 7.67575 158.957C7.85112 159.233 8.47819 159.446 9.36566 159.541C8.94095 159.13 8.44832 158.796 7.90957 158.553Z" fill="#407BFF"/>
<path d="M9.61552 159.717H9.57831C9.17443 159.382 8.4836 158.293 8.67491 157.878C8.71742 157.777 8.82901 157.671 9.0841 157.719C9.17749 157.732 9.26702 157.765 9.34674 157.815C9.42646 157.866 9.49453 157.932 9.54643 158.011C9.92374 158.543 9.74306 159.605 9.73243 159.664C9.73018 159.68 9.7235 159.695 9.71316 159.707C9.70282 159.719 9.68922 159.728 9.67396 159.733C9.66365 159.735 9.65312 159.734 9.64305 159.731C9.63298 159.728 9.6236 159.724 9.61552 159.717ZM9.11066 157.894H9.05221C8.88216 157.862 8.85558 157.926 8.84495 157.947C8.73335 158.197 9.17444 159.01 9.57301 159.441C9.65071 158.99 9.58761 158.526 9.39231 158.112C9.31606 158.012 9.20686 157.942 9.0841 157.915L9.11066 157.894Z" fill="#407BFF"/>
<path d="M43.8816 41.6781L40.8684 39.3452L40.2307 43.9579C40.2307 43.9579 42.9356 45.9082 44.7956 44.0855L43.8816 41.6781Z" fill="#E4897B"/>
<path d="M37.2388 39.2495L36.8615 43.453L40.2307 43.9579L40.8684 39.3452L37.2388 39.2495Z" fill="#E4897B"/>
</svg>
