<svg width="59px" height="149px" viewBox="0 0 59 149" fill="none"
  xmlns="http://www.w3.org/2000/svg">
  <path d="M31.4245 34.6437C31.0048 37.9324 30.5459 41.238 30.0591 44.5267L28.5986 54.5279C28.3725 55.7432 27.8897 56.8954 27.1828 57.9067C26.5367 58.8139 25.7575 59.6171 24.8717 60.2887C23.311 61.4336 21.5761 62.3161 19.7346 62.9017C18.0435 63.4595 16.308 63.8703 14.5472 64.1293C13.6798 64.2645 12.818 64.3546 11.9506 64.4278C11.0833 64.501 10.2439 64.546 9.32055 64.546L9.03516 61.3699C10.5405 61.0208 12.1353 60.6154 13.6294 60.1142C15.11 59.6517 16.5572 59.0873 17.9607 58.4248C19.2372 57.8513 20.4231 57.0924 21.4805 56.1722C21.8935 55.7951 22.2464 55.3564 22.527 54.8714C22.7316 54.488 22.8554 54.0663 22.8907 53.6325L23.053 51.2617C23.1089 50.417 23.1873 49.5723 23.26 48.7389C23.4055 47.0608 23.5715 45.3883 23.7581 43.7214C24.1218 40.3764 24.5527 37.0596 25.0731 33.7314L31.4245 34.6437Z" fill="#E4897B" />
  <path d="M27.804 29.6037C27.804 29.6037 22.8236 42.4318 27.5521 66.3255H50.1373C50.2884 62.8341 48.1116 45.8219 51.458 29.3841C48.9613 28.8997 46.4359 28.5799 43.8979 28.4268C40.7016 28.238 37.4971 28.238 34.3009 28.4268C32.108 28.6474 29.9357 29.041 27.804 29.6037Z" fill="#407BFF" />
  <path opacity="0.2" d="M27.804 29.6037C27.804 29.6037 22.8236 42.4318 27.5521 66.3255H50.1373C50.2884 62.8341 48.1116 45.8219 51.458 29.3841C48.9613 28.8997 46.4359 28.5799 43.8979 28.4268C40.7016 28.238 37.4971 28.238 34.3009 28.4268C32.108 28.6474 29.9357 29.041 27.804 29.6037Z" fill="black" />
  <path d="M32.818 32.5093C34.2393 36.3105 30.8314 49.0541 30.8314 49.0541L21.4526 44.3351C21.4526 44.3351 21.8947 37.983 24.0436 33.0725C26.1924 28.162 31.2847 28.3422 32.818 32.5093Z" fill="#407BFF" />
  <path opacity="0.2" d="M32.818 32.5093C34.2393 36.3105 30.8314 49.0541 30.8314 49.0541L21.4526 44.3351C21.4526 44.3351 21.8947 37.983 24.0436 33.0725C26.1924 28.162 31.2847 28.3422 32.818 32.5093Z" fill="black" />
  <path d="M54.5302 144.263H50.3053L47.0149 134.425H51.2398L54.5302 144.263Z" fill="#E4897B" />
  <path d="M19.4773 134.425L20.0537 139.499H24.2786L23.6966 134.425H19.4773Z" fill="#CE6F64" />
  <path d="M51.2398 134.425H47.0149L48.7161 139.499H52.9354L51.2398 134.425Z" fill="#CE6F64" />
  <path d="M35.5658 66.3257C35.5658 66.3257 27.1719 89.9772 29.8076 102.146C32.6839 115.465 46.7297 138.514 46.7297 138.514H54.4633C54.4633 138.514 44.1164 116.551 42.4712 103.357C40.6861 89.0424 50.1377 76.9689 50.1377 66.3257H35.5658Z" fill="#407BFF" />
  <path opacity="0.7" d="M35.5658 66.3257C35.5658 66.3257 27.1719 89.9772 29.8076 102.146C32.6839 115.465 46.7297 138.514 46.7297 138.514H54.4633C54.4633 138.514 44.1164 116.551 42.4712 103.357C40.6861 89.0424 50.1377 76.9689 50.1377 66.3257H35.5658Z" fill="black" />
  <path d="M24.8158 144.263H20.5965L19.4717 134.425H23.6966L24.8158 144.263Z" fill="#E4897B" />
  <path d="M27.5521 66.3257C27.5521 66.3257 11.0945 89.2846 11.5534 102.237C12.029 115.712 18.4699 138.514 18.4699 138.514H25.6216C25.6216 138.514 22.6949 116.501 23.0082 103.267C23.3552 88.8397 42.3981 77.4532 42.3981 66.3257H27.5521Z" fill="#407BFF" />
  <path opacity="0.7" d="M27.5521 66.3257C27.5521 66.3257 11.0945 89.2846 11.5534 102.237C12.029 115.712 18.4699 138.514 18.4699 138.514H25.6216C25.6216 138.514 22.6949 116.501 23.0082 103.267C23.3552 88.8397 42.3981 77.4532 42.3981 66.3257H27.5521Z" fill="black" />
  <path d="M49.7511 143.767H54.8993C54.9835 143.767 55.0651 143.796 55.1304 143.849C55.1957 143.902 55.2406 143.977 55.2575 144.06L56.0913 147.833C56.1115 147.925 56.1108 148.021 56.0892 148.112C56.0676 148.204 56.0256 148.29 55.9663 148.363C55.9071 148.436 55.8322 148.495 55.7473 148.535C55.6623 148.575 55.5695 148.595 55.4757 148.593C53.7969 148.565 52.6106 148.464 50.5233 148.464C49.2418 148.464 46.6062 148.599 44.8267 148.599C43.0471 148.599 42.8233 146.836 43.5508 146.678C46.802 145.958 48.0275 144.989 49.0684 144.032C49.2555 143.861 49.4988 143.767 49.7511 143.767Z" fill="#263238" />
  <path d="M20.6529 143.767H25.2639C25.3485 143.767 25.4304 143.797 25.4964 143.85C25.5625 143.903 25.6087 143.977 25.6277 144.06L26.4614 147.833C26.4816 147.925 26.481 148.02 26.4597 148.111C26.4384 148.202 26.3969 148.288 26.3383 148.361C26.2797 148.434 26.2055 148.493 26.1212 148.533C26.037 148.573 25.9448 148.594 25.8515 148.593C24.1727 148.565 21.7832 148.464 19.696 148.464C17.2505 148.464 15.1409 148.599 12.2757 148.599C10.541 148.599 10.0374 146.836 10.7872 146.678C14.0888 145.946 16.7861 145.873 19.64 144.099C19.9404 143.896 20.2911 143.781 20.6529 143.767Z" fill="#263238" />
  <path d="M11.2795 60.9819L6.67407 61.2917L8.82851 66.2641C9.6933 66.2397 10.5276 65.9373 11.2093 65.4013C11.891 64.8652 12.3843 64.1237 12.617 63.2852L11.2795 60.9819Z" fill="#E4897B" />
  <path d="M4.18384 62.8626L6.74118 66.3428L8.82846 66.2639L6.67402 61.2915L4.18384 62.8626Z" fill="#E4897B" />
  <path opacity="0.2" d="M46.8528 37.2396C47.5914 33.4891 49.0296 34.1367 50.3894 35.9838C49.8059 40.9566 49.5368 45.9616 49.5836 50.9687C48.6323 49.3807 45.6217 43.5241 46.8528 37.2396Z" fill="black" />
  <path d="M42.9468 17.5469C42.3424 20.6554 41.7381 26.3486 43.8981 28.4266C43.8981 28.4266 43.0531 31.5745 37.3117 31.5745C31.005 31.5745 34.3011 28.4266 34.3011 28.4266C37.7426 27.5988 37.6586 25.0478 37.0543 22.6094L42.9468 17.5469Z" fill="#E4897B" />
  <path d="M40.5461 19.6138L37.0542 22.6096C37.2027 23.1628 37.3019 23.7282 37.3508 24.299C38.6658 24.1076 40.4733 22.6547 40.6132 21.2694C40.6906 20.718 40.6678 20.157 40.5461 19.6138Z" fill="#CE6F64" />
  <path d="M35.4535 5.61448C33.2543 6.13819 30.9376 12.5692 33.3326 14.343C35.7277 16.1169 39.6113 4.64026 35.4535 5.61448Z" fill="#263238" />
  <path d="M43.8417 13.8753C42.6162 17.9074 42.1014 20.3288 39.544 21.9338C35.7052 24.3496 31.1501 21.2636 31.1501 16.9444C31.1501 13.0532 33.1591 7.11776 37.5295 6.44764C38.4908 6.29891 39.4739 6.39957 40.3857 6.74011C41.2975 7.08064 42.1078 7.64976 42.7399 8.39357C43.372 9.13739 43.805 10.0313 43.9978 10.9905C44.1906 11.9498 44.1369 12.9428 43.8417 13.8753Z" fill="#E4897B" />
  <path d="M42.5999 17.8168C40.244 18.1884 38.3862 9.36981 44.5753 8.68842C52.0794 7.83246 46.3939 17.2199 42.5999 17.8168Z" fill="#263238" />
  <path d="M45.5878 10.7836C42.6276 10.8399 33.9707 9.05481 32.8515 4.22313C32.3926 2.24091 35.8006 -0.349491 39.2365 0.0390702C34.6982 2.04382 38.2628 5.24804 43.0753 4.82569C48.5761 4.33577 49.5833 10.7104 45.5878 10.7836Z" fill="#263238" />
  <path d="M46.9028 9.10006C46.9028 9.10006 49.8911 8.88043 49.1412 11.5609C49.0116 10.9909 48.7372 10.4645 48.3449 10.0331C47.9525 9.60175 47.4557 9.28025 46.9028 9.10006Z" fill="#263238" />
  <path d="M46.103 9.00436C46.103 9.00436 48.6716 10.5642 49.192 7.82178C48.8201 8.26766 48.341 8.61039 47.8004 8.81738C47.2597 9.02437 46.6754 9.08873 46.103 9.00436Z" fill="#263238" />
  <path d="M44.603 18.8304C43.8452 19.5658 42.8297 19.9705 41.7771 19.9566C40.3837 19.9285 40.0983 18.5769 40.809 17.4619C41.4581 16.4596 42.969 15.2601 44.2057 15.8289C45.4424 16.3976 45.5151 17.9124 44.603 18.8304Z" fill="#E4897B" />
  <path d="M45.3587 138.682H55.4705V135.946L44.1667 135.771L45.3587 138.682Z" fill="#407BFF" />
  <path d="M16.875 138.682H26.9813V135.912L15.6831 135.771L16.875 138.682Z" fill="#407BFF" />
  <path d="M37.4009 13.5319C37.3226 13.8642 37.0819 14.0951 36.8413 14.0388C36.6007 13.9824 36.5168 13.6727 36.5951 13.3405C36.6734 13.0082 36.9141 12.7773 37.1547 12.8337C37.3953 12.89 37.4793 13.1997 37.4009 13.5319Z" fill="#263238" />
  <path d="M33.6575 12.6257C33.5792 12.9635 33.3385 13.1888 33.0979 13.1381C32.8573 13.0874 32.7733 12.7721 32.8517 12.4398C32.93 12.1076 33.1707 11.8767 33.4113 11.9274C33.6519 11.9781 33.7358 12.2934 33.6575 12.6257Z" fill="#263238" />
  <path d="M34.81 13.0869C34.1706 14.0098 33.408 14.8398 32.5437 15.5534C32.7311 15.7708 32.9634 15.9445 33.2243 16.0622C33.4853 16.1798 33.7687 16.2388 34.0546 16.2348L34.81 13.0869Z" fill="#DE5753" />
  <path d="M35.5545 17.4738C35.3019 17.4727 35.0503 17.4425 34.8046 17.3837C34.7783 17.377 34.7556 17.3604 34.741 17.3374C34.7264 17.3143 34.7212 17.2866 34.7263 17.2598C34.7295 17.2468 34.7353 17.2346 34.7433 17.2239C34.7512 17.2132 34.7612 17.2042 34.7727 17.1974C34.7841 17.1906 34.7968 17.1861 34.81 17.1843C34.8231 17.1824 34.8365 17.1832 34.8494 17.1866C35.2592 17.2956 35.6888 17.3055 36.1031 17.2155C36.5174 17.1254 36.9047 16.938 37.2333 16.6685C37.2525 16.6498 37.2784 16.6396 37.3052 16.6402C37.3319 16.6407 37.3574 16.6519 37.376 16.6713C37.3945 16.6907 37.4046 16.7168 37.4041 16.7437C37.4036 16.7706 37.3924 16.7962 37.3732 16.8149C36.8657 17.248 36.2198 17.482 35.5545 17.4738Z" fill="#263238" />
  <path d="M38.8616 12.5974C38.8233 12.5954 38.7862 12.5828 38.7546 12.561C38.723 12.5391 38.698 12.5088 38.6825 12.4735C38.5855 12.2361 38.4332 12.0257 38.2384 11.8601C38.0436 11.6944 37.8121 11.5784 37.5633 11.5218C37.5374 11.5177 37.5126 11.5084 37.4903 11.4946C37.4681 11.4807 37.4488 11.4624 37.4337 11.4409C37.4185 11.4193 37.4078 11.395 37.4022 11.3692C37.3966 11.3434 37.3962 11.3168 37.401 11.2909C37.4093 11.2379 37.4381 11.1904 37.4811 11.1588C37.5241 11.1271 37.5778 11.1139 37.6305 11.122C37.9396 11.1933 38.2271 11.3386 38.4686 11.5454C38.7102 11.7522 38.8987 12.0145 39.0183 12.3102C39.0295 12.3345 39.0358 12.3609 39.0368 12.3878C39.0378 12.4146 39.0334 12.4414 39.0241 12.4665C39.0147 12.4917 39.0004 12.5147 38.9822 12.5343C38.9639 12.5538 38.9419 12.5695 38.9175 12.5805C38.8997 12.5885 38.8809 12.5942 38.8616 12.5974Z" fill="#263238" />
  <path d="M32.404 10.9416C32.357 10.9431 32.3111 10.927 32.2752 10.8965C32.235 10.8625 32.2096 10.8141 32.2044 10.7615C32.1991 10.7089 32.2145 10.6563 32.2473 10.6149C32.4445 10.3599 32.7003 10.157 32.9927 10.0236C33.2852 9.89014 33.6055 9.83027 33.926 9.84909C33.9786 9.85611 34.0263 9.8837 34.0588 9.92586C34.0912 9.96803 34.1059 10.0214 34.0995 10.0743C34.0967 10.1003 34.0889 10.1254 34.0764 10.1483C34.0639 10.1712 34.047 10.1913 34.0267 10.2075C34.0064 10.2238 33.9831 10.2358 33.9581 10.2429C33.9331 10.25 33.907 10.252 33.8813 10.2489C33.6299 10.2405 33.3801 10.2923 33.1524 10.4C32.9248 10.5077 32.7258 10.6682 32.5718 10.8684C32.5522 10.8938 32.5266 10.9138 32.4972 10.9266C32.4679 10.9394 32.4358 10.9445 32.404 10.9416Z" fill="#263238" />
  <path d="M48.3465 144.511C48.0524 144.537 47.7583 144.461 47.5127 144.297C47.4371 144.232 47.3786 144.149 47.3425 144.055C47.3064 143.962 47.2937 143.861 47.3056 143.762C47.3052 143.704 47.3207 143.647 47.3503 143.597C47.3799 143.548 47.4225 143.507 47.4735 143.48C47.938 143.238 49.3034 144.077 49.4601 144.178C49.4765 144.189 49.4895 144.204 49.4974 144.222C49.5054 144.24 49.508 144.26 49.5048 144.28C49.5009 144.299 49.4913 144.317 49.4774 144.331C49.4635 144.345 49.4458 144.355 49.4265 144.359C49.0734 144.45 48.711 144.501 48.3465 144.511ZM47.7197 143.632C47.675 143.629 47.6303 143.639 47.591 143.66C47.57 143.67 47.5524 143.686 47.5405 143.706C47.5285 143.727 47.5227 143.75 47.5239 143.773C47.5145 143.841 47.5224 143.91 47.5469 143.974C47.5714 144.038 47.6116 144.095 47.6638 144.139C48.133 144.359 48.6684 144.387 49.1579 144.218C48.7205 143.931 48.2322 143.732 47.7197 143.632Z" fill="#407BFF" />
  <path d="M49.4267 144.364C49.4123 144.37 49.3963 144.37 49.3819 144.364C48.9398 144.128 48.1004 143.199 48.19 142.725C48.202 142.651 48.2403 142.583 48.2978 142.535C48.3553 142.486 48.4283 142.46 48.5033 142.461C48.5802 142.451 48.6581 142.458 48.7323 142.48C48.8065 142.502 48.8752 142.54 48.9342 142.59C49.4211 142.99 49.4938 144.218 49.5274 144.28C49.5279 144.298 49.524 144.316 49.5163 144.333C49.5085 144.35 49.497 144.364 49.4826 144.375C49.4633 144.378 49.4438 144.374 49.4267 144.364ZM48.5761 142.641H48.5313C48.397 142.641 48.3914 142.72 48.3858 142.742C48.3299 143.024 48.8671 143.728 49.3036 144.06C49.2731 143.575 49.0997 143.111 48.8055 142.725C48.741 142.672 48.66 142.642 48.5761 142.641Z" fill="#407BFF" />
  <path d="M18.873 144.511C18.5105 144.544 18.1476 144.453 17.8433 144.252C17.7754 144.191 17.7231 144.115 17.6909 144.03C17.6587 143.944 17.6477 143.852 17.6587 143.762C17.6618 143.707 17.6782 143.654 17.7065 143.606C17.7348 143.559 17.7741 143.52 17.8209 143.492C18.3358 143.204 20.0313 144.055 20.2272 144.173C20.2447 144.183 20.2588 144.198 20.2678 144.216C20.2767 144.234 20.2801 144.254 20.2776 144.274C20.2754 144.295 20.2666 144.314 20.2525 144.33C20.2383 144.345 20.2196 144.355 20.1992 144.359C19.7629 144.452 19.3188 144.502 18.873 144.511ZM18.1063 143.632C18.0423 143.628 17.9784 143.642 17.9217 143.672C17.902 143.682 17.8853 143.697 17.8735 143.716C17.8617 143.735 17.8551 143.756 17.8545 143.779C17.8487 143.838 17.8569 143.898 17.8782 143.954C17.8996 144.01 17.9336 144.06 17.9776 144.1C18.2406 144.331 18.9345 144.37 19.8635 144.218C19.3153 143.923 18.721 143.725 18.1063 143.632Z" fill="#407BFF" />
  <path d="M20.1766 144.364H20.1374C19.6282 144.133 18.6209 143.237 18.6937 142.736C18.6937 142.624 18.7944 142.483 19.0686 142.455C19.1684 142.442 19.2699 142.45 19.3663 142.479C19.4627 142.508 19.552 142.557 19.6282 142.624C20.1878 143.068 20.2773 144.212 20.2829 144.262C20.2858 144.28 20.2836 144.297 20.2766 144.313C20.2697 144.329 20.2582 144.343 20.2437 144.352C20.223 144.363 20.1996 144.367 20.1766 144.364ZM19.1469 142.641H19.091C18.9063 142.641 18.8951 142.731 18.8951 142.753C18.8448 143.046 19.5331 143.767 20.0535 144.082C20.005 143.597 19.8097 143.139 19.4939 142.77C19.3982 142.685 19.2746 142.639 19.1469 142.641Z" fill="#407BFF" />
  <path d="M19.9194 34.1763C20.886 33.4946 21.977 33.012 23.1296 32.7563C24.2822 32.5005 25.4737 32.4766 26.6356 32.686C27.7974 32.8953 28.9066 33.3338 29.8995 33.9761C30.8923 34.6184 31.7491 35.452 32.4207 36.4288C34.3753 35.0585 36.7907 34.5257 39.1357 34.9476C41.4807 35.3695 43.5631 36.7115 44.9248 38.6785C46.2865 40.6455 46.8159 43.0762 46.3967 45.436C45.9774 47.7958 44.6438 49.8914 42.6892 51.2617L27.9271 61.5951L17.6642 46.7566C16.9877 45.7829 16.5092 44.6841 16.2563 43.5235C16.0035 42.363 15.9812 41.1635 16.1908 39.9943C16.4004 38.825 16.8377 37.709 17.4776 36.7105C18.1175 35.712 18.9474 34.8507 19.9194 34.1763Z" fill="#407BFF" />
  <path opacity="0.3" d="M19.9194 34.1763C20.886 33.4946 21.977 33.012 23.1296 32.7563C24.2822 32.5005 25.4737 32.4766 26.6356 32.686C27.7974 32.8953 28.9066 33.3338 29.8995 33.9761C30.8923 34.6184 31.7491 35.452 32.4207 36.4288C34.3753 35.0585 36.7907 34.5257 39.1357 34.9476C41.4807 35.3695 43.5631 36.7115 44.9248 38.6785C46.2865 40.6455 46.8159 43.0762 46.3967 45.436C45.9774 47.7958 44.6438 49.8914 42.6892 51.2617L27.9271 61.5951L17.6642 46.7566C16.9877 45.7829 16.5092 44.6841 16.2563 43.5235C16.0035 42.363 15.9812 41.1635 16.1908 39.9943C16.4004 38.825 16.8377 37.709 17.4776 36.7105C18.1175 35.712 18.9474 34.8507 19.9194 34.1763Z" fill="white" />
  <path d="M0.350398 49.4538C0.768233 47.5422 1.92275 45.8756 3.56049 44.8198C5.19824 43.764 7.18535 43.4053 9.08564 43.8225C9.53752 41.9484 10.7001 40.3267 12.3248 39.3041C13.9495 38.2815 15.9073 37.9393 17.7795 38.3505C19.6517 38.7618 21.2897 39.8939 22.3432 41.5047C23.3967 43.1156 23.7821 45.0773 23.4168 46.9704L20.2887 61.3922L5.95752 58.2443C5.01556 58.038 4.12324 57.6469 3.33155 57.0934C2.53987 56.5399 1.86434 55.8348 1.3436 55.0184C0.822864 54.2021 0.467128 53.2904 0.296706 52.3356C0.126285 51.3808 0.144524 50.4015 0.350398 49.4538Z" fill="#407BFF" />
  <path opacity="0.5" d="M0.350398 49.4538C0.768233 47.5422 1.92275 45.8756 3.56049 44.8198C5.19824 43.764 7.18535 43.4053 9.08564 43.8225C9.53752 41.9484 10.7001 40.3267 12.3248 39.3041C13.9495 38.2815 15.9073 37.9393 17.7795 38.3505C19.6517 38.7618 21.2897 39.8939 22.3432 41.5047C23.3967 43.1156 23.7821 45.0773 23.4168 46.9704L20.2887 61.3922L5.95752 58.2443C5.01556 58.038 4.12324 57.6469 3.33155 57.0934C2.53987 56.5399 1.86434 55.8348 1.3436 55.0184C0.822864 54.2021 0.467128 53.2904 0.296706 52.3356C0.126285 51.3808 0.144524 50.4015 0.350398 49.4538Z" fill="white" />
  <path d="M9.1864 54.6856C11.0076 51.9498 13.8336 50.0536 17.0435 49.4137C20.2533 48.7738 23.5843 49.4426 26.3044 51.273C27.1921 49.8852 28.3457 48.6893 29.6979 47.7552C31.05 46.8211 32.5736 46.1675 34.1795 45.8326C35.7855 45.4977 37.4417 45.4883 39.0514 45.8047C40.661 46.1212 42.1919 46.7573 43.5545 47.6758C44.9172 48.5943 46.0843 49.7769 46.9876 51.1544C47.891 52.532 48.5125 54.0769 48.8159 55.6988C49.1193 57.3208 49.0985 58.9874 48.7547 60.6012C48.4109 62.2149 47.7509 63.7436 46.8134 65.0979L33.081 85.731L12.5719 71.9061C11.2236 71.0012 10.066 69.8373 9.16565 68.4812C8.26532 67.125 7.63994 65.6033 7.32539 64.0034C7.01084 62.4034 7.01333 60.7567 7.33268 59.1577C7.65204 57.5588 8.282 56.039 9.1864 54.6856Z" fill="#407BFF" />
  <path opacity="0.7" d="M9.1864 54.6856C11.0076 51.9498 13.8336 50.0536 17.0435 49.4137C20.2533 48.7738 23.5843 49.4426 26.3044 51.273C27.1921 49.8852 28.3457 48.6893 29.6979 47.7552C31.05 46.8211 32.5736 46.1675 34.1795 45.8326C35.7855 45.4977 37.4417 45.4883 39.0514 45.8047C40.661 46.1212 42.1919 46.7573 43.5545 47.6758C44.9172 48.5943 46.0843 49.7769 46.9876 51.1544C47.891 52.532 48.5125 54.0769 48.8159 55.6988C49.1193 57.3208 49.0985 58.9874 48.7547 60.6012C48.4109 62.2149 47.7509 63.7436 46.8134 65.0979L33.081 85.731L12.5719 71.9061C11.2236 71.0012 10.066 69.8373 9.16565 68.4812C8.26532 67.125 7.63994 65.6033 7.32539 64.0034C7.01084 62.4034 7.01333 60.7567 7.33268 59.1577C7.65204 57.5588 8.282 56.039 9.1864 54.6856Z" fill="white" />
  <path d="M53.064 32.6899C53.4333 33.4783 53.7355 34.1766 54.0265 34.9425C54.3175 35.7083 54.5861 36.4179 54.8771 37.195C55.4367 38.6873 55.9011 40.2021 56.3208 41.7507C56.7559 43.3065 57.1127 44.8834 57.3896 46.4754L57.5911 47.6861L57.7366 48.9194C57.7925 49.3305 57.8149 49.7528 57.8429 50.1696L57.8877 50.8003V50.9579V51.217C57.8877 51.4197 57.8877 51.5943 57.8877 51.7801C57.7778 52.8875 57.4586 53.9636 56.9475 54.9505C56.553 55.7448 56.1043 56.5107 55.6045 57.2425C54.6812 58.5817 53.6698 59.8573 52.5771 61.0605C50.4706 63.3895 48.1881 65.5508 45.7501 67.5253L43.5117 65.2728C45.3416 62.9245 47.1603 60.4974 48.8111 58.0872C49.6193 56.9144 50.3664 55.7001 51.0494 54.4494C51.3576 53.8868 51.6268 53.3035 51.8553 52.7036C52.021 52.3206 52.1159 51.9103 52.1351 51.4929C52.1351 51.4648 52.1351 51.4929 52.1351 51.4929C52.1351 51.5211 52.1351 51.5267 52.1351 51.4929V51.3634L52.0567 50.8566C52.0063 50.5131 51.9616 50.1808 51.8832 49.8317L51.6818 48.8068L51.4411 47.7706C51.1054 46.3909 50.7137 45.0056 50.2716 43.626C49.8295 42.2463 49.3483 40.8666 48.839 39.4926C48.5928 38.8056 48.3298 38.1242 48.0612 37.4428L47.261 35.4605L53.064 32.6899Z" fill="#E4897B" />
  <path d="M52.3365 29.6654C56.1025 31.1239 58.8054 44.9882 58.8054 44.9882L49.8519 48.5415C49.8519 48.5415 46.8469 41.5756 45.8396 36.4229C44.7596 31 48.0724 28.0098 52.3365 29.6654Z" fill="#407BFF" />
  <path opacity="0.2" d="M52.3365 29.6654C56.1025 31.1239 58.8054 44.9882 58.8054 44.9882L49.8519 48.5415C49.8519 48.5415 46.8469 41.5756 45.8396 36.4229C44.7596 31 48.0724 28.0098 52.3365 29.6654Z" fill="black" />
  <path d="M44.4908 64.6416L40.3499 65.7679L43.7801 69.9519C43.7801 69.9519 47.0985 68.2231 46.3823 66.3479L44.4908 64.6416Z" fill="#E4897B" />
  <path d="M37.3508 69.2311L40.3503 72.5086L43.7806 69.9351L40.3503 65.751L37.3508 69.2311Z" fill="#E4897B" />
</svg>
