<svg width="40" height="40" viewBox="0 0 40 40" fill="none" xmlns="http://www.w3.org/2000/svg">
<rect width="40" height="40" rx="12" fill="#4E91F7"/>
<path d="M15 20.8625L26.2375 30.75C26.3674 30.865 26.5249 30.9442 26.6947 30.9799C26.8644 31.0156 27.0405 31.0065 27.2057 30.9535C27.3708 30.9006 27.5194 30.8056 27.6367 30.6779C27.7541 30.5501 27.8362 30.3941 27.875 30.225L32.575 9.70004C32.6144 9.52327 32.6051 9.33913 32.548 9.16726C32.4909 8.99538 32.3883 8.84224 32.2509 8.72417C32.1136 8.6061 31.9468 8.52753 31.7683 8.49686C31.5898 8.4662 31.4064 8.48457 31.2375 8.55004L8.16251 17.6125C7.23751 17.975 7.36251 19.325 8.33751 19.525L15 20.8625Z" stroke="white" stroke-width="2" stroke-linecap="round" stroke-linejoin="round"/>
<path d="M15 20.8627L32.0125 8.5752" stroke="white" stroke-width="2" stroke-linecap="round" stroke-linejoin="round"/>
<path d="M20.6125 25.7998L16.7125 29.6998C16.5734 29.8411 16.3954 29.9378 16.2011 29.9777C16.0069 30.0176 15.8052 29.9988 15.6216 29.9238C15.4381 29.8488 15.281 29.7209 15.1703 29.5563C15.0596 29.3918 15.0003 29.1981 15 28.9998V20.8623" stroke="white" stroke-width="2" stroke-linecap="round" stroke-linejoin="round"/>
</svg>
