<svg width="136" height="216" viewBox="0 0 136 216" fill="none"
  xmlns="http://www.w3.org/2000/svg">
  <path d="M49.1828 80.3839L48.7725 81.0056C48.6482 81.1859 48.5176 81.3475 48.3933 81.5154C48.1384 81.8511 47.8711 82.1371 47.6038 82.4791C47.063 83.1008 46.5159 83.7225 45.9315 84.2696C44.7631 85.3925 43.5166 86.4313 42.2016 87.3782C40.8882 88.3249 39.5063 89.1727 38.0675 89.9148C37.3401 90.2692 36.619 90.636 35.8668 90.9345L34.7416 91.3821L34.4245 91.5002C34.2505 91.5562 34.0888 91.6184 33.8961 91.6619C33.5202 91.7557 33.1335 91.7996 32.746 91.7924C32.0075 91.7874 31.2807 91.6062 30.6262 91.264C30.0999 90.9891 29.6162 90.6393 29.1901 90.2257C28.5152 89.5599 27.932 88.8073 27.4557 87.9875C26.6414 86.5681 25.9768 85.0679 25.4726 83.5111C24.4946 80.5763 23.7953 77.5559 23.3838 74.49L25.9823 73.918C26.4548 75.2795 26.9397 76.6846 27.4743 78.04C28.009 79.3953 28.5436 80.7445 29.1653 82.0252C29.7312 83.2614 30.4052 84.4452 31.1794 85.5628C31.4871 86.0261 31.8574 86.4445 32.2798 86.8062C32.4012 86.9059 32.5376 86.9856 32.6839 87.0425C32.7709 87.0425 32.7647 87.0425 32.7212 87.0425H32.6777L32.8828 86.943L33.8091 86.4954C34.4308 86.197 35.0213 85.8737 35.6181 85.5131C36.7954 84.8076 37.9327 84.0376 39.0248 83.2065C40.1025 82.3595 41.1261 81.4458 42.0896 80.4709C42.5745 79.9984 43.0346 79.4948 43.476 78.985C43.6935 78.7301 43.9111 78.4752 44.0976 78.2203L44.396 77.841L44.6385 77.5177L49.1828 80.3839Z" fill="#B97964" />
  <path d="M41.6541 80.1162L44.806 87.6763L42.5244 89.1001L38.981 82.2425L41.6541 80.1162Z" fill="#263238" />
  <path d="M50.5752 73.7496C45.4341 73.6812 40.2121 80.1906 40.0815 80.3522L44.1472 89.9143C44.1472 89.9143 53.1924 82.5718 53.6462 79.6994C54.1187 76.709 53.8327 73.7931 50.5752 73.7496Z" fill="#4E91F7" />
  <path opacity="0.3" d="M50.5752 73.7496C45.4341 73.6812 40.2121 80.1906 40.0815 80.3522L44.1472 89.9143C44.1472 89.9143 53.1924 82.5718 53.6462 79.6994C54.1187 76.709 53.8327 73.7931 50.5752 73.7496Z" fill="black" />
  <path d="M25.5598 72.9297L22.0038 70.1631L21.2827 75.6094C21.2827 75.6094 24.7392 76.9647 26.5793 75.7897L26.5296 74.7949C26.511 74.4327 26.4148 74.0786 26.2475 73.7568C26.0802 73.435 25.8456 73.153 25.5598 72.9297Z" fill="#B97964" />
  <path d="M17.2666 69.8887L17.4904 74.0231L21.3012 75.6085L22.0223 70.1622L17.2666 69.8887Z" fill="#B97964" />
  <path d="M95.1852 72.4885L100.681 71.1145L96.8388 67.1914C96.8388 67.1914 93.2766 68.6462 94.147 71.7548L95.1852 72.4885Z" fill="#B97964" />
  <path d="M103.41 70.138L102.957 65.8232L96.8083 67.191L100.65 71.1141L103.41 70.138Z" fill="#B97964" />
  <path d="M77.2633 210.765L72.147 211.256L67.8762 199.182L72.9925 198.685L77.2633 210.765Z" fill="#B97964" />
  <path d="M132.032 185.379L128.265 189.035L118.579 181.475L122.353 177.819L132.032 185.379Z" fill="#B97964" />
  <path d="M127.177 188.327L130.074 183.186C130.123 183.097 130.202 183.03 130.297 182.996C130.392 182.961 130.496 182.963 130.59 182.999L134.991 184.703C135.1 184.75 135.198 184.82 135.278 184.907C135.358 184.995 135.419 185.098 135.457 185.211C135.494 185.323 135.508 185.443 135.496 185.561C135.484 185.679 135.448 185.793 135.389 185.896C134.351 187.675 133.761 188.477 132.486 190.74C131.703 192.132 130.174 195.322 129.092 197.243C128.01 199.164 126.052 198.194 126.332 197.299C127.575 193.276 127.364 191.032 127.028 189.254C126.966 188.937 127.019 188.609 127.177 188.327Z" fill="#263238" />
  <path d="M71.1281 209.689H77.3447C77.4563 209.692 77.5643 209.73 77.6527 209.798C77.7411 209.866 77.8053 209.961 77.8358 210.069L79.191 214.999C79.2254 215.115 79.2317 215.238 79.2094 215.358C79.1872 215.477 79.1371 215.59 79.0632 215.686C78.9892 215.782 78.8936 215.86 78.784 215.912C78.6744 215.965 78.554 215.99 78.4326 215.987C76.2506 215.95 75.1875 215.82 72.446 215.82C70.7613 215.82 65.272 216 62.9408 216C60.6095 216 60.1868 213.693 61.1317 213.513C65.359 212.574 68.9274 211.287 70.2267 210.056C70.4672 209.82 70.791 209.688 71.1281 209.689Z" fill="#263238" />
  <path d="M67.8826 199.182L70.077 205.412H75.3736L72.9989 198.685L67.8826 199.182Z" fill="#A76755" />
  <path d="M122.358 177.819L118.584 181.481L123.576 185.373L127.35 181.718L122.358 177.819Z" fill="#A76755" />
  <path d="M45.5709 75.4107C45.5709 75.4107 43.4573 77.021 57.6996 104.818L78.0031 98.259C74.9943 90.1082 73.3407 85.0163 71.7865 66.7812C68.775 67.1145 65.7915 67.6651 62.8594 68.4288C59.7242 69.2179 56.6445 70.2127 53.6401 71.4069C49.7609 73.0731 45.5709 75.4107 45.5709 75.4107Z" fill="#4E91F7" />
  <path opacity="0.3" d="M45.5709 75.4107C45.5709 75.4107 43.4573 77.021 57.6996 104.818L78.0031 98.259C74.9943 90.1082 73.3407 85.0163 71.7865 66.7812C68.775 67.1145 65.7915 67.6651 62.8594 68.4288C59.7242 69.2179 56.6445 70.2127 53.6401 71.4069C49.7609 73.0731 45.5709 75.4107 45.5709 75.4107Z" fill="black" />
  <path d="M58.5637 58.3379C58.9367 61.4962 60.1116 67.1166 62.8283 68.4284C62.8283 68.4284 62.9837 71.6987 57.4758 73.4768C51.4145 75.4352 53.609 71.4065 53.609 71.4065C56.6614 69.5413 55.7786 67.1166 54.4607 65.0027L58.5637 58.3379Z" fill="#B97964" />
  <path d="M48.3746 73.9059C49.8728 73.1288 51.7813 72.1838 53.609 71.4191C56.6172 70.2029 59.7086 69.2036 62.8594 68.4286C64.6311 67.9436 66.4215 67.583 67.9321 67.3281C68.0751 67.7509 67.6462 68.8451 66.5956 70.3559C63.2697 73.1164 56.1765 76.7037 50.9483 76.5731C48.6606 75.7214 48.0886 74.8199 48.3746 73.9059Z" fill="#B97964" />
  <path d="M66.5889 70.3555C64.3307 73.3828 61.6317 76.0548 58.5819 78.2824C55.9849 77.9662 53.4257 77.3935 50.9417 76.5727C56.145 76.7032 63.2382 73.1159 66.5889 70.3555Z" fill="#263238" />
  <path d="M56.8914 61.0547L54.4607 64.9902C54.7781 65.4807 55.0507 65.9988 55.2751 66.5383C56.4811 65.9476 58.0166 64.2006 57.7244 62.8079C57.551 62.1795 57.2691 61.5861 56.8914 61.0547Z" fill="#A76755" />
  <path d="M59.7947 52.5051C60.1055 57.7089 60.3542 59.9036 58.0664 62.8755C54.6286 67.3394 48.1695 66.6058 46.3046 61.5823C44.6323 57.0748 44.4023 49.3219 49.2077 46.661C50.2636 46.0676 51.4535 45.7537 52.6647 45.7491C53.8758 45.7445 55.0681 46.0493 56.1285 46.6346C57.1888 47.22 58.0822 48.0664 58.7238 49.0938C59.3654 50.1212 59.734 51.2954 59.7947 52.5051Z" fill="#B97964" />
  <path d="M70.0712 43.1795C71.2466 38.0098 68.009 32.8661 62.8398 31.6907C57.6706 30.5152 52.5274 33.7531 51.352 38.9228C50.1767 44.0924 53.4143 49.2361 58.5835 50.4116C63.7526 51.587 68.8959 48.3491 70.0712 43.1795Z" fill="#263238" />
  <path d="M58.3151 45.2193C60.292 46.5249 61.2743 48.5268 60.5096 49.6895C59.745 50.8521 57.5194 50.7402 55.5363 49.4345C53.5532 48.1289 52.5772 46.127 53.3418 44.9644C54.1065 43.8018 56.332 43.9137 58.3151 45.2193Z" fill="#4E91F7" />
  <path opacity="0.6" d="M58.3151 45.2193C60.292 46.5249 61.2743 48.5268 60.5096 49.6895C59.745 50.8521 57.5194 50.7402 55.5363 49.4345C53.5532 48.1289 52.5772 46.127 53.3418 44.9644C54.1065 43.8018 56.332 43.9137 58.3151 45.2193Z" fill="#FAFAFA" />
  <path d="M57.2645 56.0557C57.7805 54.862 55.9839 51.3182 56.3693 49.994C55.3373 49.0303 44.8747 52.4373 45.7202 49.9504C46.5283 47.563 49.0772 44.3985 54.8959 45.7227C61.1126 47.1403 61.6534 52.5181 60.9572 54.2341C60.2609 55.95 59.2725 57.7344 59.2725 57.7344L57.2645 56.0557Z" fill="#263238" />
  <path d="M61.162 57.0686C61.175 58.0756 60.7909 59.0473 60.0928 59.7731C59.1541 60.7243 58.0226 60.0404 57.7304 58.8094C57.4631 57.7028 57.6372 55.8687 58.8432 55.3837C59.1091 55.2802 59.3967 55.2451 59.6796 55.2816C59.9626 55.3182 60.2318 55.4252 60.4627 55.5929C60.6935 55.7606 60.8785 55.9836 61.0007 56.2415C61.1229 56.4993 61.1784 56.7837 61.162 57.0686Z" fill="#B97964" />
  <path d="M57.6994 104.817C57.6994 104.817 48.2874 150.725 53.5342 165.864C58.9924 181.612 67.876 203.596 67.876 203.596L76.1752 203.124C76.1752 203.124 69.3369 175.345 67.6522 162.799C65.3459 145.503 75.2241 99.1846 75.2241 99.1846L57.6994 104.817Z" fill="#4E91F7" />
  <path opacity="0.6" d="M57.6994 104.817C57.6994 104.817 48.2874 150.725 53.5342 165.864C58.9924 181.612 67.876 203.596 67.876 203.596L76.1752 203.124C76.1752 203.124 69.3369 175.345 67.6522 162.799C65.3459 145.503 75.2241 99.1846 75.2241 99.1846L57.6994 104.817Z" fill="#FAFAFA" />
  <path d="M76.8283 203.323L67.2236 203.877L65.6819 200.097L76.275 198.996L76.8283 203.323Z" fill="#4E91F7" />
  <path opacity="0.2" d="M76.8283 203.323L67.2236 203.877L65.6819 200.097L76.275 198.996L76.8283 203.323Z" fill="black" />
  <path d="M67.6523 108.349C66.21 113.683 67.4161 121.678 70.1389 127.286C70.8041 122.934 71.5128 118.719 72.1842 114.945C70.7855 112.241 69.2437 109.841 67.6523 108.349Z" fill="#4E91F7" />
  <path opacity="0.4" d="M67.6523 108.349C66.21 113.683 67.4161 121.678 70.1389 127.286C70.8041 122.934 71.5128 118.719 72.1842 114.945C70.7855 112.241 69.2437 109.841 67.6523 108.349Z" fill="#FAFAFA" />
  <path d="M63.0586 103.082C63.0586 103.082 77.0336 136.487 86.2902 154.828C93.7501 169.662 121.433 185.187 121.433 185.187L126.406 179.915C126.406 179.915 105.717 161.543 100.557 151.483C84.046 119.284 87.4402 105.221 78.0158 98.2578L63.0586 103.082Z" fill="#4E91F7" />
  <path opacity="0.6" d="M63.0586 103.082C63.0586 103.082 77.0336 136.487 86.2902 154.828C93.7501 169.662 121.433 185.187 121.433 185.187L126.406 179.915C126.406 179.915 105.717 161.543 100.557 151.483C84.046 119.284 87.4402 105.221 78.0158 98.2578L63.0586 103.082Z" fill="#FAFAFA" />
  <path d="M127.333 179.163L120.494 186.431L116.168 184.156L124.044 176.123L127.333 179.163Z" fill="#4E91F7" />
  <path opacity="0.2" d="M127.333 179.163L120.494 186.431L116.168 184.156L124.044 176.123L127.333 179.163Z" fill="black" />
  <path d="M77.9221 96.9714L79.4203 98.4946C79.5385 98.6127 79.4203 98.8117 79.1841 98.8863L57.8921 105.725C57.7056 105.787 57.5253 105.725 57.4756 105.632L56.711 103.879C56.655 103.754 56.7793 103.599 56.9783 103.531L77.5367 96.8968C77.6019 96.8748 77.6717 96.8701 77.7392 96.8832C77.8068 96.8963 77.8698 96.9267 77.9221 96.9714Z" fill="#263238" />
  <path d="M75.9148 100.161L76.4618 99.9868C76.5737 99.9495 76.6359 99.8624 76.611 99.8003L75.5915 97.5186C75.5915 97.4564 75.4423 97.4315 75.3366 97.4626L74.7833 97.6429C74.6776 97.6429 74.6093 97.761 74.6404 97.8294L75.6599 100.105C75.6785 100.173 75.7904 100.198 75.9148 100.161Z" fill="#4E91F7" />
  <path opacity="0.6" d="M75.9148 100.161L76.4618 99.9868C76.5737 99.9495 76.6359 99.8624 76.611 99.8003L75.5915 97.5186C75.5915 97.4564 75.4423 97.4315 75.3366 97.4626L74.7833 97.6429C74.6776 97.6429 74.6093 97.761 74.6404 97.8294L75.6599 100.105C75.6785 100.173 75.7904 100.198 75.9148 100.161Z" fill="#FAFAFA" />
  <path d="M59.5024 105.458L60.0557 105.277C60.1614 105.24 60.2298 105.159 60.1987 105.091L59.1791 102.815C59.1481 102.747 59.0362 102.722 58.9243 102.76L58.371 102.934C58.2653 102.971 58.1969 103.052 58.228 103.12L59.2475 105.396C59.2786 105.464 59.3905 105.489 59.5024 105.458Z" fill="#4E91F7" />
  <path opacity="0.6" d="M59.5024 105.458L60.0557 105.277C60.1614 105.24 60.2298 105.159 60.1987 105.091L59.1791 102.815C59.1481 102.747 59.0362 102.722 58.9243 102.76L58.371 102.934C58.2653 102.971 58.1969 103.052 58.228 103.12L59.2475 105.396C59.2786 105.464 59.3905 105.489 59.5024 105.458Z" fill="#FAFAFA" />
  <path d="M67.7024 102.809L68.2494 102.629C68.3613 102.629 68.4297 102.511 68.3986 102.443L67.3791 100.167C67.348 100.099 67.2299 100.074 67.1242 100.111L66.5709 100.291C66.4652 100.322 66.3969 100.41 66.428 100.472L67.4475 102.753C67.4782 102.789 67.5196 102.814 67.5656 102.824C67.6116 102.834 67.6595 102.829 67.7024 102.809Z" fill="#4E91F7" />
  <path opacity="0.6" d="M67.7024 102.809L68.2494 102.629C68.3613 102.629 68.4297 102.511 68.3986 102.443L67.3791 100.167C67.348 100.099 67.2299 100.074 67.1242 100.111L66.5709 100.291C66.4652 100.322 66.3969 100.41 66.428 100.472L67.4475 102.753C67.4782 102.789 67.5196 102.814 67.5656 102.824C67.6116 102.834 67.6595 102.829 67.7024 102.809Z" fill="#FAFAFA" />
  <path d="M52.1357 54.9059C52.1855 55.3224 52.0052 55.6955 51.7316 55.7265C51.4581 55.7576 51.1908 55.4468 51.1411 55.024C51.0913 54.6012 51.2716 54.2344 51.5451 54.2033C51.8187 54.1722 52.086 54.4831 52.1357 54.9059Z" fill="#263238" />
  <path d="M47.3796 55.484C47.4356 55.9068 47.2491 56.2736 46.9755 56.3047C46.702 56.3358 46.4347 56.0249 46.385 55.6084C46.3352 55.1918 46.5155 54.8188 46.789 54.7815C47.0626 54.7442 47.3175 55.0426 47.3796 55.484Z" fill="#263238" />
  <path d="M46.9143 54.7938L45.8699 54.626C45.8699 54.626 46.4853 55.3534 46.9143 54.7938Z" fill="#263238" />
  <path d="M48.7289 56.0566C48.4691 57.0609 48.0738 58.0251 47.554 58.9228C47.7881 59.0476 48.0462 59.1211 48.311 59.1383C48.5758 59.1554 48.8412 59.1159 49.0895 59.0222L48.7289 56.0566Z" fill="#A24E3F" />
  <path d="M50.7555 60.4951C50.7255 60.4954 50.6964 60.4849 50.6735 60.4655C50.6507 60.446 50.6356 60.419 50.6311 60.3894C50.6291 60.356 50.6393 60.323 50.6599 60.2966C50.6805 60.2703 50.7101 60.2524 50.743 60.2464C51.2668 60.1942 51.7709 60.0196 52.2148 59.7366C52.6586 59.4536 53.0297 59.0703 53.2981 58.6175C53.3048 58.6021 53.3145 58.5883 53.3266 58.5769C53.3388 58.5654 53.3531 58.5565 53.3688 58.5507C53.3844 58.5449 53.4011 58.5423 53.4178 58.5431C53.4345 58.5439 53.4509 58.548 53.4659 58.5553C53.4807 58.5625 53.4939 58.5727 53.5047 58.5851C53.5155 58.5975 53.5237 58.6119 53.5289 58.6275C53.5342 58.6431 53.5362 58.6596 53.535 58.676C53.5338 58.6925 53.5293 58.7085 53.5219 58.7231C53.2394 59.2171 52.8423 59.6359 52.3641 59.9443C51.8859 60.2527 51.3406 60.4416 50.7741 60.4951H50.7555Z" fill="#263238" />
  <path d="M52.7263 53.4135C52.6667 53.4128 52.6093 53.3907 52.5647 53.3513C52.3349 53.1387 52.0575 52.9842 51.7557 52.9009C51.4539 52.8176 51.1365 52.8079 50.8302 52.8726C50.7984 52.882 50.765 52.885 50.732 52.8813C50.699 52.8776 50.667 52.8673 50.6381 52.8511C50.6091 52.8349 50.5837 52.813 50.5633 52.7868C50.5429 52.7606 50.528 52.7306 50.5194 52.6985C50.51 52.6671 50.5071 52.634 50.5109 52.6015C50.5146 52.5689 50.5249 52.5374 50.5412 52.5089C50.5575 52.4804 50.5794 52.4556 50.6055 52.4358C50.6317 52.416 50.6616 52.4017 50.6934 52.3939C51.0789 52.3092 51.4789 52.3175 51.8605 52.418C52.2421 52.5185 52.5943 52.7084 52.8879 52.972C52.9114 52.9952 52.9301 53.0228 52.9428 53.0532C52.9555 53.0836 52.9621 53.1163 52.9621 53.1492C52.9621 53.1822 52.9555 53.2149 52.9428 53.2453C52.9301 53.2757 52.9114 53.3033 52.8879 53.3264C52.8467 53.3745 52.7891 53.4055 52.7263 53.4135Z" fill="#263238" />
  <path d="M44.9242 53.5569C44.8874 53.5656 44.8491 53.5656 44.8123 53.5569C44.7549 53.5252 44.7119 53.4727 44.6922 53.4102C44.6725 53.3477 44.6777 53.28 44.7066 53.2211C44.8767 52.8656 45.1289 52.5556 45.4424 52.3168C45.7558 52.0779 46.1215 51.9169 46.5094 51.8471C46.5745 51.8401 46.6396 51.859 46.6908 51.8998C46.7421 51.9405 46.7751 51.9998 46.7829 52.0647C46.7873 52.0974 46.7851 52.1307 46.7765 52.1625C46.7678 52.1944 46.753 52.2242 46.7327 52.2502C46.7125 52.2762 46.6872 52.298 46.6585 52.3142C46.6298 52.3304 46.5981 52.3407 46.5654 52.3445C46.2585 52.4017 45.9698 52.5314 45.7232 52.7228C45.4767 52.9142 45.2794 53.1618 45.148 53.445C45.1239 53.4817 45.0905 53.5115 45.0512 53.5311C45.0119 53.5508 44.968 53.5597 44.9242 53.5569Z" fill="#263238" />
  <path d="M75.914 71.6365L76.1503 71.9349L76.4424 72.2893C76.6414 72.5255 76.8465 72.768 77.0641 73.0042C77.4931 73.483 77.9406 73.9555 78.4193 74.4031C79.3566 75.3222 80.3467 76.1858 81.3847 76.9895C82.4386 77.7879 83.5321 78.5328 84.6608 79.2214C85.2265 79.5634 85.8047 79.8867 86.3891 80.2038L87.278 80.6576L87.707 80.8752C87.8127 80.925 87.9183 80.9747 88.0178 81.012C88.3351 81.1443 88.675 81.2139 89.0187 81.2172C89.3346 81.1991 89.6379 81.0864 89.889 80.8939C90.7221 80.2033 91.3803 79.3256 91.81 78.3324C92.387 77.1348 92.8511 75.8859 93.1963 74.6021C93.5806 73.2927 93.8981 71.9647 94.1474 70.623L96.8019 70.7909C96.885 73.8516 96.4477 76.9041 95.5089 79.8183C95.2429 80.6128 94.8993 81.3791 94.4831 82.1062C94.0213 82.9349 93.4246 83.6809 92.7176 84.3133C91.8756 85.0611 90.8464 85.5661 89.7398 85.7744C88.6641 85.962 87.559 85.8852 86.5196 85.5506C86.2772 85.4822 86.0534 85.3951 85.8233 85.3081L85.2825 85.0843L84.2257 84.6429C83.5232 84.3258 82.8331 84.0211 82.1555 83.6357C80.7955 82.9179 79.485 82.11 78.2328 81.2172C76.979 80.313 75.785 79.3286 74.6583 78.2702C74.0988 77.7355 73.5579 77.1698 73.0295 76.5853C72.7684 76.2869 72.5073 75.9636 72.2586 75.6776L71.8794 75.1865C71.7489 75.0124 71.6494 74.8756 71.4753 74.6269L75.914 71.6365Z" fill="#B97964" />
  <path d="M80.3224 74.9133L76.4307 81.4476L74.5347 79.6571L78.1279 73.1104L80.3224 74.9133Z" fill="#263238" />
  <path d="M71.8111 66.7814C74.0491 66.7441 79.4825 73.1603 79.4825 73.1603L74.7578 81.3856C74.7578 81.3856 68.7401 76.0824 68.7463 73.1789C68.7526 70.1511 69.2623 66.856 71.8111 66.7814Z" fill="#4E91F7" />
  <path opacity="0.3" d="M71.8111 66.7814C74.0491 66.7441 79.4825 73.1603 79.4825 73.1603L74.7578 81.3856C74.7578 81.3856 68.7401 76.0824 68.7463 73.1789C68.7526 70.1511 69.2623 66.856 71.8111 66.7814Z" fill="black" />
  <path d="M126.157 191.119C125.984 191.112 125.818 191.049 125.685 190.939C125.622 190.897 125.573 190.839 125.541 190.771C125.509 190.703 125.497 190.628 125.505 190.553C125.561 189.882 127.245 188.999 127.432 188.899C127.452 188.886 127.476 188.879 127.5 188.879C127.524 188.879 127.548 188.886 127.568 188.899C127.587 188.915 127.601 188.935 127.609 188.958C127.617 188.982 127.618 189.006 127.612 189.03C127.419 189.701 126.99 190.858 126.369 191.063C126.302 191.094 126.231 191.113 126.157 191.119ZM127.283 189.254C126.624 189.627 125.784 190.211 125.753 190.559C125.748 190.593 125.754 190.627 125.77 190.657C125.785 190.688 125.81 190.712 125.84 190.727C125.898 190.784 125.971 190.823 126.049 190.842C126.128 190.861 126.211 190.857 126.288 190.833C126.63 190.733 126.99 190.149 127.283 189.266V189.254Z" fill="#4E91F7" />
  <path d="M125.927 189.49C125.654 189.513 125.381 189.445 125.15 189.297C125.075 189.233 125.024 189.145 125.006 189.047C124.988 188.95 125.004 188.85 125.05 188.763C125.084 188.672 125.138 188.591 125.208 188.525C125.278 188.46 125.362 188.411 125.455 188.383C126.176 188.141 127.494 188.868 127.55 188.899C127.57 188.91 127.587 188.926 127.599 188.946C127.611 188.966 127.617 188.988 127.618 189.011C127.617 189.033 127.611 189.053 127.6 189.072C127.589 189.09 127.574 189.106 127.556 189.117C127.048 189.363 126.491 189.49 125.927 189.49ZM125.796 188.582C125.708 188.581 125.62 188.594 125.535 188.62C125.478 188.638 125.425 188.668 125.381 188.709C125.337 188.75 125.303 188.8 125.28 188.856C125.218 189.005 125.28 189.067 125.28 189.111C125.56 189.347 126.592 189.248 127.183 189.005C126.752 188.776 126.281 188.633 125.796 188.582Z" fill="#4E91F7" />
  <path d="M68.3673 210.722C67.9324 210.758 67.4971 210.656 67.124 210.429C67.0263 210.358 66.9468 210.264 66.8918 210.156C66.8367 210.048 66.8077 209.929 66.8069 209.808C66.7996 209.742 66.8102 209.675 66.8376 209.615C66.8649 209.555 66.908 209.503 66.9624 209.466C67.5281 209.08 69.6542 210.05 70.0707 210.243C70.0945 210.254 70.114 210.273 70.1263 210.297C70.1386 210.32 70.1431 210.347 70.1391 210.373C70.1369 210.399 70.1267 210.423 70.1099 210.442C70.0931 210.461 70.0706 210.474 70.0458 210.479C69.4959 210.616 68.9335 210.697 68.3673 210.722ZM67.3726 209.646C67.2887 209.638 67.2044 209.656 67.1302 209.696C67.1114 209.709 67.0967 209.726 67.0879 209.747C67.0791 209.768 67.0765 209.791 67.0805 209.814C67.0826 209.895 67.1033 209.975 67.141 210.047C67.1787 210.119 67.2325 210.182 67.2981 210.23C67.7892 210.603 68.9579 210.46 69.6417 210.336C68.9244 209.993 68.1594 209.761 67.3726 209.646Z" fill="#4E91F7" />
  <path d="M70.0455 210.503H69.9957C69.2933 210.217 67.8759 209.08 67.9567 208.489C67.9567 208.359 68.0562 208.197 68.3794 208.16C69.6227 207.998 70.1449 210.267 70.1636 210.361C70.1688 210.383 70.168 210.406 70.1615 210.428C70.1549 210.449 70.1428 210.469 70.1263 210.485C70.1019 210.499 70.0737 210.506 70.0455 210.503ZM68.4913 208.396H68.4105C68.2799 208.396 68.2053 208.452 68.1991 208.514C68.1556 208.85 69.1316 209.757 69.8528 210.143C69.6973 209.608 69.2373 208.396 68.4913 208.396Z" fill="#4E91F7" />
  <path d="M51.6694 54.2099L50.625 54.042C50.625 54.042 51.2404 54.7694 51.6694 54.2099Z" fill="#263238" />
  <path d="M12.7781 10.7637C11.6778 12.1439 5.61655 13.7666 0.798654 13.3189C-0.861188 24.2115 4.93894 36.7516 4.93894 36.7516C4.93894 36.7516 17.5276 35.2533 17.8385 30.0681C18.1493 24.883 12.7781 10.7637 12.7781 10.7637Z" fill="#4E91F7" />
  <path opacity="0.4" d="M12.7781 10.7637C11.6778 12.1439 5.61655 13.7666 0.798654 13.3189C-0.861188 24.2115 4.93894 36.7516 4.93894 36.7516C4.93894 36.7516 17.5276 35.2533 17.8385 30.0681C18.1493 24.883 12.7781 10.7637 12.7781 10.7637Z" fill="#FAFAFA" />
  <path d="M108.073 2.47559C109.198 4.06097 114.911 5.63393 119.331 4.81326C121.7 17.7078 117.311 33.027 117.311 33.027C117.311 33.027 105.58 31.9825 104.877 25.8212C104.175 19.66 108.073 2.47559 108.073 2.47559Z" fill="#4E91F7" />
  <path opacity="0.4" d="M108.073 2.47559C109.198 4.06097 114.911 5.63393 119.331 4.81326C121.7 17.7078 117.311 33.027 117.311 33.027C117.311 33.027 105.58 31.9825 104.877 25.8212C104.175 19.66 108.073 2.47559 108.073 2.47559Z" fill="#FAFAFA" />
  <path d="M25.5599 114.15C25.4705 114.163 25.3793 114.158 25.2917 114.136C25.2041 114.113 25.1217 114.074 25.0495 114.02C24.9772 113.965 24.9164 113.897 24.8707 113.819C24.8249 113.741 24.7951 113.655 24.7829 113.565L10.0183 8.82389C10.0062 8.7314 10.0128 8.63741 10.0377 8.54752C10.0626 8.45762 10.1054 8.37364 10.1633 8.30057C10.2213 8.2275 10.2934 8.16683 10.3753 8.12216C10.4572 8.07749 10.5472 8.04973 10.64 8.04052C10.7298 8.02826 10.8212 8.03381 10.9088 8.05686C10.9965 8.07991 11.0787 8.12 11.1509 8.17485C11.2231 8.2297 11.2837 8.29822 11.3294 8.37652C11.3751 8.45481 11.4049 8.54134 11.4171 8.63116L26.1816 113.366C26.1937 113.459 26.1871 113.553 26.1622 113.643C26.1373 113.733 26.0946 113.817 26.0366 113.89C25.9786 113.963 25.9066 114.023 25.8247 114.068C25.7428 114.113 25.6528 114.14 25.5599 114.15Z" fill="#4E91F7" />
  <path opacity="0.2" d="M25.5599 114.15C25.4705 114.163 25.3793 114.158 25.2917 114.136C25.2041 114.113 25.1217 114.074 25.0495 114.02C24.9772 113.965 24.9164 113.897 24.8707 113.819C24.8249 113.741 24.7951 113.655 24.7829 113.565L10.0183 8.82389C10.0062 8.7314 10.0128 8.63741 10.0377 8.54752C10.0626 8.45762 10.1054 8.37364 10.1633 8.30057C10.2213 8.2275 10.2934 8.16683 10.3753 8.12216C10.4572 8.07749 10.5472 8.04973 10.64 8.04052C10.7298 8.02826 10.8212 8.03381 10.9088 8.05686C10.9965 8.07991 11.0787 8.12 11.1509 8.17485C11.2231 8.2297 11.2837 8.29822 11.3294 8.37652C11.3751 8.45481 11.4049 8.54134 11.4171 8.63116L26.1816 113.366C26.1937 113.459 26.1871 113.553 26.1622 113.643C26.1373 113.733 26.0946 113.817 26.0366 113.89C25.9786 113.963 25.9066 114.023 25.8247 114.068C25.7428 114.113 25.6528 114.14 25.5599 114.15Z" fill="black" />
  <path d="M95.9129 106.366C96.0054 106.378 96.0994 106.371 96.1893 106.346C96.2791 106.322 96.3631 106.279 96.4362 106.221C96.5092 106.163 96.5699 106.091 96.6146 106.009C96.6592 105.927 96.687 105.837 96.6962 105.744L111.492 1.00899C111.505 0.919162 111.5 0.827615 111.478 0.739591C111.456 0.651567 111.416 0.568801 111.362 0.496029C111.308 0.423257 111.24 0.361912 111.162 0.315511C111.084 0.26911 110.997 0.238566 110.907 0.225625C110.815 0.213509 110.721 0.220102 110.631 0.245011C110.541 0.26992 110.457 0.312638 110.384 0.370629C110.311 0.42862 110.25 0.500699 110.206 0.582591C110.161 0.664482 110.133 0.754517 110.124 0.847346L95.3285 105.582C95.3036 105.764 95.3509 105.947 95.4602 106.094C95.5695 106.24 95.7322 106.338 95.9129 106.366Z" fill="#4E91F7" />
  <path opacity="0.2" d="M95.9129 106.366C96.0054 106.378 96.0994 106.371 96.1893 106.346C96.2791 106.322 96.3631 106.279 96.4362 106.221C96.5092 106.163 96.5699 106.091 96.6146 106.009C96.6592 105.927 96.687 105.837 96.6962 105.744L111.492 1.00899C111.505 0.919162 111.5 0.827615 111.478 0.739591C111.456 0.651567 111.416 0.568801 111.362 0.496029C111.308 0.423257 111.24 0.361912 111.162 0.315511C111.084 0.26911 110.997 0.238566 110.907 0.225625C110.815 0.213509 110.721 0.220102 110.631 0.245011C110.541 0.26992 110.457 0.312638 110.384 0.370629C110.311 0.42862 110.25 0.500699 110.206 0.582591C110.161 0.664482 110.133 0.754517 110.124 0.847346L95.3285 105.582C95.3036 105.764 95.3509 105.947 95.4602 106.094C95.5695 106.24 95.7322 106.338 95.9129 106.366Z" fill="black" />
  <path d="M9.42738 11.0372L12.2249 31.6037C12.242 31.7337 12.287 31.8584 12.3569 31.9693C12.4268 32.0802 12.5199 32.1747 12.6298 32.2461C12.7397 32.3176 12.8637 32.3645 12.9934 32.3834C13.1231 32.4024 13.2554 32.393 13.3812 32.356C19.6351 30.5654 54.411 21.6375 107.831 27.3201C108.057 27.3462 108.286 27.2859 108.47 27.151C108.655 27.0162 108.781 26.8168 108.825 26.5926C109.832 21.3826 111.567 6.54213 112.008 2.74342C112.035 2.50395 111.966 2.26366 111.817 2.07417C111.668 1.88469 111.451 1.76112 111.212 1.73002C104.038 0.822303 55.0699 -4.60532 10.0553 10.0424C9.85161 10.1099 9.67768 10.2459 9.56317 10.4273C9.44866 10.6088 9.40066 10.8243 9.42738 11.0372Z" fill="#4E91F7" />
  <path opacity="0.6" d="M9.42738 11.0372L12.2249 31.6037C12.242 31.7337 12.287 31.8584 12.3569 31.9693C12.4268 32.0802 12.5199 32.1747 12.6298 32.2461C12.7397 32.3176 12.8637 32.3645 12.9934 32.3834C13.1231 32.4024 13.2554 32.393 13.3812 32.356C19.6351 30.5654 54.411 21.6375 107.831 27.3201C108.057 27.3462 108.286 27.2859 108.47 27.151C108.655 27.0162 108.781 26.8168 108.825 26.5926C109.832 21.3826 111.567 6.54213 112.008 2.74342C112.035 2.50395 111.966 2.26366 111.817 2.07417C111.668 1.88469 111.451 1.76112 111.212 1.73002C104.038 0.822303 55.0699 -4.60532 10.0553 10.0424C9.85161 10.1099 9.67768 10.2459 9.56317 10.4273C9.44866 10.6088 9.40066 10.8243 9.42738 11.0372Z" fill="#FAFAFA" />
  <path d="M18.3982 14.6311L21.3449 14.0094L23.4275 19.4245L23.9559 13.4809L26.8963 12.8592L29.4762 18.1687L29.5135 12.3307L32.4478 11.709L32.0624 22.2161L29.0224 22.8378L26.1068 16.8568L25.4852 23.5465L22.4452 24.1683L18.3982 14.6311Z" fill="#FAFAFA" />
  <path d="M33.8904 11.596L42.2766 10.3525L42.5502 12.5161L37.3033 13.2871L37.5085 14.9035L42.3761 14.1886L42.6372 16.2589L37.7696 16.9739L37.9934 18.982L43.3956 18.1924L43.6878 20.4928L35.1461 21.7362L33.8904 11.596Z" fill="#FAFAFA" />
  <path d="M44.4082 10.1105L47.5538 9.76855L48.2252 17.4592L53.1301 16.9308L53.3539 19.4177L45.2723 20.2881L44.4082 10.1105Z" fill="#FAFAFA" />
  <path d="M61.0316 14.668L63.8353 15.2897C63.7192 16.0079 63.4546 16.694 63.0582 17.3041C62.6945 17.8533 62.1986 18.3023 61.616 18.6097C60.9179 18.9462 60.1584 19.1366 59.3842 19.1693C58.46 19.2678 57.5254 19.1682 56.6427 18.8771C55.8785 18.5467 55.2295 17.9972 54.7777 17.2979C54.1826 16.3833 53.8612 15.3177 53.8514 14.2266C53.6883 12.7951 54.0997 11.3574 54.9953 10.2289C55.4751 9.71954 56.0527 9.31219 56.6936 9.03124C57.3345 8.75028 58.0255 8.6015 58.7252 8.59379C59.7802 8.45588 60.8519 8.65154 61.79 9.15334C62.614 9.70117 63.2345 10.5053 63.5556 11.4413L60.8016 12.2619C60.7258 12.0225 60.6103 11.7976 60.4597 11.5967C60.2691 11.3709 60.0257 11.1957 59.751 11.0869C59.3042 10.9044 58.8065 10.8894 58.3496 11.0448C57.8927 11.2001 57.5073 11.5154 57.2643 11.9324C56.9624 12.5713 56.8481 13.2828 56.9348 13.9841C56.9887 15.1156 57.1959 15.8804 57.5565 16.2783C57.7441 16.4766 57.9759 16.6278 58.233 16.7196C58.4901 16.8115 58.7653 16.8413 59.0361 16.8067C59.2911 16.8036 59.5425 16.7466 59.7739 16.6395C60.0054 16.5323 60.2115 16.3774 60.3789 16.185C60.7226 15.7435 60.9474 15.2212 61.0316 14.668Z" fill="#FAFAFA" />
  <path d="M64.9852 13.4802C64.9365 12.765 65.0301 12.0473 65.2606 11.3686C65.4911 10.6899 65.8539 10.0636 66.328 9.52604C66.8363 9.02563 67.44 8.63241 68.1031 8.36969C68.7663 8.10697 69.4754 7.9801 70.1885 7.9966C70.8964 7.92609 71.6112 7.99993 72.2897 8.21365C72.9682 8.42738 73.5964 8.77655 74.1361 9.24004C74.6206 9.74345 74.9968 10.3408 75.2416 10.9952C75.4865 11.6495 75.5947 12.3472 75.5597 13.045C75.6136 14.0661 75.4217 15.0852 75.0002 16.0168C74.6197 16.7927 74.0213 17.4409 73.2782 17.882C72.4137 18.3647 71.4397 18.6173 70.4496 18.6156C69.4717 18.6843 68.491 18.5269 67.5837 18.1555C66.8032 17.7967 66.1521 17.2062 65.7187 16.4644C65.2089 15.5543 64.9554 14.523 64.9852 13.4802ZM68.137 13.3931C68.0821 14.1806 68.3018 14.9628 68.7587 15.6065C68.9527 15.8258 69.1956 15.9964 69.4677 16.1044C69.7399 16.2124 70.0337 16.2548 70.3253 16.2282C70.6234 16.2349 70.9192 16.1741 71.1905 16.0503C71.4618 15.9264 71.7016 15.7428 71.8919 15.5132C72.3255 14.7902 72.5111 13.9453 72.4203 13.1072C72.4735 12.3565 72.2526 11.6121 71.7986 11.0119C71.5999 10.7934 71.3536 10.6237 71.0786 10.5158C70.8037 10.408 70.5076 10.365 70.2134 10.3902C69.9212 10.3893 69.6325 10.4543 69.3689 10.5802C69.1052 10.7061 68.8733 10.8898 68.6903 11.1176C68.2529 11.789 68.0577 12.5896 68.137 13.3869V13.3931Z" fill="#FAFAFA" />
  <path d="M77.4746 7.97168H81.6211L83.0509 14.2324L84.8102 8.0152L88.9567 8.0525L88.677 18.3109H86.0908L86.3022 10.4834L84.1015 18.2922H81.7641L79.9923 10.4461L79.7809 18.2736H77.1948L77.4746 7.97168Z" fill="#FAFAFA" />
  <path d="M91.232 8.15234L99.6679 8.53159L99.5374 10.72L94.2533 10.4838L94.1476 12.1438L99.0463 12.3614L98.9157 14.4193L94.017 14.2017L93.8927 16.2285L99.326 16.4648L99.1768 18.79L90.5854 18.4045L91.232 8.15234Z" fill="#FAFAFA" />
</svg>
