<svg width="40" height="40" viewBox="0 0 40 40" fill="none" xmlns="http://www.w3.org/2000/svg">
<rect width="40" height="40" rx="12" fill="#5AB078"/>
<path d="M9.675 26.1251C8.18611 23.6131 7.66531 20.644 8.21039 17.7753C8.75546 14.9065 10.3289 12.3354 12.6354 10.5445C14.9418 8.75364 17.8226 7.86623 20.737 8.04888C23.6513 8.23152 26.3988 9.47165 28.4636 11.5365C30.5284 13.6013 31.7686 16.3488 31.9512 19.2631C32.1339 22.1775 31.2465 25.0583 29.4556 27.3647C27.6647 29.6712 25.0936 31.2446 22.2248 31.7897C19.3561 32.3348 16.387 31.814 13.875 30.3251V30.3251L9.725 31.5001C9.55497 31.5498 9.3747 31.5529 9.20307 31.509C9.03145 31.4651 8.87479 31.3758 8.74953 31.2506C8.62426 31.1253 8.535 30.9686 8.4911 30.797C8.4472 30.6254 8.45027 30.4451 8.5 30.2751L9.675 26.1251Z" stroke="white" stroke-width="2" stroke-linecap="round" stroke-linejoin="round"/>
<path d="M23.0125 27C21.6967 27.0033 20.3932 26.7466 19.177 26.2446C17.9607 25.7426 16.8556 25.0052 15.9252 24.0748C14.9948 23.1444 14.2574 22.0393 13.7554 20.823C13.2534 19.6068 12.9967 18.3033 13 16.9875C13.0033 16.0614 13.3735 15.1744 14.0295 14.5207C14.6856 13.8671 15.5739 13.5 16.5 13.5V13.5C16.6528 13.4988 16.8031 13.5388 16.9351 13.6158C17.0671 13.6928 17.1759 13.8039 17.25 13.9375L18.7125 16.4875C18.7995 16.6425 18.8441 16.8177 18.8419 16.9955C18.8397 17.1732 18.7908 17.3472 18.7 17.5L17.525 19.4625C18.1268 20.8014 19.1986 21.8732 20.5375 22.475L22.5 21.3C22.6528 21.2093 22.8268 21.1603 23.0046 21.1581C23.1823 21.1559 23.3575 21.2006 23.5125 21.2875L26.0625 22.75C26.1961 22.8242 26.3072 22.933 26.3842 23.0649C26.4612 23.1969 26.5012 23.3472 26.5 23.5C26.4967 24.4251 26.1286 25.3116 25.4757 25.9669C24.8227 26.6222 23.9376 26.9934 23.0125 27V27Z" stroke="white" stroke-width="2" stroke-linecap="round" stroke-linejoin="round"/>
</svg>
